<svg width="79" height="22" viewBox="0 0 79 22" fill="none" xmlns="http://www.w3.org/2000/svg">
<rect width="79" height="22" rx="4" fill="url(#paint0_linear_29_98)" fill-opacity="0.9"/>
<g filter="url(#filter0_d_29_98)">
<g filter="url(#filter1_dii_29_98)">
<path d="M13 17C13 16.6 13 17.72 13 15.8C13 12.2 7 9.8 7 6.2C7 4.28 7 5.6 7 5" stroke="url(#paint1_linear_29_98)" stroke-width="1.75" stroke-linecap="round"/>
</g>
<g filter="url(#filter2_dii_29_98)">
<path d="M7 17C7 16.6 7 17.72 7 15.8C7 12.2 13 9.8 13 6.2C13 4.28 13 5.6 13 5" stroke="url(#paint2_linear_29_98)" stroke-width="1.75" stroke-linecap="round"/>
</g>
</g>
<g filter="url(#filter3_d_29_98)">
<path d="M19.4403 14V8.18182H20.8466V10.517H23.1392V8.18182H24.5426V14H23.1392V11.6619H20.8466V14H19.4403ZM27.4645 14.0824C27.008 14.0824 26.6141 13.9924 26.2827 13.8125C25.9531 13.6307 25.6993 13.3722 25.5213 13.0369C25.3452 12.6998 25.2571 12.2992 25.2571 11.8352C25.2571 11.3845 25.3461 10.9905 25.5241 10.6534C25.7022 10.3144 25.9531 10.0511 26.277 9.86364C26.6009 9.67424 26.9825 9.57955 27.4219 9.57955C27.7325 9.57955 28.0166 9.62784 28.2741 9.72443C28.5317 9.82102 28.7543 9.96402 28.9418 10.1534C29.1293 10.3428 29.2751 10.5767 29.3793 10.8551C29.4834 11.1316 29.5355 11.4489 29.5355 11.8068V12.1534H25.7429V11.3466H28.2429C28.241 11.1989 28.206 11.0672 28.1378 10.9517C28.0696 10.8362 27.9759 10.7462 27.8565 10.6818C27.7391 10.6155 27.6037 10.5824 27.4503 10.5824C27.295 10.5824 27.1558 10.6174 27.0327 10.6875C26.9096 10.7557 26.812 10.8494 26.7401 10.9688C26.6681 11.0862 26.6302 11.2197 26.6264 11.3693V12.1903C26.6264 12.3684 26.6615 12.5246 26.7315 12.6591C26.8016 12.7917 26.901 12.8949 27.0298 12.9688C27.1586 13.0426 27.312 13.0795 27.4901 13.0795C27.6132 13.0795 27.7249 13.0625 27.8253 13.0284C27.9257 12.9943 28.0118 12.9441 28.0838 12.8778C28.1558 12.8116 28.2098 12.7301 28.2457 12.6335L29.5213 12.6705C29.4683 12.9564 29.3518 13.2055 29.1719 13.4176C28.9938 13.6278 28.7599 13.7917 28.4702 13.9091C28.1804 14.0246 27.8452 14.0824 27.4645 14.0824ZM31.6342 8.18182V14H30.245V8.18182H31.6342ZM32.5185 14V9.63636H33.9077V14H32.5185ZM33.2145 9.12784C33.0194 9.12784 32.8518 9.06345 32.7116 8.93466C32.5715 8.80398 32.5014 8.64678 32.5014 8.46307C32.5014 8.28125 32.5715 8.12595 32.7116 7.99716C32.8518 7.86648 33.0194 7.80114 33.2145 7.80114C33.4115 7.80114 33.5791 7.86648 33.7173 7.99716C33.8575 8.12595 33.9276 8.28125 33.9276 8.46307C33.9276 8.64678 33.8575 8.80398 33.7173 8.93466C33.5791 9.06345 33.4115 9.12784 33.2145 9.12784ZM35.9737 9.63636L36.6925 11.0739L37.4368 9.63636H38.8374L37.6186 11.8182L38.8828 14H37.4936L36.6925 12.5511L35.9112 14H34.5021L35.7692 11.8182L34.5646 9.63636H35.9737Z" fill="url(#paint3_linear_29_98)"/>
<path d="M42.794 14L41.1804 8.18182H42.1037L43.2372 12.6875H43.2912L44.4702 8.18182H45.3849L46.5639 12.6903H46.6179L47.7486 8.18182H48.6747L47.0582 14H46.1747L44.9503 9.64205H44.9048L43.6804 14H42.794ZM50.858 14.0881C50.428 14.0881 50.0578 13.9962 49.7472 13.8125C49.4384 13.6269 49.1998 13.3665 49.0312 13.0312C48.8646 12.6941 48.7812 12.2992 48.7812 11.8466C48.7812 11.3996 48.8646 11.0057 49.0312 10.6648C49.1998 10.3239 49.4347 10.0578 49.7358 9.86648C50.0388 9.67519 50.393 9.57955 50.7983 9.57955C51.0445 9.57955 51.2831 9.62027 51.5142 9.7017C51.7453 9.78314 51.9527 9.91098 52.1364 10.0852C52.3201 10.2595 52.465 10.4858 52.571 10.7642C52.6771 11.0407 52.7301 11.3769 52.7301 11.7727V12.0739H49.2614V11.4375H51.8977C51.8977 11.214 51.8523 11.0161 51.7614 10.8438C51.6705 10.6695 51.5426 10.5322 51.3778 10.4318C51.215 10.3314 51.0237 10.2812 50.804 10.2812C50.5653 10.2812 50.357 10.34 50.179 10.4574C50.0028 10.5729 49.8665 10.7244 49.7699 10.9119C49.6752 11.0975 49.6278 11.2992 49.6278 11.517V12.0142C49.6278 12.3059 49.679 12.554 49.7812 12.7585C49.8854 12.9631 50.0303 13.1193 50.2159 13.2273C50.4015 13.3333 50.6184 13.3864 50.8665 13.3864C51.0275 13.3864 51.1742 13.3636 51.3068 13.3182C51.4394 13.2708 51.554 13.2008 51.6506 13.108C51.7472 13.0152 51.821 12.9006 51.8722 12.7642L52.6761 12.9091C52.6117 13.1458 52.4962 13.3532 52.3295 13.5312C52.1648 13.7074 51.9574 13.8447 51.7074 13.9432C51.4593 14.0398 51.1761 14.0881 50.858 14.0881ZM53.7408 14V8.18182H54.5902V10.3438H54.6413C54.6906 10.2528 54.7616 10.1477 54.8544 10.0284C54.9472 9.90909 55.076 9.80492 55.2408 9.71591C55.4055 9.625 55.6233 9.57955 55.8942 9.57955C56.2464 9.57955 56.5608 9.66856 56.8374 9.84659C57.1139 10.0246 57.3307 10.2812 57.4879 10.6165C57.647 10.9517 57.7266 11.3551 57.7266 11.8267C57.7266 12.2983 57.648 12.7027 57.4908 13.0398C57.3336 13.375 57.1177 13.6335 56.843 13.8153C56.5684 13.9953 56.255 14.0852 55.9027 14.0852C55.6375 14.0852 55.4207 14.0407 55.2521 13.9517C55.0855 13.8627 54.9548 13.7585 54.8601 13.6392C54.7654 13.5199 54.6925 13.4138 54.6413 13.321H54.5703V14H53.7408ZM54.5732 11.8182C54.5732 12.125 54.6177 12.3939 54.7067 12.625C54.7957 12.8561 54.9245 13.0369 55.093 13.1676C55.2616 13.2964 55.468 13.3608 55.7124 13.3608C55.9661 13.3608 56.1783 13.2936 56.3487 13.1591C56.5192 13.0227 56.648 12.8381 56.7351 12.6051C56.8241 12.3722 56.8686 12.1098 56.8686 11.8182C56.8686 11.5303 56.825 11.2718 56.7379 11.0426C56.6527 10.8134 56.5239 10.6326 56.3516 10.5C56.1811 10.3674 55.968 10.3011 55.7124 10.3011C55.4661 10.3011 55.2578 10.3646 55.0874 10.4915C54.9188 10.6184 54.791 10.7955 54.7038 11.0227C54.6167 11.25 54.5732 11.5152 54.5732 11.8182ZM61.9503 10.7017L61.1804 10.8381C61.1482 10.7396 61.0971 10.6458 61.027 10.5568C60.9588 10.4678 60.866 10.3949 60.7486 10.3381C60.6312 10.2812 60.4844 10.2528 60.3082 10.2528C60.0677 10.2528 59.867 10.3068 59.706 10.4148C59.545 10.5208 59.4645 10.6581 59.4645 10.8267C59.4645 10.9725 59.5185 11.09 59.6264 11.179C59.7344 11.268 59.9086 11.3409 60.1491 11.3977L60.8423 11.5568C61.2438 11.6496 61.5431 11.7926 61.7401 11.9858C61.937 12.179 62.0355 12.4299 62.0355 12.7386C62.0355 13 61.9598 13.233 61.8082 13.4375C61.6586 13.6402 61.4493 13.7992 61.1804 13.9148C60.9134 14.0303 60.6037 14.0881 60.2514 14.0881C59.7628 14.0881 59.3641 13.9839 59.0554 13.7756C58.7467 13.5653 58.5573 13.267 58.4872 12.8807L59.3082 12.7557C59.3594 12.9697 59.4645 13.1316 59.6236 13.2415C59.7827 13.3494 59.9901 13.4034 60.2457 13.4034C60.5241 13.4034 60.7467 13.3456 60.9134 13.2301C61.08 13.1127 61.1634 12.9697 61.1634 12.8011C61.1634 12.6648 61.1122 12.5502 61.0099 12.4574C60.9096 12.3646 60.7552 12.2945 60.5469 12.2472L59.8082 12.0852C59.401 11.9924 59.0999 11.8447 58.9048 11.642C58.7116 11.4394 58.6151 11.1828 58.6151 10.8722C58.6151 10.6146 58.687 10.3892 58.831 10.196C58.9749 10.0028 59.1738 9.85227 59.4276 9.74432C59.6813 9.63447 59.9721 9.57955 60.2997 9.57955C60.7713 9.57955 61.1425 9.68182 61.4134 9.88636C61.6842 10.089 61.8632 10.3608 61.9503 10.7017ZM62.9695 14V9.63636H63.8189V14H62.9695ZM63.3984 8.96307C63.2507 8.96307 63.1238 8.91383 63.0178 8.81534C62.9136 8.71496 62.8615 8.59564 62.8615 8.45739C62.8615 8.31723 62.9136 8.19792 63.0178 8.09943C63.1238 7.99905 63.2507 7.94886 63.3984 7.94886C63.5462 7.94886 63.6721 7.99905 63.7763 8.09943C63.8823 8.19792 63.9354 8.31723 63.9354 8.45739C63.9354 8.59564 63.8823 8.71496 63.7763 8.81534C63.6721 8.91383 63.5462 8.96307 63.3984 8.96307ZM66.9986 9.63636V10.3182H64.6151V9.63636H66.9986ZM65.2543 8.59091H66.1037V12.7188C66.1037 12.8835 66.1283 13.0076 66.1776 13.0909C66.2268 13.1723 66.2902 13.2282 66.3679 13.2585C66.4474 13.2869 66.5336 13.3011 66.6264 13.3011C66.6946 13.3011 66.7543 13.2964 66.8054 13.2869C66.8565 13.2775 66.8963 13.2699 66.9247 13.2642L67.0781 13.9659C67.0289 13.9848 66.9588 14.0038 66.8679 14.0227C66.777 14.0436 66.6634 14.0549 66.527 14.0568C66.3035 14.0606 66.0952 14.0208 65.902 13.9375C65.7088 13.8542 65.5526 13.7254 65.4332 13.5511C65.3139 13.3769 65.2543 13.1581 65.2543 12.8949V8.59091ZM69.772 14.0881C69.3421 14.0881 68.9718 13.9962 68.6612 13.8125C68.3525 13.6269 68.1139 13.3665 67.9453 13.0312C67.7786 12.6941 67.6953 12.2992 67.6953 11.8466C67.6953 11.3996 67.7786 11.0057 67.9453 10.6648C68.1139 10.3239 68.3487 10.0578 68.6499 9.86648C68.9529 9.67519 69.3071 9.57955 69.7124 9.57955C69.9586 9.57955 70.1972 9.62027 70.4283 9.7017C70.6593 9.78314 70.8667 9.91098 71.0504 10.0852C71.2341 10.2595 71.379 10.4858 71.4851 10.7642C71.5911 11.0407 71.6442 11.3769 71.6442 11.7727V12.0739H68.1754V11.4375H70.8118C70.8118 11.214 70.7663 11.0161 70.6754 10.8438C70.5845 10.6695 70.4567 10.5322 70.2919 10.4318C70.129 10.3314 69.9377 10.2812 69.718 10.2812C69.4794 10.2812 69.2711 10.34 69.093 10.4574C68.9169 10.5729 68.7805 10.7244 68.6839 10.9119C68.5893 11.0975 68.5419 11.2992 68.5419 11.517V12.0142C68.5419 12.3059 68.593 12.554 68.6953 12.7585C68.7995 12.9631 68.9444 13.1193 69.13 13.2273C69.3156 13.3333 69.5324 13.3864 69.7805 13.3864C69.9415 13.3864 70.0883 13.3636 70.2209 13.3182C70.3535 13.2708 70.468 13.2008 70.5646 13.108C70.6612 13.0152 70.7351 12.9006 70.7862 12.7642L71.5902 12.9091C71.5258 13.1458 71.4103 13.3532 71.2436 13.5312C71.0788 13.7074 70.8714 13.8447 70.6214 13.9432C70.3733 14.0398 70.0902 14.0881 69.772 14.0881Z" fill="white"/>
</g>
<rect x="0.375" y="0.375" width="78.25" height="21.25" rx="3.625" stroke="white" stroke-opacity="0.05" stroke-width="0.75"/>
<defs>
<filter id="filter0_d_29_98" x="5.125" y="3.125" width="9.75" height="15.75" filterUnits="userSpaceOnUse" color-interpolation-filters="sRGB">
<feFlood flood-opacity="0" result="BackgroundImageFix"/>
<feColorMatrix in="SourceAlpha" type="matrix" values="0 0 0 0 0 0 0 0 0 0 0 0 0 0 0 0 0 0 127 0" result="hardAlpha"/>
<feOffset/>
<feGaussianBlur stdDeviation="0.5"/>
<feComposite in2="hardAlpha" operator="out"/>
<feColorMatrix type="matrix" values="0 0 0 0 0 0 0 0 0 0 0 0 0 0 0 0 0 0 0.1 0"/>
<feBlend mode="normal" in2="BackgroundImageFix" result="effect1_dropShadow_29_98"/>
<feBlend mode="normal" in="SourceGraphic" in2="effect1_dropShadow_29_98" result="shape"/>
</filter>
<filter id="filter1_dii_29_98" x="5.125" y="3.125" width="9.75" height="15.75" filterUnits="userSpaceOnUse" color-interpolation-filters="sRGB">
<feFlood flood-opacity="0" result="BackgroundImageFix"/>
<feColorMatrix in="SourceAlpha" type="matrix" values="0 0 0 0 0 0 0 0 0 0 0 0 0 0 0 0 0 0 127 0" result="hardAlpha"/>
<feOffset/>
<feGaussianBlur stdDeviation="0.5"/>
<feComposite in2="hardAlpha" operator="out"/>
<feColorMatrix type="matrix" values="0 0 0 0 0 0 0 0 0 0 0 0 0 0 0 0 0 0 0.25 0"/>
<feBlend mode="normal" in2="BackgroundImageFix" result="effect1_dropShadow_29_98"/>
<feBlend mode="normal" in="SourceGraphic" in2="effect1_dropShadow_29_98" result="shape"/>
<feColorMatrix in="SourceAlpha" type="matrix" values="0 0 0 0 0 0 0 0 0 0 0 0 0 0 0 0 0 0 127 0" result="hardAlpha"/>
<feOffset/>
<feGaussianBlur stdDeviation="0.25"/>
<feComposite in2="hardAlpha" operator="arithmetic" k2="-1" k3="1"/>
<feColorMatrix type="matrix" values="0 0 0 0 0 0 0 0 0 0 0 0 0 0 0 0 0 0 0.2 0"/>
<feBlend mode="normal" in2="shape" result="effect2_innerShadow_29_98"/>
<feColorMatrix in="SourceAlpha" type="matrix" values="0 0 0 0 0 0 0 0 0 0 0 0 0 0 0 0 0 0 127 0" result="hardAlpha"/>
<feOffset/>
<feGaussianBlur stdDeviation="0.1"/>
<feComposite in2="hardAlpha" operator="arithmetic" k2="-1" k3="1"/>
<feColorMatrix type="matrix" values="0 0 0 0 1 0 0 0 0 1 0 0 0 0 1 0 0 0 0.3 0"/>
<feBlend mode="normal" in2="effect2_innerShadow_29_98" result="effect3_innerShadow_29_98"/>
</filter>
<filter id="filter2_dii_29_98" x="5.125" y="3.125" width="9.75" height="15.75" filterUnits="userSpaceOnUse" color-interpolation-filters="sRGB">
<feFlood flood-opacity="0" result="BackgroundImageFix"/>
<feColorMatrix in="SourceAlpha" type="matrix" values="0 0 0 0 0 0 0 0 0 0 0 0 0 0 0 0 0 0 127 0" result="hardAlpha"/>
<feOffset/>
<feGaussianBlur stdDeviation="0.5"/>
<feComposite in2="hardAlpha" operator="out"/>
<feColorMatrix type="matrix" values="0 0 0 0 0 0 0 0 0 0 0 0 0 0 0 0 0 0 0.25 0"/>
<feBlend mode="normal" in2="BackgroundImageFix" result="effect1_dropShadow_29_98"/>
<feBlend mode="normal" in="SourceGraphic" in2="effect1_dropShadow_29_98" result="shape"/>
<feColorMatrix in="SourceAlpha" type="matrix" values="0 0 0 0 0 0 0 0 0 0 0 0 0 0 0 0 0 0 127 0" result="hardAlpha"/>
<feOffset/>
<feGaussianBlur stdDeviation="0.25"/>
<feComposite in2="hardAlpha" operator="arithmetic" k2="-1" k3="1"/>
<feColorMatrix type="matrix" values="0 0 0 0 0 0 0 0 0 0 0 0 0 0 0 0 0 0 0.2 0"/>
<feBlend mode="normal" in2="shape" result="effect2_innerShadow_29_98"/>
<feColorMatrix in="SourceAlpha" type="matrix" values="0 0 0 0 0 0 0 0 0 0 0 0 0 0 0 0 0 0 127 0" result="hardAlpha"/>
<feOffset/>
<feGaussianBlur stdDeviation="0.1"/>
<feComposite in2="hardAlpha" operator="arithmetic" k2="-1" k3="1"/>
<feColorMatrix type="matrix" values="0 0 0 0 1 0 0 0 0 1 0 0 0 0 1 0 0 0 0.3 0"/>
<feBlend mode="normal" in2="effect2_innerShadow_29_98" result="effect3_innerShadow_29_98"/>
</filter>
<filter id="filter3_d_29_98" x="18.4403" y="6.80113" width="54.2038" height="8.28694" filterUnits="userSpaceOnUse" color-interpolation-filters="sRGB">
<feFlood flood-opacity="0" result="BackgroundImageFix"/>
<feColorMatrix in="SourceAlpha" type="matrix" values="0 0 0 0 0 0 0 0 0 0 0 0 0 0 0 0 0 0 127 0" result="hardAlpha"/>
<feOffset/>
<feGaussianBlur stdDeviation="0.5"/>
<feComposite in2="hardAlpha" operator="out"/>
<feColorMatrix type="matrix" values="0 0 0 0 0 0 0 0 0 0 0 0 0 0 0 0 0 0 0.35 0"/>
<feBlend mode="normal" in2="BackgroundImageFix" result="effect1_dropShadow_29_98"/>
<feBlend mode="normal" in="SourceGraphic" in2="effect1_dropShadow_29_98" result="shape"/>
</filter>
<linearGradient id="paint0_linear_29_98" x1="-2.02975e-06" y1="-10.5" x2="53.6696" y2="56.7233" gradientUnits="userSpaceOnUse">
<stop stop-color="#332A32"/>
<stop offset="0.25" stop-color="#242531"/>
<stop offset="0.5" stop-color="#1B2C1E"/>
<stop offset="0.75" stop-color="#2B2C18"/>
<stop offset="1" stop-color="#371818"/>
</linearGradient>
<linearGradient id="paint1_linear_29_98" x1="10" y1="5" x2="10" y2="17" gradientUnits="userSpaceOnUse">
<stop stop-color="#EB60DD"/>
<stop offset="0.489583" stop-color="#6066EA"/>
<stop offset="0.958333" stop-color="#69EC7E"/>
</linearGradient>
<linearGradient id="paint2_linear_29_98" x1="10" y1="5" x2="10" y2="17" gradientUnits="userSpaceOnUse">
<stop stop-color="#DEE154"/>
<stop offset="1" stop-color="#E75A5A"/>
</linearGradient>
<linearGradient id="paint3_linear_29_98" x1="15.5" y1="11" x2="31.3947" y2="24.2859" gradientUnits="userSpaceOnUse">
<stop stop-color="#FF6565"/>
<stop offset="0.5" stop-color="#75FF8B"/>
<stop offset="1" stop-color="#696FFF"/>
</linearGradient>
</defs>
</svg>
