<svg width="88" height="22" viewBox="0 0 88 22" fill="none" xmlns="http://www.w3.org/2000/svg">
<rect width="88" height="22" rx="4" fill="url(#paint0_linear_29_80)" fill-opacity="0.9"/>
<g filter="url(#filter0_d_29_80)">
<g filter="url(#filter1_dii_29_80)">
<path d="M13 17C13 16.6 13 17.72 13 15.8C13 12.2 7 9.8 7 6.2C7 4.28 7 5.6 7 5" stroke="url(#paint1_linear_29_80)" stroke-width="1.75" stroke-linecap="round"/>
</g>
<g filter="url(#filter2_dii_29_80)">
<path d="M7 17C7 16.6 7 17.72 7 15.8C7 12.2 13 9.8 13 6.2C13 4.28 13 5.6 13 5" stroke="url(#paint2_linear_29_80)" stroke-width="1.75" stroke-linecap="round"/>
</g>
</g>
<g filter="url(#filter3_d_29_80)">
<path d="M19.4403 14V8.18182H20.8466V10.517H23.1392V8.18182H24.5426V14H23.1392V11.6619H20.8466V14H19.4403ZM27.4645 14.0824C27.008 14.0824 26.6141 13.9924 26.2827 13.8125C25.9531 13.6307 25.6993 13.3722 25.5213 13.0369C25.3452 12.6998 25.2571 12.2992 25.2571 11.8352C25.2571 11.3845 25.3461 10.9905 25.5241 10.6534C25.7022 10.3144 25.9531 10.0511 26.277 9.86364C26.6009 9.67424 26.9825 9.57955 27.4219 9.57955C27.7325 9.57955 28.0166 9.62784 28.2741 9.72443C28.5317 9.82102 28.7543 9.96402 28.9418 10.1534C29.1293 10.3428 29.2751 10.5767 29.3793 10.8551C29.4834 11.1316 29.5355 11.4489 29.5355 11.8068V12.1534H25.7429V11.3466H28.2429C28.241 11.1989 28.206 11.0672 28.1378 10.9517C28.0696 10.8362 27.9759 10.7462 27.8565 10.6818C27.7391 10.6155 27.6037 10.5824 27.4503 10.5824C27.295 10.5824 27.1558 10.6174 27.0327 10.6875C26.9096 10.7557 26.812 10.8494 26.7401 10.9688C26.6681 11.0862 26.6302 11.2197 26.6264 11.3693V12.1903C26.6264 12.3684 26.6615 12.5246 26.7315 12.6591C26.8016 12.7917 26.901 12.8949 27.0298 12.9688C27.1586 13.0426 27.312 13.0795 27.4901 13.0795C27.6132 13.0795 27.7249 13.0625 27.8253 13.0284C27.9257 12.9943 28.0118 12.9441 28.0838 12.8778C28.1558 12.8116 28.2098 12.7301 28.2457 12.6335L29.5213 12.6705C29.4683 12.9564 29.3518 13.2055 29.1719 13.4176C28.9938 13.6278 28.7599 13.7917 28.4702 13.9091C28.1804 14.0246 27.8452 14.0824 27.4645 14.0824ZM31.6342 8.18182V14H30.245V8.18182H31.6342ZM32.5185 14V9.63636H33.9077V14H32.5185ZM33.2145 9.12784C33.0194 9.12784 32.8518 9.06345 32.7116 8.93466C32.5715 8.80398 32.5014 8.64678 32.5014 8.46307C32.5014 8.28125 32.5715 8.12595 32.7116 7.99716C32.8518 7.86648 33.0194 7.80114 33.2145 7.80114C33.4115 7.80114 33.5791 7.86648 33.7173 7.99716C33.8575 8.12595 33.9276 8.28125 33.9276 8.46307C33.9276 8.64678 33.8575 8.80398 33.7173 8.93466C33.5791 9.06345 33.4115 9.12784 33.2145 9.12784ZM35.9737 9.63636L36.6925 11.0739L37.4368 9.63636H38.8374L37.6186 11.8182L38.8828 14H37.4936L36.6925 12.5511L35.9112 14H34.5021L35.7692 11.8182L34.5646 9.63636H35.9737Z" fill="url(#paint3_linear_29_80)"/>
<path d="M45.5923 10.0199C45.5374 9.84754 45.4635 9.69318 45.3707 9.55682C45.2798 9.41856 45.1709 9.30114 45.044 9.20455C44.9171 9.10606 44.7723 9.03125 44.6094 8.98011C44.4484 8.92898 44.2713 8.90341 44.0781 8.90341C43.7505 8.90341 43.455 8.98769 43.1918 9.15625C42.9285 9.32481 42.7202 9.57197 42.5668 9.89773C42.4152 10.2216 42.3395 10.6184 42.3395 11.0881C42.3395 11.5597 42.4162 11.9583 42.5696 12.2841C42.723 12.6098 42.9332 12.857 43.2003 13.0256C43.4673 13.1941 43.7713 13.2784 44.1122 13.2784C44.4285 13.2784 44.7041 13.214 44.9389 13.0852C45.1757 12.9564 45.3584 12.7746 45.4872 12.5398C45.6179 12.303 45.6832 12.0246 45.6832 11.7045L45.9105 11.7472H44.2457V11.0227H46.5327V11.6847C46.5327 12.1733 46.4285 12.5975 46.2202 12.9574C46.0137 13.3153 45.7277 13.5919 45.3622 13.7869C44.9986 13.982 44.5819 14.0795 44.1122 14.0795C43.5857 14.0795 43.1236 13.9583 42.7259 13.7159C42.33 13.4735 42.0213 13.1297 41.7997 12.6847C41.5781 12.2377 41.4673 11.7074 41.4673 11.0938C41.4673 10.6297 41.5317 10.2131 41.6605 9.84375C41.7893 9.47443 41.9702 9.16098 42.2031 8.90341C42.438 8.64394 42.7135 8.44602 43.0298 8.30966C43.348 8.1714 43.6955 8.10227 44.0724 8.10227C44.3868 8.10227 44.6795 8.14867 44.9503 8.24148C45.223 8.33428 45.4654 8.46591 45.6776 8.63636C45.8916 8.80682 46.0687 9.00947 46.2088 9.24432C46.349 9.47727 46.4437 9.7358 46.4929 10.0199H45.5923ZM50.343 12.1903V9.63636H51.1953V14H50.3601V13.2443H50.3146C50.2143 13.4773 50.0533 13.6714 49.8317 13.8267C49.612 13.9801 49.3383 14.0568 49.0107 14.0568C48.7304 14.0568 48.4822 13.9953 48.2663 13.8722C48.0523 13.7472 47.8838 13.5625 47.7607 13.3182C47.6394 13.0739 47.5788 12.7718 47.5788 12.4119V9.63636H48.4283V12.3097C48.4283 12.607 48.5107 12.8437 48.6754 13.0199C48.8402 13.196 49.0542 13.2841 49.3175 13.2841C49.4766 13.2841 49.6347 13.2443 49.7919 13.1648C49.951 13.0852 50.0826 12.965 50.1868 12.804C50.2929 12.643 50.3449 12.4384 50.343 12.1903ZM52.3366 14V9.63636H53.1861V14H52.3366ZM52.7656 8.96307C52.6179 8.96307 52.491 8.91383 52.3849 8.81534C52.2808 8.71496 52.2287 8.59564 52.2287 8.45739C52.2287 8.31723 52.2808 8.19792 52.3849 8.09943C52.491 7.99905 52.6179 7.94886 52.7656 7.94886C52.9134 7.94886 53.0393 7.99905 53.1435 8.09943C53.2495 8.19792 53.3026 8.31723 53.3026 8.45739C53.3026 8.59564 53.2495 8.71496 53.1435 8.81534C53.0393 8.91383 52.9134 8.96307 52.7656 8.96307ZM55.9624 14.0852C55.6101 14.0852 55.2957 13.9953 55.0192 13.8153C54.7446 13.6335 54.5286 13.375 54.3714 13.0398C54.2161 12.7027 54.1385 12.2983 54.1385 11.8267C54.1385 11.3551 54.2171 10.9517 54.3743 10.6165C54.5334 10.2812 54.7512 10.0246 55.0277 9.84659C55.3042 9.66856 55.6177 9.57955 55.968 9.57955C56.2389 9.57955 56.4567 9.625 56.6214 9.71591C56.7881 9.80492 56.9169 9.90909 57.0078 10.0284C57.1006 10.1477 57.1726 10.2528 57.2237 10.3438H57.2749V8.18182H58.1243V14H57.2947V13.321H57.2237C57.1726 13.4138 57.0987 13.5199 57.0021 13.6392C56.9074 13.7585 56.7768 13.8627 56.6101 13.9517C56.4434 14.0407 56.2275 14.0852 55.9624 14.0852ZM56.1499 13.3608C56.3942 13.3608 56.6006 13.2964 56.7692 13.1676C56.9396 13.0369 57.0684 12.8561 57.1555 12.625C57.2446 12.3939 57.2891 12.125 57.2891 11.8182C57.2891 11.5152 57.2455 11.25 57.1584 11.0227C57.0713 10.7955 56.9434 10.6184 56.7749 10.4915C56.6063 10.3646 56.398 10.3011 56.1499 10.3011C55.8942 10.3011 55.6811 10.3674 55.5107 10.5C55.3402 10.6326 55.2114 10.8134 55.1243 11.0426C55.0391 11.2718 54.9964 11.5303 54.9964 11.8182C54.9964 12.1098 55.04 12.3722 55.1271 12.6051C55.2143 12.8381 55.343 13.0227 55.5135 13.1591C55.6858 13.2936 55.898 13.3608 56.1499 13.3608ZM61.2173 14.0881C60.7874 14.0881 60.4171 13.9962 60.1065 13.8125C59.7978 13.6269 59.5592 13.3665 59.3906 13.0312C59.224 12.6941 59.1406 12.2992 59.1406 11.8466C59.1406 11.3996 59.224 11.0057 59.3906 10.6648C59.5592 10.3239 59.794 10.0578 60.0952 9.86648C60.3982 9.67519 60.7524 9.57955 61.1577 9.57955C61.4039 9.57955 61.6425 9.62027 61.8736 9.7017C62.1046 9.78314 62.312 9.91098 62.4957 10.0852C62.6795 10.2595 62.8243 10.4858 62.9304 10.7642C63.0365 11.0407 63.0895 11.3769 63.0895 11.7727V12.0739H59.6207V11.4375H62.2571C62.2571 11.214 62.2116 11.0161 62.1207 10.8438C62.0298 10.6695 61.902 10.5322 61.7372 10.4318C61.5743 10.3314 61.383 10.2812 61.1634 10.2812C60.9247 10.2812 60.7164 10.34 60.5384 10.4574C60.3622 10.5729 60.2259 10.7244 60.1293 10.9119C60.0346 11.0975 59.9872 11.2992 59.9872 11.517V12.0142C59.9872 12.3059 60.0384 12.554 60.1406 12.7585C60.2448 12.9631 60.3897 13.1193 60.5753 13.2273C60.7609 13.3333 60.9777 13.3864 61.2259 13.3864C61.3868 13.3864 61.5336 13.3636 61.6662 13.3182C61.7988 13.2708 61.9134 13.2008 62.0099 13.108C62.1065 13.0152 62.1804 12.9006 62.2315 12.7642L63.0355 12.9091C62.9711 13.1458 62.8556 13.3532 62.6889 13.5312C62.5241 13.7074 62.3168 13.8447 62.0668 13.9432C61.8187 14.0398 61.5355 14.0881 61.2173 14.0881ZM64.8814 8.18182V14H64.032V8.18182H64.8814ZM66.0241 14V9.63636H66.8736V14H66.0241ZM66.4531 8.96307C66.3054 8.96307 66.1785 8.91383 66.0724 8.81534C65.9683 8.71496 65.9162 8.59564 65.9162 8.45739C65.9162 8.31723 65.9683 8.19792 66.0724 8.09943C66.1785 7.99905 66.3054 7.94886 66.4531 7.94886C66.6009 7.94886 66.7268 7.99905 66.831 8.09943C66.937 8.19792 66.9901 8.31723 66.9901 8.45739C66.9901 8.59564 66.937 8.71496 66.831 8.81534C66.7268 8.91383 66.6009 8.96307 66.4531 8.96307ZM68.8658 11.4091V14H68.0163V9.63636H68.8317V10.3466H68.8857C68.986 10.1155 69.1432 9.92992 69.3572 9.78977C69.5732 9.64962 69.8449 9.57955 70.1726 9.57955C70.4699 9.57955 70.7304 9.64205 70.9538 9.76705C71.1773 9.89015 71.3506 10.0739 71.4737 10.3182C71.5968 10.5625 71.6584 10.8646 71.6584 11.2244V14H70.8089V11.3267C70.8089 11.0104 70.7266 10.7633 70.5618 10.5852C70.397 10.4053 70.1707 10.3153 69.8828 10.3153C69.6858 10.3153 69.5107 10.358 69.3572 10.4432C69.2057 10.5284 69.0855 10.6534 68.9964 10.8182C68.9093 10.9811 68.8658 11.178 68.8658 11.4091ZM74.6783 14.0881C74.2483 14.0881 73.8781 13.9962 73.5675 13.8125C73.2588 13.6269 73.0201 13.3665 72.8516 13.0312C72.6849 12.6941 72.6016 12.2992 72.6016 11.8466C72.6016 11.3996 72.6849 11.0057 72.8516 10.6648C73.0201 10.3239 73.255 10.0578 73.5561 9.86648C73.8591 9.67519 74.2133 9.57955 74.6186 9.57955C74.8648 9.57955 75.1035 9.62027 75.3345 9.7017C75.5656 9.78314 75.773 9.91098 75.9567 10.0852C76.1404 10.2595 76.2853 10.4858 76.3913 10.7642C76.4974 11.0407 76.5504 11.3769 76.5504 11.7727V12.0739H73.0817V11.4375H75.718C75.718 11.214 75.6726 11.0161 75.5817 10.8438C75.4908 10.6695 75.3629 10.5322 75.1982 10.4318C75.0353 10.3314 74.844 10.2812 74.6243 10.2812C74.3857 10.2812 74.1773 10.34 73.9993 10.4574C73.8232 10.5729 73.6868 10.7244 73.5902 10.9119C73.4955 11.0975 73.4482 11.2992 73.4482 11.517V12.0142C73.4482 12.3059 73.4993 12.554 73.6016 12.7585C73.7057 12.9631 73.8506 13.1193 74.0362 13.2273C74.2218 13.3333 74.4387 13.3864 74.6868 13.3864C74.8478 13.3864 74.9946 13.3636 75.1271 13.3182C75.2597 13.2708 75.3743 13.2008 75.4709 13.108C75.5675 13.0152 75.6413 12.9006 75.6925 12.7642L76.4964 12.9091C76.4321 13.1458 76.3165 13.3532 76.1499 13.5312C75.9851 13.7074 75.7777 13.8447 75.5277 13.9432C75.2796 14.0398 74.9964 14.0881 74.6783 14.0881ZM80.7628 10.7017L79.9929 10.8381C79.9607 10.7396 79.9096 10.6458 79.8395 10.5568C79.7713 10.4678 79.6785 10.3949 79.5611 10.3381C79.4437 10.2812 79.2969 10.2528 79.1207 10.2528C78.8802 10.2528 78.6795 10.3068 78.5185 10.4148C78.3575 10.5208 78.277 10.6581 78.277 10.8267C78.277 10.9725 78.331 11.09 78.4389 11.179C78.5469 11.268 78.7211 11.3409 78.9616 11.3977L79.6548 11.5568C80.0563 11.6496 80.3556 11.7926 80.5526 11.9858C80.7495 12.179 80.848 12.4299 80.848 12.7386C80.848 13 80.7723 13.233 80.6207 13.4375C80.4711 13.6402 80.2618 13.7992 79.9929 13.9148C79.7259 14.0303 79.4162 14.0881 79.0639 14.0881C78.5753 14.0881 78.1766 13.9839 77.8679 13.7756C77.5592 13.5653 77.3698 13.267 77.2997 12.8807L78.1207 12.7557C78.1719 12.9697 78.277 13.1316 78.4361 13.2415C78.5952 13.3494 78.8026 13.4034 79.0582 13.4034C79.3366 13.4034 79.5592 13.3456 79.7259 13.2301C79.8925 13.1127 79.9759 12.9697 79.9759 12.8011C79.9759 12.6648 79.9247 12.5502 79.8224 12.4574C79.7221 12.3646 79.5677 12.2945 79.3594 12.2472L78.6207 12.0852C78.2135 11.9924 77.9124 11.8447 77.7173 11.642C77.5241 11.4394 77.4276 11.1828 77.4276 10.8722C77.4276 10.6146 77.4995 10.3892 77.6435 10.196C77.7874 10.0028 77.9863 9.85227 78.2401 9.74432C78.4938 9.63447 78.7846 9.57955 79.1122 9.57955C79.5838 9.57955 79.955 9.68182 80.2259 9.88636C80.4967 10.089 80.6757 10.3608 80.7628 10.7017Z" fill="white"/>
</g>
<rect x="0.375" y="0.375" width="87.25" height="21.25" rx="3.625" stroke="white" stroke-opacity="0.05" stroke-width="0.75"/>
<defs>
<filter id="filter0_d_29_80" x="5.125" y="3.125" width="9.75" height="15.75" filterUnits="userSpaceOnUse" color-interpolation-filters="sRGB">
<feFlood flood-opacity="0" result="BackgroundImageFix"/>
<feColorMatrix in="SourceAlpha" type="matrix" values="0 0 0 0 0 0 0 0 0 0 0 0 0 0 0 0 0 0 127 0" result="hardAlpha"/>
<feOffset/>
<feGaussianBlur stdDeviation="0.5"/>
<feComposite in2="hardAlpha" operator="out"/>
<feColorMatrix type="matrix" values="0 0 0 0 0 0 0 0 0 0 0 0 0 0 0 0 0 0 0.1 0"/>
<feBlend mode="normal" in2="BackgroundImageFix" result="effect1_dropShadow_29_80"/>
<feBlend mode="normal" in="SourceGraphic" in2="effect1_dropShadow_29_80" result="shape"/>
</filter>
<filter id="filter1_dii_29_80" x="5.125" y="3.125" width="9.75" height="15.75" filterUnits="userSpaceOnUse" color-interpolation-filters="sRGB">
<feFlood flood-opacity="0" result="BackgroundImageFix"/>
<feColorMatrix in="SourceAlpha" type="matrix" values="0 0 0 0 0 0 0 0 0 0 0 0 0 0 0 0 0 0 127 0" result="hardAlpha"/>
<feOffset/>
<feGaussianBlur stdDeviation="0.5"/>
<feComposite in2="hardAlpha" operator="out"/>
<feColorMatrix type="matrix" values="0 0 0 0 0 0 0 0 0 0 0 0 0 0 0 0 0 0 0.25 0"/>
<feBlend mode="normal" in2="BackgroundImageFix" result="effect1_dropShadow_29_80"/>
<feBlend mode="normal" in="SourceGraphic" in2="effect1_dropShadow_29_80" result="shape"/>
<feColorMatrix in="SourceAlpha" type="matrix" values="0 0 0 0 0 0 0 0 0 0 0 0 0 0 0 0 0 0 127 0" result="hardAlpha"/>
<feOffset/>
<feGaussianBlur stdDeviation="0.25"/>
<feComposite in2="hardAlpha" operator="arithmetic" k2="-1" k3="1"/>
<feColorMatrix type="matrix" values="0 0 0 0 0 0 0 0 0 0 0 0 0 0 0 0 0 0 0.2 0"/>
<feBlend mode="normal" in2="shape" result="effect2_innerShadow_29_80"/>
<feColorMatrix in="SourceAlpha" type="matrix" values="0 0 0 0 0 0 0 0 0 0 0 0 0 0 0 0 0 0 127 0" result="hardAlpha"/>
<feOffset/>
<feGaussianBlur stdDeviation="0.1"/>
<feComposite in2="hardAlpha" operator="arithmetic" k2="-1" k3="1"/>
<feColorMatrix type="matrix" values="0 0 0 0 1 0 0 0 0 1 0 0 0 0 1 0 0 0 0.3 0"/>
<feBlend mode="normal" in2="effect2_innerShadow_29_80" result="effect3_innerShadow_29_80"/>
</filter>
<filter id="filter2_dii_29_80" x="5.125" y="3.125" width="9.75" height="15.75" filterUnits="userSpaceOnUse" color-interpolation-filters="sRGB">
<feFlood flood-opacity="0" result="BackgroundImageFix"/>
<feColorMatrix in="SourceAlpha" type="matrix" values="0 0 0 0 0 0 0 0 0 0 0 0 0 0 0 0 0 0 127 0" result="hardAlpha"/>
<feOffset/>
<feGaussianBlur stdDeviation="0.5"/>
<feComposite in2="hardAlpha" operator="out"/>
<feColorMatrix type="matrix" values="0 0 0 0 0 0 0 0 0 0 0 0 0 0 0 0 0 0 0.25 0"/>
<feBlend mode="normal" in2="BackgroundImageFix" result="effect1_dropShadow_29_80"/>
<feBlend mode="normal" in="SourceGraphic" in2="effect1_dropShadow_29_80" result="shape"/>
<feColorMatrix in="SourceAlpha" type="matrix" values="0 0 0 0 0 0 0 0 0 0 0 0 0 0 0 0 0 0 127 0" result="hardAlpha"/>
<feOffset/>
<feGaussianBlur stdDeviation="0.25"/>
<feComposite in2="hardAlpha" operator="arithmetic" k2="-1" k3="1"/>
<feColorMatrix type="matrix" values="0 0 0 0 0 0 0 0 0 0 0 0 0 0 0 0 0 0 0.2 0"/>
<feBlend mode="normal" in2="shape" result="effect2_innerShadow_29_80"/>
<feColorMatrix in="SourceAlpha" type="matrix" values="0 0 0 0 0 0 0 0 0 0 0 0 0 0 0 0 0 0 127 0" result="hardAlpha"/>
<feOffset/>
<feGaussianBlur stdDeviation="0.1"/>
<feComposite in2="hardAlpha" operator="arithmetic" k2="-1" k3="1"/>
<feColorMatrix type="matrix" values="0 0 0 0 1 0 0 0 0 1 0 0 0 0 1 0 0 0 0.3 0"/>
<feBlend mode="normal" in2="effect2_innerShadow_29_80" result="effect3_innerShadow_29_80"/>
</filter>
<filter id="filter3_d_29_80" x="18.4403" y="6.80113" width="63.4077" height="8.28694" filterUnits="userSpaceOnUse" color-interpolation-filters="sRGB">
<feFlood flood-opacity="0" result="BackgroundImageFix"/>
<feColorMatrix in="SourceAlpha" type="matrix" values="0 0 0 0 0 0 0 0 0 0 0 0 0 0 0 0 0 0 127 0" result="hardAlpha"/>
<feOffset/>
<feGaussianBlur stdDeviation="0.5"/>
<feComposite in2="hardAlpha" operator="out"/>
<feColorMatrix type="matrix" values="0 0 0 0 0 0 0 0 0 0 0 0 0 0 0 0 0 0 0.35 0"/>
<feBlend mode="normal" in2="BackgroundImageFix" result="effect1_dropShadow_29_80"/>
<feBlend mode="normal" in="SourceGraphic" in2="effect1_dropShadow_29_80" result="shape"/>
</filter>
<linearGradient id="paint0_linear_29_80" x1="-2.26099e-06" y1="-10.5" x2="52.1184" y2="62.2173" gradientUnits="userSpaceOnUse">
<stop stop-color="#332A32"/>
<stop offset="0.25" stop-color="#242531"/>
<stop offset="0.5" stop-color="#1B2C1E"/>
<stop offset="0.75" stop-color="#2B2C18"/>
<stop offset="1" stop-color="#371818"/>
</linearGradient>
<linearGradient id="paint1_linear_29_80" x1="10" y1="5" x2="10" y2="17" gradientUnits="userSpaceOnUse">
<stop stop-color="#EB60DD"/>
<stop offset="0.489583" stop-color="#6066EA"/>
<stop offset="0.958333" stop-color="#69EC7E"/>
</linearGradient>
<linearGradient id="paint2_linear_29_80" x1="10" y1="5" x2="10" y2="17" gradientUnits="userSpaceOnUse">
<stop stop-color="#DEE154"/>
<stop offset="1" stop-color="#E75A5A"/>
</linearGradient>
<linearGradient id="paint3_linear_29_80" x1="15.5" y1="11" x2="29.3392" y2="24.4957" gradientUnits="userSpaceOnUse">
<stop stop-color="#FF6565"/>
<stop offset="0.5" stop-color="#75FF8B"/>
<stop offset="1" stop-color="#696FFF"/>
</linearGradient>
</defs>
</svg>
