<svg width="74" height="22" viewBox="0 0 74 22" fill="none" xmlns="http://www.w3.org/2000/svg">
<rect width="74" height="22" rx="4" fill="url(#paint0_linear_5_79)" fill-opacity="0.9"/>
<g filter="url(#filter0_d_5_79)">
<g filter="url(#filter1_dii_5_79)">
<path d="M13 17C13 16.6 13 17.72 13 15.8C13 12.2 7 9.8 7 6.2C7 4.28 7 5.6 7 5" stroke="url(#paint1_linear_5_79)" stroke-width="1.75" stroke-linecap="round"/>
</g>
<g filter="url(#filter2_dii_5_79)">
<path d="M7 17C7 16.6 7 17.72 7 15.8C7 12.2 13 9.8 13 6.2C13 4.28 13 5.6 13 5" stroke="url(#paint2_linear_5_79)" stroke-width="1.75" stroke-linecap="round"/>
</g>
</g>
<g filter="url(#filter3_d_5_79)">
<path d="M19.4403 14V8.18182H20.8466V10.517H23.1392V8.18182H24.5426V14H23.1392V11.6619H20.8466V14H19.4403ZM27.4645 14.0824C27.008 14.0824 26.6141 13.9924 26.2827 13.8125C25.9531 13.6307 25.6993 13.3722 25.5213 13.0369C25.3452 12.6998 25.2571 12.2992 25.2571 11.8352C25.2571 11.3845 25.3461 10.9905 25.5241 10.6534C25.7022 10.3144 25.9531 10.0511 26.277 9.86364C26.6009 9.67424 26.9825 9.57955 27.4219 9.57955C27.7325 9.57955 28.0166 9.62784 28.2741 9.72443C28.5317 9.82102 28.7543 9.96402 28.9418 10.1534C29.1293 10.3428 29.2751 10.5767 29.3793 10.8551C29.4834 11.1316 29.5355 11.4489 29.5355 11.8068V12.1534H25.7429V11.3466H28.2429C28.241 11.1989 28.206 11.0672 28.1378 10.9517C28.0696 10.8362 27.9759 10.7462 27.8565 10.6818C27.7391 10.6155 27.6037 10.5824 27.4503 10.5824C27.295 10.5824 27.1558 10.6174 27.0327 10.6875C26.9096 10.7557 26.812 10.8494 26.7401 10.9688C26.6681 11.0862 26.6302 11.2197 26.6264 11.3693V12.1903C26.6264 12.3684 26.6615 12.5246 26.7315 12.6591C26.8016 12.7917 26.901 12.8949 27.0298 12.9688C27.1586 13.0426 27.312 13.0795 27.4901 13.0795C27.6132 13.0795 27.7249 13.0625 27.8253 13.0284C27.9257 12.9943 28.0118 12.9441 28.0838 12.8778C28.1558 12.8116 28.2098 12.7301 28.2457 12.6335L29.5213 12.6705C29.4683 12.9564 29.3518 13.2055 29.1719 13.4176C28.9938 13.6278 28.7599 13.7917 28.4702 13.9091C28.1804 14.0246 27.8452 14.0824 27.4645 14.0824ZM31.6342 8.18182V14H30.245V8.18182H31.6342ZM32.5185 14V9.63636H33.9077V14H32.5185ZM33.2145 9.12784C33.0194 9.12784 32.8518 9.06345 32.7116 8.93466C32.5715 8.80398 32.5014 8.64678 32.5014 8.46307C32.5014 8.28125 32.5715 8.12595 32.7116 7.99716C32.8518 7.86648 33.0194 7.80114 33.2145 7.80114C33.4115 7.80114 33.5791 7.86648 33.7173 7.99716C33.8575 8.12595 33.9276 8.28125 33.9276 8.46307C33.9276 8.64678 33.8575 8.80398 33.7173 8.93466C33.5791 9.06345 33.4115 9.12784 33.2145 9.12784ZM35.9737 9.63636L36.6925 11.0739L37.4368 9.63636H38.8374L37.6186 11.8182L38.8828 14H37.4936L36.6925 12.5511L35.9112 14H34.5021L35.7692 11.8182L34.5646 9.63636H35.9737Z" fill="url(#paint3_linear_5_79)"/>
<path d="M42.1463 14H41.2145L43.3082 8.18182H44.3224L46.4162 14H45.4844L43.8395 9.23864H43.794L42.1463 14ZM42.3026 11.7216H45.3253V12.4602H42.3026V11.7216ZM50.4268 10.7017L49.657 10.8381C49.6248 10.7396 49.5736 10.6458 49.5036 10.5568C49.4354 10.4678 49.3426 10.3949 49.2251 10.3381C49.1077 10.2812 48.9609 10.2528 48.7848 10.2528C48.5443 10.2528 48.3435 10.3068 48.1825 10.4148C48.0215 10.5208 47.9411 10.6581 47.9411 10.8267C47.9411 10.9725 47.995 11.09 48.103 11.179C48.2109 11.268 48.3852 11.3409 48.6257 11.3977L49.3189 11.5568C49.7204 11.6496 50.0196 11.7926 50.2166 11.9858C50.4136 12.179 50.5121 12.4299 50.5121 12.7386C50.5121 13 50.4363 13.233 50.2848 13.4375C50.1352 13.6402 49.9259 13.7992 49.657 13.9148C49.3899 14.0303 49.0803 14.0881 48.728 14.0881C48.2393 14.0881 47.8407 13.9839 47.532 13.7756C47.2232 13.5653 47.0339 13.267 46.9638 12.8807L47.7848 12.7557C47.8359 12.9697 47.9411 13.1316 48.1001 13.2415C48.2592 13.3494 48.4666 13.4034 48.7223 13.4034C49.0007 13.4034 49.2232 13.3456 49.3899 13.2301C49.5566 13.1127 49.6399 12.9697 49.6399 12.8011C49.6399 12.6648 49.5888 12.5502 49.4865 12.4574C49.3861 12.3646 49.2318 12.2945 49.0234 12.2472L48.2848 12.0852C47.8776 11.9924 47.5765 11.8447 47.3814 11.642C47.1882 11.4394 47.0916 11.1828 47.0916 10.8722C47.0916 10.6146 47.1636 10.3892 47.3075 10.196C47.4515 10.0028 47.6503 9.85227 47.9041 9.74432C48.1579 9.63447 48.4486 9.57955 48.7763 9.57955C49.2479 9.57955 49.6191 9.68182 49.8899 9.88636C50.1607 10.089 50.3397 10.3608 50.4268 10.7017ZM54.7159 10.7017L53.946 10.8381C53.9138 10.7396 53.8627 10.6458 53.7926 10.5568C53.7244 10.4678 53.6316 10.3949 53.5142 10.3381C53.3968 10.2812 53.25 10.2528 53.0739 10.2528C52.8333 10.2528 52.6326 10.3068 52.4716 10.4148C52.3106 10.5208 52.2301 10.6581 52.2301 10.8267C52.2301 10.9725 52.2841 11.09 52.392 11.179C52.5 11.268 52.6742 11.3409 52.9148 11.3977L53.608 11.5568C54.0095 11.6496 54.3087 11.7926 54.5057 11.9858C54.7027 12.179 54.8011 12.4299 54.8011 12.7386C54.8011 13 54.7254 13.233 54.5739 13.4375C54.4242 13.6402 54.215 13.7992 53.946 13.9148C53.679 14.0303 53.3693 14.0881 53.017 14.0881C52.5284 14.0881 52.1297 13.9839 51.821 13.7756C51.5123 13.5653 51.3229 13.267 51.2528 12.8807L52.0739 12.7557C52.125 12.9697 52.2301 13.1316 52.3892 13.2415C52.5483 13.3494 52.7557 13.4034 53.0114 13.4034C53.2898 13.4034 53.5123 13.3456 53.679 13.2301C53.8456 13.1127 53.929 12.9697 53.929 12.8011C53.929 12.6648 53.8778 12.5502 53.7756 12.4574C53.6752 12.3646 53.5208 12.2945 53.3125 12.2472L52.5739 12.0852C52.1667 11.9924 51.8655 11.8447 51.6705 11.642C51.4773 11.4394 51.3807 11.1828 51.3807 10.8722C51.3807 10.6146 51.4527 10.3892 51.5966 10.196C51.7405 10.0028 51.9394 9.85227 52.1932 9.74432C52.447 9.63447 52.7377 9.57955 53.0653 9.57955C53.5369 9.57955 53.9081 9.68182 54.179 9.88636C54.4498 10.089 54.6288 10.3608 54.7159 10.7017ZM57.6158 14.0881C57.1858 14.0881 56.8156 13.9962 56.505 13.8125C56.1963 13.6269 55.9576 13.3665 55.7891 13.0312C55.6224 12.6941 55.5391 12.2992 55.5391 11.8466C55.5391 11.3996 55.6224 11.0057 55.7891 10.6648C55.9576 10.3239 56.1925 10.0578 56.4936 9.86648C56.7966 9.67519 57.1508 9.57955 57.5561 9.57955C57.8023 9.57955 58.041 9.62027 58.272 9.7017C58.5031 9.78314 58.7105 9.91098 58.8942 10.0852C59.0779 10.2595 59.2228 10.4858 59.3288 10.7642C59.4349 11.0407 59.4879 11.3769 59.4879 11.7727V12.0739H56.0192V11.4375H58.6555C58.6555 11.214 58.6101 11.0161 58.5192 10.8438C58.4283 10.6695 58.3004 10.5322 58.1357 10.4318C57.9728 10.3314 57.7815 10.2812 57.5618 10.2812C57.3232 10.2812 57.1148 10.34 56.9368 10.4574C56.7607 10.5729 56.6243 10.7244 56.5277 10.9119C56.433 11.0975 56.3857 11.2992 56.3857 11.517V12.0142C56.3857 12.3059 56.4368 12.554 56.5391 12.7585C56.6432 12.9631 56.7881 13.1193 56.9737 13.2273C57.1593 13.3333 57.3762 13.3864 57.6243 13.3864C57.7853 13.3864 57.9321 13.3636 58.0646 13.3182C58.1972 13.2708 58.3118 13.2008 58.4084 13.108C58.505 13.0152 58.5788 12.9006 58.63 12.7642L59.4339 12.9091C59.3696 13.1458 59.254 13.3532 59.0874 13.5312C58.9226 13.7074 58.7152 13.8447 58.4652 13.9432C58.2171 14.0398 57.9339 14.0881 57.6158 14.0881ZM62.4673 9.63636V10.3182H60.0838V9.63636H62.4673ZM60.723 8.59091H61.5724V12.7188C61.5724 12.8835 61.5971 13.0076 61.6463 13.0909C61.6955 13.1723 61.759 13.2282 61.8366 13.2585C61.9162 13.2869 62.0024 13.3011 62.0952 13.3011C62.1634 13.3011 62.223 13.2964 62.2741 13.2869C62.3253 13.2775 62.3651 13.2699 62.3935 13.2642L62.5469 13.9659C62.4976 13.9848 62.4276 14.0038 62.3366 14.0227C62.2457 14.0436 62.1321 14.0549 61.9957 14.0568C61.7723 14.0606 61.5639 14.0208 61.3707 13.9375C61.1776 13.8542 61.0213 13.7254 60.902 13.5511C60.7827 13.3769 60.723 13.1581 60.723 12.8949V8.59091ZM66.6065 10.7017L65.8366 10.8381C65.8045 10.7396 65.7533 10.6458 65.6832 10.5568C65.6151 10.4678 65.5223 10.3949 65.4048 10.3381C65.2874 10.2812 65.1406 10.2528 64.9645 10.2528C64.724 10.2528 64.5232 10.3068 64.3622 10.4148C64.2012 10.5208 64.1207 10.6581 64.1207 10.8267C64.1207 10.9725 64.1747 11.09 64.2827 11.179C64.3906 11.268 64.5649 11.3409 64.8054 11.3977L65.4986 11.5568C65.9001 11.6496 66.1993 11.7926 66.3963 11.9858C66.5933 12.179 66.6918 12.4299 66.6918 12.7386C66.6918 13 66.616 13.233 66.4645 13.4375C66.3149 13.6402 66.1056 13.7992 65.8366 13.9148C65.5696 14.0303 65.2599 14.0881 64.9077 14.0881C64.419 14.0881 64.0204 13.9839 63.7116 13.7756C63.4029 13.5653 63.2135 13.267 63.1435 12.8807L63.9645 12.7557C64.0156 12.9697 64.1207 13.1316 64.2798 13.2415C64.4389 13.3494 64.6463 13.4034 64.902 13.4034C65.1804 13.4034 65.4029 13.3456 65.5696 13.2301C65.7363 13.1127 65.8196 12.9697 65.8196 12.8011C65.8196 12.6648 65.7685 12.5502 65.6662 12.4574C65.5658 12.3646 65.4115 12.2945 65.2031 12.2472L64.4645 12.0852C64.0573 11.9924 63.7562 11.8447 63.5611 11.642C63.3679 11.4394 63.2713 11.1828 63.2713 10.8722C63.2713 10.6146 63.3433 10.3892 63.4872 10.196C63.6312 10.0028 63.83 9.85227 64.0838 9.74432C64.3376 9.63447 64.6283 9.57955 64.956 9.57955C65.4276 9.57955 65.7988 9.68182 66.0696 9.88636C66.3404 10.089 66.5194 10.3608 66.6065 10.7017Z" fill="white"/>
</g>
<rect x="0.375" y="0.375" width="73.25" height="21.25" rx="3.625" stroke="white" stroke-opacity="0.05" stroke-width="0.75"/>
<defs>
<filter id="filter0_d_5_79" x="5.125" y="3.125" width="9.75" height="15.75" filterUnits="userSpaceOnUse" color-interpolation-filters="sRGB">
<feFlood flood-opacity="0" result="BackgroundImageFix"/>
<feColorMatrix in="SourceAlpha" type="matrix" values="0 0 0 0 0 0 0 0 0 0 0 0 0 0 0 0 0 0 127 0" result="hardAlpha"/>
<feOffset/>
<feGaussianBlur stdDeviation="0.5"/>
<feComposite in2="hardAlpha" operator="out"/>
<feColorMatrix type="matrix" values="0 0 0 0 0 0 0 0 0 0 0 0 0 0 0 0 0 0 0.1 0"/>
<feBlend mode="normal" in2="BackgroundImageFix" result="effect1_dropShadow_5_79"/>
<feBlend mode="normal" in="SourceGraphic" in2="effect1_dropShadow_5_79" result="shape"/>
</filter>
<filter id="filter1_dii_5_79" x="5.125" y="3.125" width="9.75" height="15.75" filterUnits="userSpaceOnUse" color-interpolation-filters="sRGB">
<feFlood flood-opacity="0" result="BackgroundImageFix"/>
<feColorMatrix in="SourceAlpha" type="matrix" values="0 0 0 0 0 0 0 0 0 0 0 0 0 0 0 0 0 0 127 0" result="hardAlpha"/>
<feOffset/>
<feGaussianBlur stdDeviation="0.5"/>
<feComposite in2="hardAlpha" operator="out"/>
<feColorMatrix type="matrix" values="0 0 0 0 0 0 0 0 0 0 0 0 0 0 0 0 0 0 0.25 0"/>
<feBlend mode="normal" in2="BackgroundImageFix" result="effect1_dropShadow_5_79"/>
<feBlend mode="normal" in="SourceGraphic" in2="effect1_dropShadow_5_79" result="shape"/>
<feColorMatrix in="SourceAlpha" type="matrix" values="0 0 0 0 0 0 0 0 0 0 0 0 0 0 0 0 0 0 127 0" result="hardAlpha"/>
<feOffset/>
<feGaussianBlur stdDeviation="0.25"/>
<feComposite in2="hardAlpha" operator="arithmetic" k2="-1" k3="1"/>
<feColorMatrix type="matrix" values="0 0 0 0 0 0 0 0 0 0 0 0 0 0 0 0 0 0 0.2 0"/>
<feBlend mode="normal" in2="shape" result="effect2_innerShadow_5_79"/>
<feColorMatrix in="SourceAlpha" type="matrix" values="0 0 0 0 0 0 0 0 0 0 0 0 0 0 0 0 0 0 127 0" result="hardAlpha"/>
<feOffset/>
<feGaussianBlur stdDeviation="0.1"/>
<feComposite in2="hardAlpha" operator="arithmetic" k2="-1" k3="1"/>
<feColorMatrix type="matrix" values="0 0 0 0 1 0 0 0 0 1 0 0 0 0 1 0 0 0 0.3 0"/>
<feBlend mode="normal" in2="effect2_innerShadow_5_79" result="effect3_innerShadow_5_79"/>
</filter>
<filter id="filter2_dii_5_79" x="5.125" y="3.125" width="9.75" height="15.75" filterUnits="userSpaceOnUse" color-interpolation-filters="sRGB">
<feFlood flood-opacity="0" result="BackgroundImageFix"/>
<feColorMatrix in="SourceAlpha" type="matrix" values="0 0 0 0 0 0 0 0 0 0 0 0 0 0 0 0 0 0 127 0" result="hardAlpha"/>
<feOffset/>
<feGaussianBlur stdDeviation="0.5"/>
<feComposite in2="hardAlpha" operator="out"/>
<feColorMatrix type="matrix" values="0 0 0 0 0 0 0 0 0 0 0 0 0 0 0 0 0 0 0.25 0"/>
<feBlend mode="normal" in2="BackgroundImageFix" result="effect1_dropShadow_5_79"/>
<feBlend mode="normal" in="SourceGraphic" in2="effect1_dropShadow_5_79" result="shape"/>
<feColorMatrix in="SourceAlpha" type="matrix" values="0 0 0 0 0 0 0 0 0 0 0 0 0 0 0 0 0 0 127 0" result="hardAlpha"/>
<feOffset/>
<feGaussianBlur stdDeviation="0.25"/>
<feComposite in2="hardAlpha" operator="arithmetic" k2="-1" k3="1"/>
<feColorMatrix type="matrix" values="0 0 0 0 0 0 0 0 0 0 0 0 0 0 0 0 0 0 0.2 0"/>
<feBlend mode="normal" in2="shape" result="effect2_innerShadow_5_79"/>
<feColorMatrix in="SourceAlpha" type="matrix" values="0 0 0 0 0 0 0 0 0 0 0 0 0 0 0 0 0 0 127 0" result="hardAlpha"/>
<feOffset/>
<feGaussianBlur stdDeviation="0.1"/>
<feComposite in2="hardAlpha" operator="arithmetic" k2="-1" k3="1"/>
<feColorMatrix type="matrix" values="0 0 0 0 1 0 0 0 0 1 0 0 0 0 1 0 0 0 0.3 0"/>
<feBlend mode="normal" in2="effect2_innerShadow_5_79" result="effect3_innerShadow_5_79"/>
</filter>
<filter id="filter3_d_5_79" x="18.4403" y="6.80113" width="49.2514" height="8.28693" filterUnits="userSpaceOnUse" color-interpolation-filters="sRGB">
<feFlood flood-opacity="0" result="BackgroundImageFix"/>
<feColorMatrix in="SourceAlpha" type="matrix" values="0 0 0 0 0 0 0 0 0 0 0 0 0 0 0 0 0 0 127 0" result="hardAlpha"/>
<feOffset/>
<feGaussianBlur stdDeviation="0.5"/>
<feComposite in2="hardAlpha" operator="out"/>
<feColorMatrix type="matrix" values="0 0 0 0 0 0 0 0 0 0 0 0 0 0 0 0 0 0 0.35 0"/>
<feBlend mode="normal" in2="BackgroundImageFix" result="effect1_dropShadow_5_79"/>
<feBlend mode="normal" in="SourceGraphic" in2="effect1_dropShadow_5_79" result="shape"/>
</filter>
<linearGradient id="paint0_linear_5_79" x1="-1.90129e-06" y1="-10.5" x2="54.3407" y2="53.256" gradientUnits="userSpaceOnUse">
<stop stop-color="#332A32"/>
<stop offset="0.25" stop-color="#242531"/>
<stop offset="0.5" stop-color="#1B2C1E"/>
<stop offset="0.75" stop-color="#2B2C18"/>
<stop offset="1" stop-color="#371818"/>
</linearGradient>
<linearGradient id="paint1_linear_5_79" x1="10" y1="5" x2="10" y2="17" gradientUnits="userSpaceOnUse">
<stop stop-color="#EB60DD"/>
<stop offset="0.489583" stop-color="#6066EA"/>
<stop offset="0.958333" stop-color="#69EC7E"/>
</linearGradient>
<linearGradient id="paint2_linear_5_79" x1="10" y1="5" x2="10" y2="17" gradientUnits="userSpaceOnUse">
<stop stop-color="#DEE154"/>
<stop offset="1" stop-color="#E75A5A"/>
</linearGradient>
<linearGradient id="paint3_linear_5_79" x1="19.5213" y1="8" x2="31.8045" y2="21.0715" gradientUnits="userSpaceOnUse">
<stop stop-color="#FF6565"/>
<stop offset="0.5" stop-color="#75FF8B"/>
<stop offset="1" stop-color="#696FFF"/>
</linearGradient>
</defs>
</svg>
