<svg width="100" height="32" viewBox="0 0 100 32" fill="none" xmlns="http://www.w3.org/2000/svg">
<rect width="100" height="32" fill="url(#paint0_linear_5_78)"/>
<g filter="url(#filter0_dii_5_78)">
<path d="M19.75 23.5C19.75 23 19.75 24.4 19.75 22C19.75 17.5 12.25 14.5 12.25 10C12.25 7.6 12.25 9.25 12.25 8.5" stroke="url(#paint1_linear_5_78)" stroke-width="1.5625" stroke-linecap="round"/>
</g>
<g filter="url(#filter1_dii_5_78)">
<path d="M12.25 23.5C12.25 23 12.25 24.4 12.25 22C12.25 17.5 19.75 14.5 19.75 10C19.75 7.6 19.75 9.25 19.75 8.5" stroke="url(#paint2_linear_5_78)" stroke-width="1.5625" stroke-linecap="round"/>
</g>
<g filter="url(#filter2_d_5_78)">
<path d="M28.5057 16V10.1818H29.7358V12.5824H32.233V10.1818H33.4602V16H32.233V13.5966H29.7358V16H28.5057ZM36.4403 16.0852C35.9915 16.0852 35.6051 15.9943 35.2812 15.8125C34.9593 15.6288 34.7112 15.3693 34.5369 15.0341C34.3627 14.697 34.2756 14.2983 34.2756 13.8381C34.2756 13.3892 34.3627 12.9953 34.5369 12.6562C34.7112 12.3172 34.9564 12.053 35.2727 11.8636C35.5909 11.6742 35.964 11.5795 36.392 11.5795C36.6799 11.5795 36.9479 11.6259 37.196 11.7188C37.446 11.8097 37.6638 11.947 37.8494 12.1307C38.0369 12.3144 38.1828 12.5455 38.2869 12.8239C38.3911 13.1004 38.4432 13.4242 38.4432 13.7955V14.1278H34.7585V13.3778H37.304C37.304 13.2036 37.2661 13.0492 37.1903 12.9148C37.1146 12.7803 37.0095 12.6752 36.875 12.5994C36.7424 12.5218 36.5881 12.483 36.4119 12.483C36.2282 12.483 36.0653 12.5256 35.9233 12.6108C35.7831 12.6941 35.6733 12.8068 35.5938 12.9489C35.5142 13.089 35.4735 13.2453 35.4716 13.4176V14.1307C35.4716 14.3466 35.5114 14.5331 35.5909 14.6903C35.6723 14.8475 35.7869 14.9688 35.9347 15.054C36.0824 15.1392 36.2576 15.1818 36.4602 15.1818C36.5947 15.1818 36.7178 15.1629 36.8295 15.125C36.9413 15.0871 37.0369 15.0303 37.1165 14.9545C37.196 14.8788 37.2566 14.786 37.2983 14.6761L38.4176 14.75C38.3608 15.0189 38.2443 15.2538 38.0682 15.4545C37.8939 15.6534 37.6686 15.8087 37.392 15.9205C37.1174 16.0303 36.8002 16.0852 36.4403 16.0852ZM40.4432 10.1818V16H39.233V10.1818H40.4432ZM41.4126 16V11.6364H42.6229V16H41.4126ZM42.0206 11.0739C41.8407 11.0739 41.6863 11.0142 41.5575 10.8949C41.4306 10.7737 41.3672 10.6288 41.3672 10.4602C41.3672 10.2936 41.4306 10.1506 41.5575 10.0312C41.6863 9.91004 41.8407 9.84943 42.0206 9.84943C42.2005 9.84943 42.3539 9.91004 42.4808 10.0312C42.6096 10.1506 42.674 10.2936 42.674 10.4602C42.674 10.6288 42.6096 10.7737 42.4808 10.8949C42.3539 11.0142 42.2005 11.0739 42.0206 11.0739ZM44.6037 11.6364L45.4048 13.1619L46.2259 11.6364H47.4673L46.2031 13.8182L47.5014 16H46.2656L45.4048 14.4915L44.5582 16H43.3082L44.6037 13.8182L43.3537 11.6364H44.6037Z" fill="url(#paint3_linear_5_78)"/>
<path d="M28.7045 23V17.1818H30.7386C31.1439 17.1818 31.4782 17.2519 31.7415 17.392C32.0047 17.5303 32.2008 17.7169 32.3295 17.9517C32.4583 18.1847 32.5227 18.4432 32.5227 18.7273C32.5227 18.9773 32.4782 19.1837 32.3892 19.3466C32.3021 19.5095 32.1866 19.6383 32.0426 19.733C31.9006 19.8277 31.7462 19.8977 31.5795 19.9432V20C31.7576 20.0114 31.9366 20.0739 32.1165 20.1875C32.2964 20.3011 32.447 20.464 32.5682 20.6761C32.6894 20.8883 32.75 21.1477 32.75 21.4545C32.75 21.7462 32.6837 22.0085 32.5511 22.2415C32.4186 22.4744 32.2093 22.6591 31.9233 22.7955C31.6373 22.9318 31.2652 23 30.8068 23H28.7045ZM29.4091 22.375H30.8068C31.267 22.375 31.5938 22.286 31.7869 22.108C31.982 21.928 32.0795 21.7102 32.0795 21.4545C32.0795 21.2576 32.0294 21.0758 31.929 20.9091C31.8286 20.7405 31.6856 20.6061 31.5 20.5057C31.3144 20.4034 31.0947 20.3523 30.8409 20.3523H29.4091V22.375ZM29.4091 19.7386H30.7159C30.928 19.7386 31.1193 19.697 31.2898 19.6136C31.4621 19.5303 31.5985 19.4129 31.6989 19.2614C31.8011 19.1098 31.8523 18.9318 31.8523 18.7273C31.8523 18.4716 31.7633 18.2547 31.5852 18.0767C31.4072 17.8968 31.125 17.8068 30.7386 17.8068H29.4091V19.7386ZM33.8168 23V18.6364H34.4645V19.2955H34.5099C34.5895 19.0795 34.7334 18.9044 34.9418 18.7699C35.1501 18.6354 35.3849 18.5682 35.6463 18.5682C35.6955 18.5682 35.7571 18.5691 35.831 18.571C35.9048 18.5729 35.9607 18.5758 35.9986 18.5795V19.2614C35.9759 19.2557 35.9238 19.2472 35.8423 19.2358C35.7628 19.2225 35.6785 19.2159 35.5895 19.2159C35.3774 19.2159 35.188 19.2604 35.0213 19.3494C34.8565 19.4366 34.7259 19.5578 34.6293 19.7131C34.5346 19.8665 34.4872 20.0417 34.4872 20.2386V23H33.8168ZM38.0774 23.1023C37.8009 23.1023 37.55 23.0502 37.3246 22.946C37.0992 22.84 36.9202 22.6875 36.7876 22.4886C36.6551 22.2879 36.5888 22.0455 36.5888 21.7614C36.5888 21.5114 36.638 21.3087 36.7365 21.1534C36.835 20.9962 36.9666 20.8731 37.1314 20.7841C37.2962 20.6951 37.478 20.6288 37.6768 20.5852C37.8776 20.5398 38.0793 20.5038 38.282 20.4773C38.5471 20.4432 38.7621 20.4176 38.9268 20.4006C39.0935 20.3816 39.2147 20.3504 39.2905 20.3068C39.3681 20.2633 39.407 20.1875 39.407 20.0795V20.0568C39.407 19.7765 39.3303 19.5587 39.1768 19.4034C39.0253 19.2481 38.7952 19.1705 38.4865 19.1705C38.1664 19.1705 37.9155 19.2405 37.7337 19.3807C37.5518 19.5208 37.424 19.6705 37.3501 19.8295L36.7138 19.6023C36.8274 19.3371 36.9789 19.1307 37.1683 18.983C37.3596 18.8333 37.5679 18.7292 37.7933 18.6705C38.0206 18.6098 38.2441 18.5795 38.4638 18.5795C38.6039 18.5795 38.7649 18.5966 38.9467 18.6307C39.1304 18.6629 39.3075 18.7301 39.478 18.8324C39.6503 18.9347 39.7933 19.089 39.907 19.2955C40.0206 19.5019 40.0774 19.7784 40.0774 20.125V23H39.407V22.4091H39.3729C39.3274 22.5038 39.2517 22.6051 39.1456 22.7131C39.0395 22.821 38.8984 22.9129 38.7223 22.9886C38.5462 23.0644 38.3312 23.1023 38.0774 23.1023ZM38.1797 22.5C38.4448 22.5 38.6683 22.4479 38.8501 22.3438C39.0339 22.2396 39.1721 22.1051 39.2649 21.9403C39.3596 21.7756 39.407 21.6023 39.407 21.4205V20.8068C39.3786 20.8409 39.3161 20.8722 39.2195 20.9006C39.1248 20.9271 39.0149 20.9508 38.8899 20.9716C38.7668 20.9905 38.6465 21.0076 38.5291 21.0227C38.4136 21.036 38.3198 21.0473 38.2479 21.0568C38.0736 21.0795 37.9107 21.1165 37.7592 21.1676C37.6096 21.2169 37.4884 21.2917 37.3956 21.392C37.3047 21.4905 37.2592 21.625 37.2592 21.7955C37.2592 22.0284 37.3454 22.2045 37.5178 22.3239C37.692 22.4413 37.9126 22.5 38.1797 22.5ZM41.9716 20.375V23H41.3011V18.6364H41.9489V19.3182H42.0057C42.108 19.0966 42.2633 18.9186 42.4716 18.7841C42.6799 18.6477 42.9489 18.5795 43.2784 18.5795C43.5739 18.5795 43.8324 18.6402 44.054 18.7614C44.2756 18.8807 44.4479 19.0625 44.571 19.3068C44.6941 19.5492 44.7557 19.8561 44.7557 20.2273V23H44.0852V20.2727C44.0852 19.9299 43.9962 19.6629 43.8182 19.4716C43.6402 19.2784 43.3958 19.1818 43.0852 19.1818C42.8712 19.1818 42.6799 19.2282 42.5114 19.321C42.3447 19.4138 42.2131 19.5492 42.1165 19.7273C42.0199 19.9053 41.9716 20.1212 41.9716 20.375ZM47.6286 23.0909C47.2649 23.0909 46.9439 22.9991 46.6655 22.8153C46.3871 22.6297 46.1693 22.3684 46.0121 22.0312C45.8549 21.6922 45.7763 21.2917 45.7763 20.8295C45.7763 20.3712 45.8549 19.9735 46.0121 19.6364C46.1693 19.2992 46.388 19.0388 46.6683 18.8551C46.9486 18.6714 47.2725 18.5795 47.6399 18.5795C47.924 18.5795 48.1484 18.6269 48.3132 18.7216C48.4799 18.8144 48.6068 18.9205 48.6939 19.0398C48.7829 19.1572 48.852 19.2538 48.9013 19.3295H48.9581V17.1818H49.6286V23H48.9808V22.3295H48.9013C48.852 22.4091 48.782 22.5095 48.6911 22.6307C48.6001 22.75 48.4704 22.857 48.3018 22.9517C48.1333 23.0445 47.9089 23.0909 47.6286 23.0909ZM47.7195 22.4886C47.9884 22.4886 48.2157 22.4186 48.4013 22.2784C48.5869 22.1364 48.728 21.9403 48.8246 21.6903C48.9212 21.4384 48.9695 21.1477 48.9695 20.8182C48.9695 20.4924 48.9221 20.2074 48.8274 19.9631C48.7327 19.7169 48.5926 19.5256 48.407 19.3892C48.2214 19.2509 47.9922 19.1818 47.7195 19.1818C47.4354 19.1818 47.1986 19.2547 47.0092 19.4006C46.8217 19.5445 46.6806 19.7405 46.5859 19.9886C46.4931 20.2348 46.4467 20.5114 46.4467 20.8182C46.4467 21.1288 46.4941 21.411 46.5888 21.6648C46.6854 21.9167 46.8274 22.1174 47.0149 22.267C47.2043 22.4148 47.4392 22.4886 47.7195 22.4886ZM50.9496 23V18.6364H51.62V23H50.9496ZM51.2905 17.9091C51.1598 17.9091 51.0471 17.8646 50.9524 17.7756C50.8596 17.6866 50.8132 17.5795 50.8132 17.4545C50.8132 17.3295 50.8596 17.2225 50.9524 17.1335C51.0471 17.0445 51.1598 17 51.2905 17C51.4212 17 51.5329 17.0445 51.6257 17.1335C51.7204 17.2225 51.7678 17.3295 51.7678 17.4545C51.7678 17.5795 51.7204 17.6866 51.6257 17.7756C51.5329 17.8646 51.4212 17.9091 51.2905 17.9091ZM53.5185 20.375V23H52.848V18.6364H53.4957V19.3182H53.5526C53.6548 19.0966 53.8101 18.9186 54.0185 18.7841C54.2268 18.6477 54.4957 18.5795 54.8253 18.5795C55.1207 18.5795 55.3793 18.6402 55.6009 18.7614C55.8224 18.8807 55.9948 19.0625 56.1179 19.3068C56.241 19.5492 56.3026 19.8561 56.3026 20.2273V23H55.6321V20.2727C55.6321 19.9299 55.5431 19.6629 55.3651 19.4716C55.187 19.2784 54.9427 19.1818 54.6321 19.1818C54.4181 19.1818 54.2268 19.2282 54.0582 19.321C53.8916 19.4138 53.7599 19.5492 53.6634 19.7273C53.5668 19.9053 53.5185 20.1212 53.5185 20.375ZM59.2891 24.7273C58.9652 24.7273 58.6868 24.6856 58.4538 24.6023C58.2209 24.5208 58.0268 24.4129 57.8714 24.2784C57.718 24.1458 57.5959 24.0038 57.505 23.8523L58.0391 23.4773C58.0997 23.5568 58.1764 23.6477 58.2692 23.75C58.362 23.8542 58.4889 23.9441 58.6499 24.0199C58.8127 24.0975 59.0258 24.1364 59.2891 24.1364C59.6413 24.1364 59.9321 24.0511 60.1612 23.8807C60.3904 23.7102 60.505 23.4432 60.505 23.0795V22.1932H60.4482C60.3989 22.2727 60.3288 22.3712 60.2379 22.4886C60.1489 22.6042 60.0201 22.7074 59.8516 22.7983C59.6849 22.8873 59.4595 22.9318 59.1754 22.9318C58.8232 22.9318 58.5069 22.8485 58.2266 22.6818C57.9482 22.5152 57.7275 22.2727 57.5646 21.9545C57.4036 21.6364 57.3232 21.25 57.3232 20.7955C57.3232 20.3485 57.4018 19.9593 57.5589 19.6278C57.7161 19.2945 57.9349 19.0369 58.2152 18.8551C58.4955 18.6714 58.8194 18.5795 59.1868 18.5795C59.4709 18.5795 59.6963 18.6269 59.8629 18.7216C60.0315 18.8144 60.1603 18.9205 60.2493 19.0398C60.3402 19.1572 60.4103 19.2538 60.4595 19.3295H60.5277V18.6364H61.1754V23.125C61.1754 23.5 61.0902 23.8049 60.9197 24.0398C60.7512 24.2765 60.5239 24.4498 60.2379 24.5597C59.9538 24.6714 59.6375 24.7273 59.2891 24.7273ZM59.2663 22.3295C59.5353 22.3295 59.7625 22.268 59.9482 22.1449C60.1338 22.0218 60.2749 21.8447 60.3714 21.6136C60.468 21.3826 60.5163 21.1061 60.5163 20.7841C60.5163 20.4697 60.469 20.1922 60.3743 19.9517C60.2796 19.7112 60.1394 19.5227 59.9538 19.3864C59.7682 19.25 59.5391 19.1818 59.2663 19.1818C58.9822 19.1818 58.7455 19.2538 58.5561 19.3977C58.3686 19.5417 58.2275 19.7348 58.1328 19.9773C58.04 20.2197 57.9936 20.4886 57.9936 20.7841C57.9936 21.0871 58.041 21.3551 58.1357 21.5881C58.2322 21.8191 58.3743 22.0009 58.5618 22.1335C58.7512 22.2642 58.986 22.3295 59.2663 22.3295ZM64.9822 23H64.2436L66.38 17.1818H67.1072L69.2436 23H68.505L66.7663 18.1023H66.7209L64.9822 23ZM65.255 20.7273H68.2322V21.3523H65.255V20.7273ZM73.1499 19.6136L72.5476 19.7841C72.5097 19.6837 72.4538 19.5862 72.38 19.4915C72.308 19.3949 72.2095 19.3153 72.0845 19.2528C71.9595 19.1903 71.7995 19.1591 71.6044 19.1591C71.3374 19.1591 71.1148 19.2206 70.9368 19.3438C70.7607 19.465 70.6726 19.6193 70.6726 19.8068C70.6726 19.9735 70.7332 20.1051 70.8544 20.2017C70.9756 20.2983 71.165 20.3788 71.4226 20.4432L72.0703 20.6023C72.4605 20.697 72.7512 20.8419 72.9425 21.0369C73.1338 21.2301 73.2294 21.4792 73.2294 21.7841C73.2294 22.0341 73.1574 22.2576 73.0135 22.4545C72.8714 22.6515 72.6726 22.8068 72.4169 22.9205C72.1612 23.0341 71.8639 23.0909 71.5249 23.0909C71.0798 23.0909 70.7114 22.9943 70.4197 22.8011C70.1281 22.608 69.9434 22.3258 69.8658 21.9545L70.5021 21.7955C70.5627 22.0303 70.6773 22.2064 70.8459 22.3239C71.0163 22.4413 71.2389 22.5 71.5135 22.5C71.826 22.5 72.0741 22.4337 72.2578 22.3011C72.4434 22.1667 72.5362 22.0057 72.5362 21.8182C72.5362 21.6667 72.4832 21.5398 72.3771 21.4375C72.2711 21.3333 72.1082 21.2557 71.8885 21.2045L71.1612 21.0341C70.7616 20.9394 70.468 20.7926 70.2805 20.5938C70.0949 20.393 70.0021 20.142 70.0021 19.8409C70.0021 19.5947 70.0713 19.3769 70.2095 19.1875C70.3497 18.9981 70.54 18.8494 70.7805 18.7415C71.023 18.6335 71.2976 18.5795 71.6044 18.5795C72.0362 18.5795 72.3752 18.6742 72.6214 18.8636C72.8696 19.053 73.0457 19.303 73.1499 19.6136ZM77.3295 19.6136L76.7273 19.7841C76.6894 19.6837 76.6335 19.5862 76.5597 19.4915C76.4877 19.3949 76.3892 19.3153 76.2642 19.2528C76.1392 19.1903 75.9792 19.1591 75.7841 19.1591C75.517 19.1591 75.2945 19.2206 75.1165 19.3438C74.9403 19.465 74.8523 19.6193 74.8523 19.8068C74.8523 19.9735 74.9129 20.1051 75.0341 20.2017C75.1553 20.2983 75.3447 20.3788 75.6023 20.4432L76.25 20.6023C76.6402 20.697 76.9309 20.8419 77.1222 21.0369C77.3134 21.2301 77.4091 21.4792 77.4091 21.7841C77.4091 22.0341 77.3371 22.2576 77.1932 22.4545C77.0511 22.6515 76.8523 22.8068 76.5966 22.9205C76.3409 23.0341 76.0436 23.0909 75.7045 23.0909C75.2595 23.0909 74.8911 22.9943 74.5994 22.8011C74.3078 22.608 74.1231 22.3258 74.0455 21.9545L74.6818 21.7955C74.7424 22.0303 74.857 22.2064 75.0256 22.3239C75.196 22.4413 75.4186 22.5 75.6932 22.5C76.0057 22.5 76.2538 22.4337 76.4375 22.3011C76.6231 22.1667 76.7159 22.0057 76.7159 21.8182C76.7159 21.6667 76.6629 21.5398 76.5568 21.4375C76.4508 21.3333 76.2879 21.2557 76.0682 21.2045L75.3409 21.0341C74.9413 20.9394 74.6477 20.7926 74.4602 20.5938C74.2746 20.393 74.1818 20.142 74.1818 19.8409C74.1818 19.5947 74.2509 19.3769 74.3892 19.1875C74.5294 18.9981 74.7197 18.8494 74.9602 18.7415C75.2027 18.6335 75.4773 18.5795 75.7841 18.5795C76.2159 18.5795 76.5549 18.6742 76.8011 18.8636C77.0492 19.053 77.2254 19.303 77.3295 19.6136ZM80.2479 23.0909C79.8274 23.0909 79.4647 22.9981 79.1598 22.8125C78.8568 22.625 78.6229 22.3636 78.4581 22.0284C78.2952 21.6913 78.2138 21.2992 78.2138 20.8523C78.2138 20.4053 78.2952 20.0114 78.4581 19.6705C78.6229 19.3277 78.852 19.0606 79.1456 18.8693C79.4411 18.6761 79.7857 18.5795 80.1797 18.5795C80.407 18.5795 80.6314 18.6174 80.853 18.6932C81.0746 18.7689 81.2763 18.892 81.4581 19.0625C81.6399 19.2311 81.7848 19.4545 81.8928 19.733C82.0007 20.0114 82.0547 20.3542 82.0547 20.7614V21.0455H78.6911V20.4659H81.3729C81.3729 20.2197 81.3236 20 81.2251 19.8068C81.1286 19.6136 80.9903 19.4612 80.8104 19.3494C80.6323 19.2377 80.4221 19.1818 80.1797 19.1818C79.9126 19.1818 79.6816 19.2481 79.4865 19.3807C79.2933 19.5114 79.1446 19.6818 79.0405 19.892C78.9363 20.1023 78.8842 20.3277 78.8842 20.5682V20.9545C78.8842 21.2841 78.9411 21.5634 79.0547 21.7926C79.1702 22.0199 79.3303 22.1932 79.5348 22.3125C79.7393 22.4299 79.977 22.4886 80.2479 22.4886C80.424 22.4886 80.5831 22.464 80.7251 22.4148C80.8691 22.3636 80.9931 22.2879 81.0973 22.1875C81.2015 22.0852 81.282 21.9583 81.3388 21.8068L81.9865 21.9886C81.9183 22.2083 81.8037 22.4015 81.6428 22.5682C81.4818 22.733 81.2829 22.8617 81.0462 22.9545C80.8094 23.0455 80.5433 23.0909 80.2479 23.0909ZM84.9723 18.6364V19.2045H82.7109V18.6364H84.9723ZM83.37 17.5909H84.0405V21.75C84.0405 21.9394 84.0679 22.0814 84.1229 22.1761C84.1797 22.2689 84.2517 22.3314 84.3388 22.3636C84.4278 22.3939 84.5215 22.4091 84.62 22.4091C84.6939 22.4091 84.7545 22.4053 84.8018 22.3977C84.8492 22.3883 84.8871 22.3807 84.9155 22.375L85.0518 22.9773C85.0064 22.9943 84.9429 23.0114 84.8615 23.0284C84.7801 23.0473 84.6768 23.0568 84.5518 23.0568C84.3625 23.0568 84.1768 23.0161 83.995 22.9347C83.8151 22.8532 83.6655 22.7292 83.5462 22.5625C83.4287 22.3958 83.37 22.1856 83.37 21.9318V17.5909ZM88.9936 19.6136L88.3913 19.7841C88.3535 19.6837 88.2976 19.5862 88.2237 19.4915C88.1518 19.3949 88.0533 19.3153 87.9283 19.2528C87.8033 19.1903 87.6432 19.1591 87.4482 19.1591C87.1811 19.1591 86.9586 19.2206 86.7805 19.3438C86.6044 19.465 86.5163 19.6193 86.5163 19.8068C86.5163 19.9735 86.5769 20.1051 86.6982 20.2017C86.8194 20.2983 87.0088 20.3788 87.2663 20.4432L87.9141 20.6023C88.3042 20.697 88.5949 20.8419 88.7862 21.0369C88.9775 21.2301 89.0732 21.4792 89.0732 21.7841C89.0732 22.0341 89.0012 22.2576 88.8572 22.4545C88.7152 22.6515 88.5163 22.8068 88.2607 22.9205C88.005 23.0341 87.7076 23.0909 87.3686 23.0909C86.9235 23.0909 86.5552 22.9943 86.2635 22.8011C85.9718 22.608 85.7872 22.3258 85.7095 21.9545L86.3459 21.7955C86.4065 22.0303 86.5211 22.2064 86.6896 22.3239C86.8601 22.4413 87.0826 22.5 87.3572 22.5C87.6697 22.5 87.9179 22.4337 88.1016 22.3011C88.2872 22.1667 88.38 22.0057 88.38 21.8182C88.38 21.6667 88.3269 21.5398 88.2209 21.4375C88.1148 21.3333 87.9519 21.2557 87.7322 21.2045L87.005 21.0341C86.6054 20.9394 86.3118 20.7926 86.1243 20.5938C85.9387 20.393 85.8459 20.142 85.8459 19.8409C85.8459 19.5947 85.915 19.3769 86.0533 19.1875C86.1934 18.9981 86.3838 18.8494 86.6243 18.7415C86.8667 18.6335 87.1413 18.5795 87.4482 18.5795C87.88 18.5795 88.219 18.6742 88.4652 18.8636C88.7133 19.053 88.8894 19.303 88.9936 19.6136Z" fill="white"/>
</g>
<rect x="0.5" y="0.5" width="99" height="31" stroke="white" stroke-opacity="0.02"/>
<defs>
<filter id="filter0_dii_5_78" x="10.2188" y="6.46875" width="11.5625" height="19.0625" filterUnits="userSpaceOnUse" color-interpolation-filters="sRGB">
<feFlood flood-opacity="0" result="BackgroundImageFix"/>
<feColorMatrix in="SourceAlpha" type="matrix" values="0 0 0 0 0 0 0 0 0 0 0 0 0 0 0 0 0 0 127 0" result="hardAlpha"/>
<feOffset/>
<feGaussianBlur stdDeviation="0.625"/>
<feComposite in2="hardAlpha" operator="out"/>
<feColorMatrix type="matrix" values="0 0 0 0 0 0 0 0 0 0 0 0 0 0 0 0 0 0 0.25 0"/>
<feBlend mode="normal" in2="BackgroundImageFix" result="effect1_dropShadow_5_78"/>
<feBlend mode="normal" in="SourceGraphic" in2="effect1_dropShadow_5_78" result="shape"/>
<feColorMatrix in="SourceAlpha" type="matrix" values="0 0 0 0 0 0 0 0 0 0 0 0 0 0 0 0 0 0 127 0" result="hardAlpha"/>
<feOffset/>
<feGaussianBlur stdDeviation="0.3125"/>
<feComposite in2="hardAlpha" operator="arithmetic" k2="-1" k3="1"/>
<feColorMatrix type="matrix" values="0 0 0 0 0 0 0 0 0 0 0 0 0 0 0 0 0 0 0.2 0"/>
<feBlend mode="normal" in2="shape" result="effect2_innerShadow_5_78"/>
<feColorMatrix in="SourceAlpha" type="matrix" values="0 0 0 0 0 0 0 0 0 0 0 0 0 0 0 0 0 0 127 0" result="hardAlpha"/>
<feOffset/>
<feGaussianBlur stdDeviation="0.125"/>
<feComposite in2="hardAlpha" operator="arithmetic" k2="-1" k3="1"/>
<feColorMatrix type="matrix" values="0 0 0 0 1 0 0 0 0 1 0 0 0 0 1 0 0 0 0.3 0"/>
<feBlend mode="normal" in2="effect2_innerShadow_5_78" result="effect3_innerShadow_5_78"/>
</filter>
<filter id="filter1_dii_5_78" x="10.2188" y="6.46875" width="11.5625" height="19.0625" filterUnits="userSpaceOnUse" color-interpolation-filters="sRGB">
<feFlood flood-opacity="0" result="BackgroundImageFix"/>
<feColorMatrix in="SourceAlpha" type="matrix" values="0 0 0 0 0 0 0 0 0 0 0 0 0 0 0 0 0 0 127 0" result="hardAlpha"/>
<feOffset/>
<feGaussianBlur stdDeviation="0.625"/>
<feComposite in2="hardAlpha" operator="out"/>
<feColorMatrix type="matrix" values="0 0 0 0 0 0 0 0 0 0 0 0 0 0 0 0 0 0 0.25 0"/>
<feBlend mode="normal" in2="BackgroundImageFix" result="effect1_dropShadow_5_78"/>
<feBlend mode="normal" in="SourceGraphic" in2="effect1_dropShadow_5_78" result="shape"/>
<feColorMatrix in="SourceAlpha" type="matrix" values="0 0 0 0 0 0 0 0 0 0 0 0 0 0 0 0 0 0 127 0" result="hardAlpha"/>
<feOffset/>
<feGaussianBlur stdDeviation="0.3125"/>
<feComposite in2="hardAlpha" operator="arithmetic" k2="-1" k3="1"/>
<feColorMatrix type="matrix" values="0 0 0 0 0 0 0 0 0 0 0 0 0 0 0 0 0 0 0.2 0"/>
<feBlend mode="normal" in2="shape" result="effect2_innerShadow_5_78"/>
<feColorMatrix in="SourceAlpha" type="matrix" values="0 0 0 0 0 0 0 0 0 0 0 0 0 0 0 0 0 0 127 0" result="hardAlpha"/>
<feOffset/>
<feGaussianBlur stdDeviation="0.125"/>
<feComposite in2="hardAlpha" operator="arithmetic" k2="-1" k3="1"/>
<feColorMatrix type="matrix" values="0 0 0 0 1 0 0 0 0 1 0 0 0 0 1 0 0 0 0.3 0"/>
<feBlend mode="normal" in2="effect2_innerShadow_5_78" result="effect3_innerShadow_5_78"/>
</filter>
<filter id="filter2_d_5_78" x="26.5057" y="7.84943" width="64.5675" height="18.8778" filterUnits="userSpaceOnUse" color-interpolation-filters="sRGB">
<feFlood flood-opacity="0" result="BackgroundImageFix"/>
<feColorMatrix in="SourceAlpha" type="matrix" values="0 0 0 0 0 0 0 0 0 0 0 0 0 0 0 0 0 0 127 0" result="hardAlpha"/>
<feOffset/>
<feGaussianBlur stdDeviation="1"/>
<feComposite in2="hardAlpha" operator="out"/>
<feColorMatrix type="matrix" values="0 0 0 0 0 0 0 0 0 0 0 0 0 0 0 0 0 0 0.25 0"/>
<feBlend mode="normal" in2="BackgroundImageFix" result="effect1_dropShadow_5_78"/>
<feBlend mode="normal" in="SourceGraphic" in2="effect1_dropShadow_5_78" result="shape"/>
</filter>
<linearGradient id="paint0_linear_5_78" x1="25.7813" y1="-22" x2="44.6408" y2="60.5107" gradientUnits="userSpaceOnUse">
<stop stop-color="#262026"/>
<stop offset="0.25" stop-color="#1D1D26"/>
<stop offset="0.5" stop-color="#172419"/>
<stop offset="0.75" stop-color="#222213"/>
<stop offset="1" stop-color="#2E1414"/>
</linearGradient>
<linearGradient id="paint1_linear_5_78" x1="16" y1="8.5" x2="16" y2="23.5" gradientUnits="userSpaceOnUse">
<stop stop-color="#EB60DD"/>
<stop offset="0.489583" stop-color="#6066EA"/>
<stop offset="0.958333" stop-color="#69EC7E"/>
</linearGradient>
<linearGradient id="paint2_linear_5_78" x1="16" y1="8.5" x2="16" y2="23.5" gradientUnits="userSpaceOnUse">
<stop stop-color="#DEE154"/>
<stop offset="1" stop-color="#E75A5A"/>
</linearGradient>
<linearGradient id="paint3_linear_5_78" x1="32.3056" y1="8" x2="51.8923" y2="26.3996" gradientUnits="userSpaceOnUse">
<stop stop-color="#E75A5A"/>
<stop offset="0.5" stop-color="#69EC7E"/>
<stop offset="1" stop-color="#6066EA"/>
</linearGradient>
</defs>
</svg>
