<svg width="116" height="28" viewBox="0 0 116 28" fill="none" xmlns="http://www.w3.org/2000/svg">
<rect width="116" height="28" rx="4" fill="url(#paint0_linear_5_79)"/>
<g filter="url(#filter0_dii_5_79)">
<path d="M17.75 21.5C17.75 21 17.75 22.4 17.75 20C17.75 15.5 10.25 12.5 10.25 8C10.25 5.6 10.25 7.25 10.25 6.5" stroke="url(#paint1_linear_5_79)" stroke-width="1.5625" stroke-linecap="round"/>
</g>
<g filter="url(#filter1_dii_5_79)">
<path d="M10.25 21.5C10.25 21 10.25 22.4 10.25 20C10.25 15.5 17.75 12.5 17.75 8C17.75 5.6 17.75 7.25 17.75 6.5" stroke="url(#paint2_linear_5_79)" stroke-width="1.5625" stroke-linecap="round"/>
</g>
<g filter="url(#filter2_d_5_79)">
<path d="M24.5057 17V11.1818H25.7358V13.5824H28.233V11.1818H29.4602V17H28.233V14.5966H25.7358V17H24.5057ZM32.4403 17.0852C31.9915 17.0852 31.6051 16.9943 31.2812 16.8125C30.9593 16.6288 30.7112 16.3693 30.5369 16.0341C30.3627 15.697 30.2756 15.2983 30.2756 14.8381C30.2756 14.3892 30.3627 13.9953 30.5369 13.6562C30.7112 13.3172 30.9564 13.053 31.2727 12.8636C31.5909 12.6742 31.964 12.5795 32.392 12.5795C32.6799 12.5795 32.9479 12.6259 33.196 12.7188C33.446 12.8097 33.6638 12.947 33.8494 13.1307C34.0369 13.3144 34.1828 13.5455 34.2869 13.8239C34.3911 14.1004 34.4432 14.4242 34.4432 14.7955V15.1278H30.7585V14.3778H33.304C33.304 14.2036 33.2661 14.0492 33.1903 13.9148C33.1146 13.7803 33.0095 13.6752 32.875 13.5994C32.7424 13.5218 32.5881 13.483 32.4119 13.483C32.2282 13.483 32.0653 13.5256 31.9233 13.6108C31.7831 13.6941 31.6733 13.8068 31.5938 13.9489C31.5142 14.089 31.4735 14.2453 31.4716 14.4176V15.1307C31.4716 15.3466 31.5114 15.5331 31.5909 15.6903C31.6723 15.8475 31.7869 15.9688 31.9347 16.054C32.0824 16.1392 32.2576 16.1818 32.4602 16.1818C32.5947 16.1818 32.7178 16.1629 32.8295 16.125C32.9413 16.0871 33.0369 16.0303 33.1165 15.9545C33.196 15.8788 33.2566 15.786 33.2983 15.6761L34.4176 15.75C34.3608 16.0189 34.2443 16.2538 34.0682 16.4545C33.8939 16.6534 33.6686 16.8087 33.392 16.9205C33.1174 17.0303 32.8002 17.0852 32.4403 17.0852ZM36.4432 11.1818V17H35.233V11.1818H36.4432ZM37.4126 17V12.6364H38.6229V17H37.4126ZM38.0206 12.0739C37.8407 12.0739 37.6863 12.0142 37.5575 11.8949C37.4306 11.7737 37.3672 11.6288 37.3672 11.4602C37.3672 11.2936 37.4306 11.1506 37.5575 11.0312C37.6863 10.91 37.8407 10.8494 38.0206 10.8494C38.2005 10.8494 38.3539 10.91 38.4808 11.0312C38.6096 11.1506 38.674 11.2936 38.674 11.4602C38.674 11.6288 38.6096 11.7737 38.4808 11.8949C38.3539 12.0142 38.2005 12.0739 38.0206 12.0739ZM40.6037 12.6364L41.4048 14.1619L42.2259 12.6364H43.4673L42.2031 14.8182L43.5014 17H42.2656L41.4048 15.4915L40.5582 17H39.3082L40.6037 14.8182L39.3537 12.6364H40.6037Z" fill="url(#paint3_linear_5_79)"/>
<path d="M46.2592 17V11.1818H48.2933C48.6986 11.1818 49.0329 11.2519 49.2962 11.392C49.5594 11.5303 49.7554 11.7169 49.8842 11.9517C50.013 12.1847 50.0774 12.4432 50.0774 12.7273C50.0774 12.9773 50.0329 13.1837 49.9439 13.3466C49.8568 13.5095 49.7412 13.6383 49.5973 13.733C49.4553 13.8277 49.3009 13.8977 49.1342 13.9432V14C49.3123 14.0114 49.4912 14.0739 49.6712 14.1875C49.8511 14.3011 50.0017 14.464 50.1229 14.6761C50.2441 14.8883 50.3047 15.1477 50.3047 15.4545C50.3047 15.7462 50.2384 16.0085 50.1058 16.2415C49.9732 16.4744 49.764 16.6591 49.478 16.7955C49.192 16.9318 48.8198 17 48.3615 17H46.2592ZM46.9638 16.375H48.3615C48.8217 16.375 49.1484 16.286 49.3416 16.108C49.5367 15.928 49.6342 15.7102 49.6342 15.4545C49.6342 15.2576 49.584 15.0758 49.4837 14.9091C49.3833 14.7405 49.2403 14.6061 49.0547 14.5057C48.8691 14.4034 48.6494 14.3523 48.3956 14.3523H46.9638V16.375ZM46.9638 13.7386H48.2706C48.4827 13.7386 48.674 13.697 48.8445 13.6136C49.0168 13.5303 49.1532 13.4129 49.2536 13.2614C49.3558 13.1098 49.407 12.9318 49.407 12.7273C49.407 12.4716 49.3179 12.2547 49.1399 12.0767C48.9619 11.8968 48.6797 11.8068 48.2933 11.8068H46.9638V13.7386ZM51.3714 17V12.6364H52.0192V13.2955H52.0646C52.1442 13.0795 52.2881 12.9044 52.4964 12.7699C52.7048 12.6354 52.9396 12.5682 53.201 12.5682C53.2502 12.5682 53.3118 12.5691 53.3857 12.571C53.4595 12.5729 53.5154 12.5758 53.5533 12.5795V13.2614C53.5305 13.2557 53.4785 13.2472 53.397 13.2358C53.3175 13.2225 53.2332 13.2159 53.1442 13.2159C52.9321 13.2159 52.7427 13.2604 52.576 13.3494C52.4112 13.4366 52.2805 13.5578 52.1839 13.7131C52.0893 13.8665 52.0419 14.0417 52.0419 14.2386V17H51.3714ZM55.6321 17.1023C55.3556 17.1023 55.1046 17.0502 54.8793 16.946C54.6539 16.84 54.4749 16.6875 54.3423 16.4886C54.2098 16.2879 54.1435 16.0455 54.1435 15.7614C54.1435 15.5114 54.1927 15.3087 54.2912 15.1534C54.3897 14.9962 54.5213 14.8731 54.6861 14.7841C54.8509 14.6951 55.0327 14.6288 55.2315 14.5852C55.4323 14.5398 55.634 14.5038 55.8366 14.4773C56.1018 14.4432 56.3168 14.4176 56.4815 14.4006C56.6482 14.3816 56.7694 14.3504 56.8452 14.3068C56.9228 14.2633 56.9616 14.1875 56.9616 14.0795V14.0568C56.9616 13.7765 56.8849 13.5587 56.7315 13.4034C56.58 13.2481 56.3499 13.1705 56.0412 13.1705C55.7211 13.1705 55.4702 13.2405 55.2884 13.3807C55.1065 13.5208 54.9787 13.6705 54.9048 13.8295L54.2685 13.6023C54.3821 13.3371 54.5336 13.1307 54.723 12.983C54.9143 12.8333 55.1226 12.7292 55.348 12.6705C55.5753 12.6098 55.7988 12.5795 56.0185 12.5795C56.1586 12.5795 56.3196 12.5966 56.5014 12.6307C56.6851 12.6629 56.8622 12.7301 57.0327 12.8324C57.205 12.9347 57.348 13.089 57.4616 13.2955C57.5753 13.5019 57.6321 13.7784 57.6321 14.125V17H56.9616V16.4091H56.9276C56.8821 16.5038 56.8063 16.6051 56.7003 16.7131C56.5942 16.821 56.4531 16.9129 56.277 16.9886C56.1009 17.0644 55.8859 17.1023 55.6321 17.1023ZM55.7344 16.5C55.9995 16.5 56.223 16.4479 56.4048 16.3438C56.5885 16.2396 56.7268 16.1051 56.8196 15.9403C56.9143 15.7756 56.9616 15.6023 56.9616 15.4205V14.8068C56.9332 14.8409 56.8707 14.8722 56.7741 14.9006C56.6795 14.9271 56.5696 14.9508 56.4446 14.9716C56.3215 14.9905 56.2012 15.0076 56.0838 15.0227C55.9683 15.036 55.8745 15.0473 55.8026 15.0568C55.6283 15.0795 55.4654 15.1165 55.3139 15.1676C55.1643 15.2169 55.0431 15.2917 54.9503 15.392C54.8594 15.4905 54.8139 15.625 54.8139 15.7955C54.8139 16.0284 54.9001 16.2045 55.0724 16.3239C55.2467 16.4413 55.4673 16.5 55.7344 16.5ZM59.5263 14.375V17H58.8558V12.6364H59.5036V13.3182H59.5604C59.6626 13.0966 59.8179 12.9186 60.0263 12.7841C60.2346 12.6477 60.5036 12.5795 60.8331 12.5795C61.1286 12.5795 61.3871 12.6402 61.6087 12.7614C61.8303 12.8807 62.0026 13.0625 62.1257 13.3068C62.2488 13.5492 62.3104 13.8561 62.3104 14.2273V17H61.6399V14.2727C61.6399 13.9299 61.5509 13.6629 61.3729 13.4716C61.1948 13.2784 60.9505 13.1818 60.6399 13.1818C60.4259 13.1818 60.2346 13.2282 60.0661 13.321C59.8994 13.4138 59.7678 13.5492 59.6712 13.7273C59.5746 13.9053 59.5263 14.1212 59.5263 14.375ZM65.1832 17.0909C64.8196 17.0909 64.4986 16.9991 64.2202 16.8153C63.9418 16.6297 63.724 16.3684 63.5668 16.0312C63.4096 15.6922 63.331 15.2917 63.331 14.8295C63.331 14.3712 63.4096 13.9735 63.5668 13.6364C63.724 13.2992 63.9427 13.0388 64.223 12.8551C64.5033 12.6714 64.8272 12.5795 65.1946 12.5795C65.4787 12.5795 65.7031 12.6269 65.8679 12.7216C66.0346 12.8144 66.1615 12.9205 66.2486 13.0398C66.3376 13.1572 66.4067 13.2538 66.456 13.3295H66.5128V11.1818H67.1832V17H66.5355V16.3295H66.456C66.4067 16.4091 66.3366 16.5095 66.2457 16.6307C66.1548 16.75 66.0251 16.857 65.8565 16.9517C65.688 17.0445 65.4635 17.0909 65.1832 17.0909ZM65.2741 16.4886C65.5431 16.4886 65.7704 16.4186 65.956 16.2784C66.1416 16.1364 66.2827 15.9403 66.3793 15.6903C66.4759 15.4384 66.5241 15.1477 66.5241 14.8182C66.5241 14.4924 66.4768 14.2074 66.3821 13.9631C66.2874 13.7169 66.1473 13.5256 65.9616 13.3892C65.776 13.2509 65.5469 13.1818 65.2741 13.1818C64.9901 13.1818 64.7533 13.2547 64.5639 13.4006C64.3764 13.5445 64.2353 13.7405 64.1406 13.9886C64.0478 14.2348 64.0014 14.5114 64.0014 14.8182C64.0014 15.1288 64.0488 15.411 64.1435 15.6648C64.2401 15.9167 64.3821 16.1174 64.5696 16.267C64.759 16.4148 64.9938 16.4886 65.2741 16.4886ZM68.5043 17V12.6364H69.1747V17H68.5043ZM68.8452 11.9091C68.7145 11.9091 68.6018 11.8646 68.5071 11.7756C68.4143 11.6866 68.3679 11.5795 68.3679 11.4545C68.3679 11.3295 68.4143 11.2225 68.5071 11.1335C68.6018 11.0445 68.7145 11 68.8452 11C68.9759 11 69.0876 11.0445 69.1804 11.1335C69.2751 11.2225 69.3224 11.3295 69.3224 11.4545C69.3224 11.5795 69.2751 11.6866 69.1804 11.7756C69.0876 11.8646 68.9759 11.9091 68.8452 11.9091ZM71.0732 14.375V17H70.4027V12.6364H71.0504V13.3182H71.1072C71.2095 13.0966 71.3648 12.9186 71.5732 12.7841C71.7815 12.6477 72.0504 12.5795 72.38 12.5795C72.6754 12.5795 72.9339 12.6402 73.1555 12.7614C73.3771 12.8807 73.5495 13.0625 73.6726 13.3068C73.7957 13.5492 73.8572 13.8561 73.8572 14.2273V17H73.1868V14.2727C73.1868 13.9299 73.0978 13.6629 72.9197 13.4716C72.7417 13.2784 72.4974 13.1818 72.1868 13.1818C71.9728 13.1818 71.7815 13.2282 71.6129 13.321C71.4463 13.4138 71.3146 13.5492 71.218 13.7273C71.1214 13.9053 71.0732 14.1212 71.0732 14.375ZM76.8438 18.7273C76.5199 18.7273 76.2415 18.6856 76.0085 18.6023C75.7756 18.5208 75.5814 18.4129 75.4261 18.2784C75.2727 18.1458 75.1506 18.0038 75.0597 17.8523L75.5938 17.4773C75.6544 17.5568 75.7311 17.6477 75.8239 17.75C75.9167 17.8542 76.0436 17.9441 76.2045 18.0199C76.3674 18.0975 76.5805 18.1364 76.8438 18.1364C77.196 18.1364 77.4867 18.0511 77.7159 17.8807C77.9451 17.7102 78.0597 17.4432 78.0597 17.0795V16.1932H78.0028C77.9536 16.2727 77.8835 16.3712 77.7926 16.4886C77.7036 16.6042 77.5748 16.7074 77.4062 16.7983C77.2396 16.8873 77.0142 16.9318 76.7301 16.9318C76.3778 16.9318 76.0616 16.8485 75.7812 16.6818C75.5028 16.5152 75.2822 16.2727 75.1193 15.9545C74.9583 15.6364 74.8778 15.25 74.8778 14.7955C74.8778 14.3485 74.9564 13.9593 75.1136 13.6278C75.2708 13.2945 75.4896 13.0369 75.7699 12.8551C76.0502 12.6714 76.3741 12.5795 76.7415 12.5795C77.0256 12.5795 77.2509 12.6269 77.4176 12.7216C77.5862 12.8144 77.715 12.9205 77.804 13.0398C77.8949 13.1572 77.965 13.2538 78.0142 13.3295H78.0824V12.6364H78.7301V17.125C78.7301 17.5 78.6449 17.8049 78.4744 18.0398C78.3059 18.2765 78.0786 18.4498 77.7926 18.5597C77.5085 18.6714 77.1922 18.7273 76.8438 18.7273ZM76.821 16.3295C77.09 16.3295 77.3172 16.268 77.5028 16.1449C77.6884 16.0218 77.8295 15.8447 77.9261 15.6136C78.0227 15.3826 78.071 15.1061 78.071 14.7841C78.071 14.4697 78.0237 14.1922 77.929 13.9517C77.8343 13.7112 77.6941 13.5227 77.5085 13.3864C77.3229 13.25 77.0938 13.1818 76.821 13.1818C76.5369 13.1818 76.3002 13.2538 76.1108 13.3977C75.9233 13.5417 75.7822 13.7348 75.6875 13.9773C75.5947 14.2197 75.5483 14.4886 75.5483 14.7841C75.5483 15.0871 75.5956 15.3551 75.6903 15.5881C75.7869 15.8191 75.929 16.0009 76.1165 16.1335C76.3059 16.2642 76.5407 16.3295 76.821 16.3295ZM82.5369 17H81.7983L83.9347 11.1818H84.6619L86.7983 17H86.0597L84.321 12.1023H84.2756L82.5369 17ZM82.8097 14.7273H85.7869V15.3523H82.8097V14.7273ZM90.7045 13.6136L90.1023 13.7841C90.0644 13.6837 90.0085 13.5862 89.9347 13.4915C89.8627 13.3949 89.7642 13.3153 89.6392 13.2528C89.5142 13.1903 89.3542 13.1591 89.1591 13.1591C88.892 13.1591 88.6695 13.2206 88.4915 13.3438C88.3153 13.465 88.2273 13.6193 88.2273 13.8068C88.2273 13.9735 88.2879 14.1051 88.4091 14.2017C88.5303 14.2983 88.7197 14.3788 88.9773 14.4432L89.625 14.6023C90.0152 14.697 90.3059 14.8419 90.4972 15.0369C90.6884 15.2301 90.7841 15.4792 90.7841 15.7841C90.7841 16.0341 90.7121 16.2576 90.5682 16.4545C90.4261 16.6515 90.2273 16.8068 89.9716 16.9205C89.7159 17.0341 89.4186 17.0909 89.0795 17.0909C88.6345 17.0909 88.2661 16.9943 87.9744 16.8011C87.6828 16.608 87.4981 16.3258 87.4205 15.9545L88.0568 15.7955C88.1174 16.0303 88.232 16.2064 88.4006 16.3239C88.571 16.4413 88.7936 16.5 89.0682 16.5C89.3807 16.5 89.6288 16.4337 89.8125 16.3011C89.9981 16.1667 90.0909 16.0057 90.0909 15.8182C90.0909 15.6667 90.0379 15.5398 89.9318 15.4375C89.8258 15.3333 89.6629 15.2557 89.4432 15.2045L88.7159 15.0341C88.3163 14.9394 88.0227 14.7926 87.8352 14.5938C87.6496 14.393 87.5568 14.142 87.5568 13.8409C87.5568 13.5947 87.6259 13.3769 87.7642 13.1875C87.9044 12.9981 88.0947 12.8494 88.3352 12.7415C88.5777 12.6335 88.8523 12.5795 89.1591 12.5795C89.5909 12.5795 89.9299 12.6742 90.1761 12.8636C90.4242 13.053 90.6004 13.303 90.7045 13.6136ZM94.8842 13.6136L94.282 13.7841C94.2441 13.6837 94.1882 13.5862 94.1143 13.4915C94.0424 13.3949 93.9439 13.3153 93.8189 13.2528C93.6939 13.1903 93.5339 13.1591 93.3388 13.1591C93.0717 13.1591 92.8492 13.2206 92.6712 13.3438C92.495 13.465 92.407 13.6193 92.407 13.8068C92.407 13.9735 92.4676 14.1051 92.5888 14.2017C92.71 14.2983 92.8994 14.3788 93.157 14.4432L93.8047 14.6023C94.1948 14.697 94.4856 14.8419 94.6768 15.0369C94.8681 15.2301 94.9638 15.4792 94.9638 15.7841C94.9638 16.0341 94.8918 16.2576 94.7479 16.4545C94.6058 16.6515 94.407 16.8068 94.1513 16.9205C93.8956 17.0341 93.5982 17.0909 93.2592 17.0909C92.8142 17.0909 92.4458 16.9943 92.1541 16.8011C91.8625 16.608 91.6778 16.3258 91.6001 15.9545L92.2365 15.7955C92.2971 16.0303 92.4117 16.2064 92.5803 16.3239C92.7507 16.4413 92.9732 16.5 93.2479 16.5C93.5604 16.5 93.8085 16.4337 93.9922 16.3011C94.1778 16.1667 94.2706 16.0057 94.2706 15.8182C94.2706 15.6667 94.2176 15.5398 94.1115 15.4375C94.0054 15.3333 93.8426 15.2557 93.6229 15.2045L92.8956 15.0341C92.496 14.9394 92.2024 14.7926 92.0149 14.5938C91.8293 14.393 91.7365 14.142 91.7365 13.8409C91.7365 13.5947 91.8056 13.3769 91.9439 13.1875C92.084 12.9981 92.2744 12.8494 92.5149 12.7415C92.7573 12.6335 93.032 12.5795 93.3388 12.5795C93.7706 12.5795 94.1096 12.6742 94.3558 12.8636C94.6039 13.053 94.7801 13.303 94.8842 13.6136ZM97.8026 17.0909C97.3821 17.0909 97.0194 16.9981 96.7145 16.8125C96.4115 16.625 96.1776 16.3636 96.0128 16.0284C95.8499 15.6913 95.7685 15.2992 95.7685 14.8523C95.7685 14.4053 95.8499 14.0114 96.0128 13.6705C96.1776 13.3277 96.4067 13.0606 96.7003 12.8693C96.9957 12.6761 97.3404 12.5795 97.7344 12.5795C97.9616 12.5795 98.1861 12.6174 98.4077 12.6932C98.6293 12.7689 98.831 12.892 99.0128 13.0625C99.1946 13.2311 99.3395 13.4545 99.4474 13.733C99.5554 14.0114 99.6094 14.3542 99.6094 14.7614V15.0455H96.2457V14.4659H98.9276C98.9276 14.2197 98.8783 14 98.7798 13.8068C98.6832 13.6136 98.545 13.4612 98.3651 13.3494C98.187 13.2377 97.9768 13.1818 97.7344 13.1818C97.4673 13.1818 97.2363 13.2481 97.0412 13.3807C96.848 13.5114 96.6993 13.6818 96.5952 13.892C96.491 14.1023 96.4389 14.3277 96.4389 14.5682V14.9545C96.4389 15.2841 96.4957 15.5634 96.6094 15.7926C96.7249 16.0199 96.8849 16.1932 97.0895 16.3125C97.294 16.4299 97.5317 16.4886 97.8026 16.4886C97.9787 16.4886 98.1378 16.464 98.2798 16.4148C98.4238 16.3636 98.5478 16.2879 98.652 16.1875C98.7562 16.0852 98.8366 15.9583 98.8935 15.8068L99.5412 15.9886C99.473 16.2083 99.3584 16.4015 99.1974 16.5682C99.0365 16.733 98.8376 16.8617 98.6009 16.9545C98.3641 17.0455 98.098 17.0909 97.8026 17.0909ZM102.527 12.6364V13.2045H100.266V12.6364H102.527ZM100.925 11.5909H101.595V15.75C101.595 15.9394 101.623 16.0814 101.678 16.1761C101.734 16.2689 101.806 16.3314 101.893 16.3636C101.982 16.3939 102.076 16.4091 102.175 16.4091C102.249 16.4091 102.309 16.4053 102.357 16.3977C102.404 16.3883 102.442 16.3807 102.47 16.375L102.607 16.9773C102.561 16.9943 102.498 17.0114 102.416 17.0284C102.335 17.0473 102.232 17.0568 102.107 17.0568C101.917 17.0568 101.732 17.0161 101.55 16.9347C101.37 16.8532 101.22 16.7292 101.101 16.5625C100.983 16.3958 100.925 16.1856 100.925 15.9318V11.5909ZM106.548 13.6136L105.946 13.7841C105.908 13.6837 105.852 13.5862 105.778 13.4915C105.706 13.3949 105.608 13.3153 105.483 13.2528C105.358 13.1903 105.198 13.1591 105.003 13.1591C104.736 13.1591 104.513 13.2206 104.335 13.3438C104.159 13.465 104.071 13.6193 104.071 13.8068C104.071 13.9735 104.132 14.1051 104.253 14.2017C104.374 14.2983 104.563 14.3788 104.821 14.4432L105.469 14.6023C105.859 14.697 106.15 14.8419 106.341 15.0369C106.532 15.2301 106.628 15.4792 106.628 15.7841C106.628 16.0341 106.556 16.2576 106.412 16.4545C106.27 16.6515 106.071 16.8068 105.815 16.9205C105.56 17.0341 105.262 17.0909 104.923 17.0909C104.478 17.0909 104.11 16.9943 103.818 16.8011C103.527 16.608 103.342 16.3258 103.264 15.9545L103.901 15.7955C103.961 16.0303 104.076 16.2064 104.244 16.3239C104.415 16.4413 104.637 16.5 104.912 16.5C105.224 16.5 105.473 16.4337 105.656 16.3011C105.842 16.1667 105.935 16.0057 105.935 15.8182C105.935 15.6667 105.882 15.5398 105.776 15.4375C105.67 15.3333 105.507 15.2557 105.287 15.2045L104.56 15.0341C104.16 14.9394 103.866 14.7926 103.679 14.5938C103.493 14.393 103.401 14.142 103.401 13.8409C103.401 13.5947 103.47 13.3769 103.608 13.1875C103.748 12.9981 103.938 12.8494 104.179 12.7415C104.421 12.6335 104.696 12.5795 105.003 12.5795C105.435 12.5795 105.774 12.6742 106.02 12.8636C106.268 13.053 106.444 13.303 106.548 13.6136Z" fill="white"/>
</g>
<rect x="0.5" y="0.5" width="115" height="27" rx="3.5" stroke="white" stroke-opacity="0.02"/>
<defs>
<filter id="filter0_dii_5_79" x="8.21875" y="4.46875" width="11.5625" height="19.0625" filterUnits="userSpaceOnUse" color-interpolation-filters="sRGB">
<feFlood flood-opacity="0" result="BackgroundImageFix"/>
<feColorMatrix in="SourceAlpha" type="matrix" values="0 0 0 0 0 0 0 0 0 0 0 0 0 0 0 0 0 0 127 0" result="hardAlpha"/>
<feOffset/>
<feGaussianBlur stdDeviation="0.625"/>
<feComposite in2="hardAlpha" operator="out"/>
<feColorMatrix type="matrix" values="0 0 0 0 0 0 0 0 0 0 0 0 0 0 0 0 0 0 0.25 0"/>
<feBlend mode="normal" in2="BackgroundImageFix" result="effect1_dropShadow_5_79"/>
<feBlend mode="normal" in="SourceGraphic" in2="effect1_dropShadow_5_79" result="shape"/>
<feColorMatrix in="SourceAlpha" type="matrix" values="0 0 0 0 0 0 0 0 0 0 0 0 0 0 0 0 0 0 127 0" result="hardAlpha"/>
<feOffset/>
<feGaussianBlur stdDeviation="0.3125"/>
<feComposite in2="hardAlpha" operator="arithmetic" k2="-1" k3="1"/>
<feColorMatrix type="matrix" values="0 0 0 0 0 0 0 0 0 0 0 0 0 0 0 0 0 0 0.2 0"/>
<feBlend mode="normal" in2="shape" result="effect2_innerShadow_5_79"/>
<feColorMatrix in="SourceAlpha" type="matrix" values="0 0 0 0 0 0 0 0 0 0 0 0 0 0 0 0 0 0 127 0" result="hardAlpha"/>
<feOffset/>
<feGaussianBlur stdDeviation="0.125"/>
<feComposite in2="hardAlpha" operator="arithmetic" k2="-1" k3="1"/>
<feColorMatrix type="matrix" values="0 0 0 0 1 0 0 0 0 1 0 0 0 0 1 0 0 0 0.3 0"/>
<feBlend mode="normal" in2="effect2_innerShadow_5_79" result="effect3_innerShadow_5_79"/>
</filter>
<filter id="filter1_dii_5_79" x="8.21875" y="4.46875" width="11.5625" height="19.0625" filterUnits="userSpaceOnUse" color-interpolation-filters="sRGB">
<feFlood flood-opacity="0" result="BackgroundImageFix"/>
<feColorMatrix in="SourceAlpha" type="matrix" values="0 0 0 0 0 0 0 0 0 0 0 0 0 0 0 0 0 0 127 0" result="hardAlpha"/>
<feOffset/>
<feGaussianBlur stdDeviation="0.625"/>
<feComposite in2="hardAlpha" operator="out"/>
<feColorMatrix type="matrix" values="0 0 0 0 0 0 0 0 0 0 0 0 0 0 0 0 0 0 0.25 0"/>
<feBlend mode="normal" in2="BackgroundImageFix" result="effect1_dropShadow_5_79"/>
<feBlend mode="normal" in="SourceGraphic" in2="effect1_dropShadow_5_79" result="shape"/>
<feColorMatrix in="SourceAlpha" type="matrix" values="0 0 0 0 0 0 0 0 0 0 0 0 0 0 0 0 0 0 127 0" result="hardAlpha"/>
<feOffset/>
<feGaussianBlur stdDeviation="0.3125"/>
<feComposite in2="hardAlpha" operator="arithmetic" k2="-1" k3="1"/>
<feColorMatrix type="matrix" values="0 0 0 0 0 0 0 0 0 0 0 0 0 0 0 0 0 0 0.2 0"/>
<feBlend mode="normal" in2="shape" result="effect2_innerShadow_5_79"/>
<feColorMatrix in="SourceAlpha" type="matrix" values="0 0 0 0 0 0 0 0 0 0 0 0 0 0 0 0 0 0 127 0" result="hardAlpha"/>
<feOffset/>
<feGaussianBlur stdDeviation="0.125"/>
<feComposite in2="hardAlpha" operator="arithmetic" k2="-1" k3="1"/>
<feColorMatrix type="matrix" values="0 0 0 0 1 0 0 0 0 1 0 0 0 0 1 0 0 0 0.3 0"/>
<feBlend mode="normal" in2="effect2_innerShadow_5_79" result="effect3_innerShadow_5_79"/>
</filter>
<filter id="filter2_d_5_79" x="22.5057" y="8.84943" width="86.1222" height="11.8778" filterUnits="userSpaceOnUse" color-interpolation-filters="sRGB">
<feFlood flood-opacity="0" result="BackgroundImageFix"/>
<feColorMatrix in="SourceAlpha" type="matrix" values="0 0 0 0 0 0 0 0 0 0 0 0 0 0 0 0 0 0 127 0" result="hardAlpha"/>
<feOffset/>
<feGaussianBlur stdDeviation="1"/>
<feComposite in2="hardAlpha" operator="out"/>
<feColorMatrix type="matrix" values="0 0 0 0 0 0 0 0 0 0 0 0 0 0 0 0 0 0 0.25 0"/>
<feBlend mode="normal" in2="BackgroundImageFix" result="effect1_dropShadow_5_79"/>
<feBlend mode="normal" in="SourceGraphic" in2="effect1_dropShadow_5_79" result="shape"/>
</filter>
<linearGradient id="paint0_linear_5_79" x1="29.9063" y1="-19.25" x2="42.6262" y2="54.5257" gradientUnits="userSpaceOnUse">
<stop stop-color="#262026"/>
<stop offset="0.25" stop-color="#1D1D26"/>
<stop offset="0.5" stop-color="#172419"/>
<stop offset="0.75" stop-color="#222213"/>
<stop offset="1" stop-color="#2E1414"/>
</linearGradient>
<linearGradient id="paint1_linear_5_79" x1="14" y1="6.5" x2="14" y2="21.5" gradientUnits="userSpaceOnUse">
<stop stop-color="#EB60DD"/>
<stop offset="0.489583" stop-color="#6066EA"/>
<stop offset="0.958333" stop-color="#69EC7E"/>
</linearGradient>
<linearGradient id="paint2_linear_5_79" x1="14" y1="6.5" x2="14" y2="21.5" gradientUnits="userSpaceOnUse">
<stop stop-color="#DEE154"/>
<stop offset="1" stop-color="#E75A5A"/>
</linearGradient>
<linearGradient id="paint3_linear_5_79" x1="25" y1="10.5" x2="28.5664" y2="22.2032" gradientUnits="userSpaceOnUse">
<stop stop-color="#E75A5A"/>
<stop offset="0.5" stop-color="#69EC7E"/>
<stop offset="1" stop-color="#6066EA"/>
</linearGradient>
</defs>
</svg>
