<svg width="71" height="24" viewBox="0 0 71 24" fill="none" xmlns="http://www.w3.org/2000/svg">
<rect width="71" height="24" rx="4" fill="url(#paint0_linear_5_79)"/>
<g filter="url(#filter0_d_5_79)">
<g filter="url(#filter1_dii_5_79)">
<path d="M13 18C13 17.6 13 18.72 13 16.8C13 13.2 7 10.8 7 7.2C7 5.28 7 6.6 7 6" stroke="url(#paint1_linear_5_79)" stroke-width="1.25" stroke-linecap="round"/>
</g>
<g filter="url(#filter2_dii_5_79)">
<path d="M7 18C7 17.6 7 18.72 7 16.8C7 13.2 13 10.8 13 7.2C13 5.28 13 6.6 13 6" stroke="url(#paint2_linear_5_79)" stroke-width="1.25" stroke-linecap="round"/>
</g>
</g>
<g filter="url(#filter3_d_5_79)">
<path d="M18.5057 15V9.18182H19.7358V11.5824H22.233V9.18182H23.4602V15H22.233V12.5966H19.7358V15H18.5057ZM26.4403 15.0852C25.9915 15.0852 25.6051 14.9943 25.2812 14.8125C24.9593 14.6288 24.7112 14.3693 24.5369 14.0341C24.3627 13.697 24.2756 13.2983 24.2756 12.8381C24.2756 12.3892 24.3627 11.9953 24.5369 11.6562C24.7112 11.3172 24.9564 11.053 25.2727 10.8636C25.5909 10.6742 25.964 10.5795 26.392 10.5795C26.6799 10.5795 26.9479 10.6259 27.196 10.7188C27.446 10.8097 27.6638 10.947 27.8494 11.1307C28.0369 11.3144 28.1828 11.5455 28.2869 11.8239C28.3911 12.1004 28.4432 12.4242 28.4432 12.7955V13.1278H24.7585V12.3778H27.304C27.304 12.2036 27.2661 12.0492 27.1903 11.9148C27.1146 11.7803 27.0095 11.6752 26.875 11.5994C26.7424 11.5218 26.5881 11.483 26.4119 11.483C26.2282 11.483 26.0653 11.5256 25.9233 11.6108C25.7831 11.6941 25.6733 11.8068 25.5938 11.9489C25.5142 12.089 25.4735 12.2453 25.4716 12.4176V13.1307C25.4716 13.3466 25.5114 13.5331 25.5909 13.6903C25.6723 13.8475 25.7869 13.9688 25.9347 14.054C26.0824 14.1392 26.2576 14.1818 26.4602 14.1818C26.5947 14.1818 26.7178 14.1629 26.8295 14.125C26.9413 14.0871 27.0369 14.0303 27.1165 13.9545C27.196 13.8788 27.2566 13.786 27.2983 13.6761L28.4176 13.75C28.3608 14.0189 28.2443 14.2538 28.0682 14.4545C27.8939 14.6534 27.6686 14.8087 27.392 14.9205C27.1174 15.0303 26.8002 15.0852 26.4403 15.0852ZM30.4432 9.18182V15H29.233V9.18182H30.4432ZM31.4126 15V10.6364H32.6229V15H31.4126ZM32.0206 10.0739C31.8407 10.0739 31.6863 10.0142 31.5575 9.89489C31.4306 9.77367 31.3672 9.62879 31.3672 9.46023C31.3672 9.29356 31.4306 9.15057 31.5575 9.03125C31.6863 8.91004 31.8407 8.84943 32.0206 8.84943C32.2005 8.84943 32.3539 8.91004 32.4808 9.03125C32.6096 9.15057 32.674 9.29356 32.674 9.46023C32.674 9.62879 32.6096 9.77367 32.4808 9.89489C32.3539 10.0142 32.2005 10.0739 32.0206 10.0739ZM34.6037 10.6364L35.4048 12.1619L36.2259 10.6364H37.4673L36.2031 12.8182L37.5014 15H36.2656L35.4048 13.4915L34.5582 15H33.3082L34.6037 12.8182L33.3537 10.6364H34.6037Z" fill="url(#paint3_linear_5_79)"/>
<path d="M40.4979 15H39.7592L41.8956 9.18182H42.6229L44.7592 15H44.0206L42.282 10.1023H42.2365L40.4979 15ZM40.7706 12.7273H43.7479V13.3523H40.7706V12.7273ZM48.6655 11.6136L48.0632 11.7841C48.0253 11.6837 47.9695 11.5862 47.8956 11.4915C47.8236 11.3949 47.7251 11.3153 47.6001 11.2528C47.4751 11.1903 47.3151 11.1591 47.12 11.1591C46.853 11.1591 46.6304 11.2206 46.4524 11.3438C46.2763 11.465 46.1882 11.6193 46.1882 11.8068C46.1882 11.9735 46.2488 12.1051 46.37 12.2017C46.4912 12.2983 46.6806 12.3788 46.9382 12.4432L47.5859 12.6023C47.9761 12.697 48.2668 12.8419 48.4581 13.0369C48.6494 13.2301 48.745 13.4792 48.745 13.7841C48.745 14.0341 48.6731 14.2576 48.5291 14.4545C48.3871 14.6515 48.1882 14.8068 47.9325 14.9205C47.6768 15.0341 47.3795 15.0909 47.0405 15.0909C46.5954 15.0909 46.227 14.9943 45.9354 14.8011C45.6437 14.608 45.459 14.3258 45.3814 13.9545L46.0178 13.7955C46.0784 14.0303 46.1929 14.2064 46.3615 14.3239C46.532 14.4413 46.7545 14.5 47.0291 14.5C47.3416 14.5 47.5897 14.4337 47.7734 14.3011C47.959 14.1667 48.0518 14.0057 48.0518 13.8182C48.0518 13.6667 47.9988 13.5398 47.8928 13.4375C47.7867 13.3333 47.6238 13.2557 47.4041 13.2045L46.6768 13.0341C46.2772 12.9394 45.9837 12.7926 45.7962 12.5938C45.6106 12.393 45.5178 12.142 45.5178 11.8409C45.5178 11.5947 45.5869 11.3769 45.7251 11.1875C45.8653 10.9981 46.0556 10.8494 46.2962 10.7415C46.5386 10.6335 46.8132 10.5795 47.12 10.5795C47.5518 10.5795 47.8909 10.6742 48.1371 10.8636C48.3852 11.053 48.5613 11.303 48.6655 11.6136ZM52.8452 11.6136L52.2429 11.7841C52.205 11.6837 52.1491 11.5862 52.0753 11.4915C52.0033 11.3949 51.9048 11.3153 51.7798 11.2528C51.6548 11.1903 51.4948 11.1591 51.2997 11.1591C51.0327 11.1591 50.8101 11.2206 50.6321 11.3438C50.456 11.465 50.3679 11.6193 50.3679 11.8068C50.3679 11.9735 50.4285 12.1051 50.5497 12.2017C50.6709 12.2983 50.8603 12.3788 51.1179 12.4432L51.7656 12.6023C52.1558 12.697 52.4465 12.8419 52.6378 13.0369C52.8291 13.2301 52.9247 13.4792 52.9247 13.7841C52.9247 14.0341 52.8527 14.2576 52.7088 14.4545C52.5668 14.6515 52.3679 14.8068 52.1122 14.9205C51.8565 15.0341 51.5592 15.0909 51.2202 15.0909C50.7751 15.0909 50.4067 14.9943 50.1151 14.8011C49.8234 14.608 49.6387 14.3258 49.5611 13.9545L50.1974 13.7955C50.258 14.0303 50.3726 14.2064 50.5412 14.3239C50.7116 14.4413 50.9342 14.5 51.2088 14.5C51.5213 14.5 51.7694 14.4337 51.9531 14.3011C52.1387 14.1667 52.2315 14.0057 52.2315 13.8182C52.2315 13.6667 52.1785 13.5398 52.0724 13.4375C51.9664 13.3333 51.8035 13.2557 51.5838 13.2045L50.8565 13.0341C50.4569 12.9394 50.1634 12.7926 49.9759 12.5938C49.7902 12.393 49.6974 12.142 49.6974 11.8409C49.6974 11.5947 49.7666 11.3769 49.9048 11.1875C50.045 10.9981 50.2353 10.8494 50.4759 10.7415C50.7183 10.6335 50.9929 10.5795 51.2997 10.5795C51.7315 10.5795 52.0705 10.6742 52.3168 10.8636C52.5649 11.053 52.741 11.303 52.8452 11.6136ZM55.7635 15.0909C55.343 15.0909 54.9804 14.9981 54.6754 14.8125C54.3724 14.625 54.1385 14.3636 53.9737 14.0284C53.8108 13.6913 53.7294 13.2992 53.7294 12.8523C53.7294 12.4053 53.8108 12.0114 53.9737 11.6705C54.1385 11.3277 54.3677 11.0606 54.6612 10.8693C54.9567 10.6761 55.3014 10.5795 55.6953 10.5795C55.9226 10.5795 56.147 10.6174 56.3686 10.6932C56.5902 10.7689 56.7919 10.892 56.9737 11.0625C57.1555 11.2311 57.3004 11.4545 57.4084 11.733C57.5163 12.0114 57.5703 12.3542 57.5703 12.7614V13.0455H54.2067V12.4659H56.8885C56.8885 12.2197 56.8393 12 56.7408 11.8068C56.6442 11.6136 56.5059 11.4612 56.326 11.3494C56.148 11.2377 55.9377 11.1818 55.6953 11.1818C55.4283 11.1818 55.1972 11.2481 55.0021 11.3807C54.8089 11.5114 54.6603 11.6818 54.5561 11.892C54.4519 12.1023 54.3999 12.3277 54.3999 12.5682V12.9545C54.3999 13.2841 54.4567 13.5634 54.5703 13.7926C54.6858 14.0199 54.8459 14.1932 55.0504 14.3125C55.255 14.4299 55.4927 14.4886 55.7635 14.4886C55.9396 14.4886 56.0987 14.464 56.2408 14.4148C56.3847 14.3636 56.5088 14.2879 56.6129 14.1875C56.7171 14.0852 56.7976 13.9583 56.8544 13.8068L57.5021 13.9886C57.4339 14.2083 57.3194 14.4015 57.1584 14.5682C56.9974 14.733 56.7985 14.8617 56.5618 14.9545C56.325 15.0455 56.0589 15.0909 55.7635 15.0909ZM60.4879 10.6364V11.2045H58.2266V10.6364H60.4879ZM58.8857 9.59091H59.5561V13.75C59.5561 13.9394 59.5836 14.0814 59.6385 14.1761C59.6953 14.2689 59.7673 14.3314 59.8544 14.3636C59.9434 14.3939 60.0372 14.4091 60.1357 14.4091C60.2095 14.4091 60.2701 14.4053 60.3175 14.3977C60.3648 14.3883 60.4027 14.3807 60.4311 14.375L60.5675 14.9773C60.522 14.9943 60.4586 15.0114 60.3771 15.0284C60.2957 15.0473 60.1925 15.0568 60.0675 15.0568C59.8781 15.0568 59.6925 15.0161 59.5107 14.9347C59.3307 14.8532 59.1811 14.7292 59.0618 14.5625C58.9444 14.3958 58.8857 14.1856 58.8857 13.9318V9.59091ZM64.5092 11.6136L63.907 11.7841C63.8691 11.6837 63.8132 11.5862 63.7393 11.4915C63.6674 11.3949 63.5689 11.3153 63.4439 11.2528C63.3189 11.1903 63.1589 11.1591 62.9638 11.1591C62.6967 11.1591 62.4742 11.2206 62.2962 11.3438C62.12 11.465 62.032 11.6193 62.032 11.8068C62.032 11.9735 62.0926 12.1051 62.2138 12.2017C62.335 12.2983 62.5244 12.3788 62.782 12.4432L63.4297 12.6023C63.8198 12.697 64.1106 12.8419 64.3018 13.0369C64.4931 13.2301 64.5888 13.4792 64.5888 13.7841C64.5888 14.0341 64.5168 14.2576 64.3729 14.4545C64.2308 14.6515 64.032 14.8068 63.7763 14.9205C63.5206 15.0341 63.2232 15.0909 62.8842 15.0909C62.4392 15.0909 62.0708 14.9943 61.7791 14.8011C61.4875 14.608 61.3028 14.3258 61.2251 13.9545L61.8615 13.7955C61.9221 14.0303 62.0367 14.2064 62.2053 14.3239C62.3757 14.4413 62.5982 14.5 62.8729 14.5C63.1854 14.5 63.4335 14.4337 63.6172 14.3011C63.8028 14.1667 63.8956 14.0057 63.8956 13.8182C63.8956 13.6667 63.8426 13.5398 63.7365 13.4375C63.6304 13.3333 63.4676 13.2557 63.2479 13.2045L62.5206 13.0341C62.121 12.9394 61.8274 12.7926 61.6399 12.5938C61.4543 12.393 61.3615 12.142 61.3615 11.8409C61.3615 11.5947 61.4306 11.3769 61.5689 11.1875C61.709 10.9981 61.8994 10.8494 62.1399 10.7415C62.3823 10.6335 62.657 10.5795 62.9638 10.5795C63.3956 10.5795 63.7346 10.6742 63.9808 10.8636C64.2289 11.053 64.4051 11.303 64.5092 11.6136Z" fill="white"/>
</g>
<rect x="0.5" y="0.5" width="70" height="23" rx="3.5" stroke="white" stroke-opacity="0.02"/>
<defs>
<filter id="filter0_d_5_79" x="5.375" y="4.375" width="9.25" height="15.25" filterUnits="userSpaceOnUse" color-interpolation-filters="sRGB">
<feFlood flood-opacity="0" result="BackgroundImageFix"/>
<feColorMatrix in="SourceAlpha" type="matrix" values="0 0 0 0 0 0 0 0 0 0 0 0 0 0 0 0 0 0 127 0" result="hardAlpha"/>
<feOffset/>
<feGaussianBlur stdDeviation="0.5"/>
<feComposite in2="hardAlpha" operator="out"/>
<feColorMatrix type="matrix" values="0 0 0 0 0 0 0 0 0 0 0 0 0 0 0 0 0 0 0.1 0"/>
<feBlend mode="normal" in2="BackgroundImageFix" result="effect1_dropShadow_5_79"/>
<feBlend mode="normal" in="SourceGraphic" in2="effect1_dropShadow_5_79" result="shape"/>
</filter>
<filter id="filter1_dii_5_79" x="5.375" y="4.375" width="9.25" height="15.25" filterUnits="userSpaceOnUse" color-interpolation-filters="sRGB">
<feFlood flood-opacity="0" result="BackgroundImageFix"/>
<feColorMatrix in="SourceAlpha" type="matrix" values="0 0 0 0 0 0 0 0 0 0 0 0 0 0 0 0 0 0 127 0" result="hardAlpha"/>
<feOffset/>
<feGaussianBlur stdDeviation="0.5"/>
<feComposite in2="hardAlpha" operator="out"/>
<feColorMatrix type="matrix" values="0 0 0 0 0 0 0 0 0 0 0 0 0 0 0 0 0 0 0.25 0"/>
<feBlend mode="normal" in2="BackgroundImageFix" result="effect1_dropShadow_5_79"/>
<feBlend mode="normal" in="SourceGraphic" in2="effect1_dropShadow_5_79" result="shape"/>
<feColorMatrix in="SourceAlpha" type="matrix" values="0 0 0 0 0 0 0 0 0 0 0 0 0 0 0 0 0 0 127 0" result="hardAlpha"/>
<feOffset/>
<feGaussianBlur stdDeviation="0.25"/>
<feComposite in2="hardAlpha" operator="arithmetic" k2="-1" k3="1"/>
<feColorMatrix type="matrix" values="0 0 0 0 0 0 0 0 0 0 0 0 0 0 0 0 0 0 0.2 0"/>
<feBlend mode="normal" in2="shape" result="effect2_innerShadow_5_79"/>
<feColorMatrix in="SourceAlpha" type="matrix" values="0 0 0 0 0 0 0 0 0 0 0 0 0 0 0 0 0 0 127 0" result="hardAlpha"/>
<feOffset/>
<feGaussianBlur stdDeviation="0.1"/>
<feComposite in2="hardAlpha" operator="arithmetic" k2="-1" k3="1"/>
<feColorMatrix type="matrix" values="0 0 0 0 1 0 0 0 0 1 0 0 0 0 1 0 0 0 0.3 0"/>
<feBlend mode="normal" in2="effect2_innerShadow_5_79" result="effect3_innerShadow_5_79"/>
</filter>
<filter id="filter2_dii_5_79" x="5.375" y="4.375" width="9.25" height="15.25" filterUnits="userSpaceOnUse" color-interpolation-filters="sRGB">
<feFlood flood-opacity="0" result="BackgroundImageFix"/>
<feColorMatrix in="SourceAlpha" type="matrix" values="0 0 0 0 0 0 0 0 0 0 0 0 0 0 0 0 0 0 127 0" result="hardAlpha"/>
<feOffset/>
<feGaussianBlur stdDeviation="0.5"/>
<feComposite in2="hardAlpha" operator="out"/>
<feColorMatrix type="matrix" values="0 0 0 0 0 0 0 0 0 0 0 0 0 0 0 0 0 0 0.25 0"/>
<feBlend mode="normal" in2="BackgroundImageFix" result="effect1_dropShadow_5_79"/>
<feBlend mode="normal" in="SourceGraphic" in2="effect1_dropShadow_5_79" result="shape"/>
<feColorMatrix in="SourceAlpha" type="matrix" values="0 0 0 0 0 0 0 0 0 0 0 0 0 0 0 0 0 0 127 0" result="hardAlpha"/>
<feOffset/>
<feGaussianBlur stdDeviation="0.25"/>
<feComposite in2="hardAlpha" operator="arithmetic" k2="-1" k3="1"/>
<feColorMatrix type="matrix" values="0 0 0 0 0 0 0 0 0 0 0 0 0 0 0 0 0 0 0.2 0"/>
<feBlend mode="normal" in2="shape" result="effect2_innerShadow_5_79"/>
<feColorMatrix in="SourceAlpha" type="matrix" values="0 0 0 0 0 0 0 0 0 0 0 0 0 0 0 0 0 0 127 0" result="hardAlpha"/>
<feOffset/>
<feGaussianBlur stdDeviation="0.1"/>
<feComposite in2="hardAlpha" operator="arithmetic" k2="-1" k3="1"/>
<feColorMatrix type="matrix" values="0 0 0 0 1 0 0 0 0 1 0 0 0 0 1 0 0 0 0.3 0"/>
<feBlend mode="normal" in2="effect2_innerShadow_5_79" result="effect3_innerShadow_5_79"/>
</filter>
<filter id="filter3_d_5_79" x="17.5057" y="7.84943" width="48.0831" height="8.24149" filterUnits="userSpaceOnUse" color-interpolation-filters="sRGB">
<feFlood flood-opacity="0" result="BackgroundImageFix"/>
<feColorMatrix in="SourceAlpha" type="matrix" values="0 0 0 0 0 0 0 0 0 0 0 0 0 0 0 0 0 0 127 0" result="hardAlpha"/>
<feOffset/>
<feGaussianBlur stdDeviation="0.5"/>
<feComposite in2="hardAlpha" operator="out"/>
<feColorMatrix type="matrix" values="0 0 0 0 0 0 0 0 0 0 0 0 0 0 0 0 0 0 0.35 0"/>
<feBlend mode="normal" in2="BackgroundImageFix" result="effect1_dropShadow_5_79"/>
<feBlend mode="normal" in="SourceGraphic" in2="effect1_dropShadow_5_79" result="shape"/>
</filter>
<linearGradient id="paint0_linear_5_79" x1="18.3047" y1="-16.5" x2="33.1608" y2="45.0291" gradientUnits="userSpaceOnUse">
<stop stop-color="#332A32"/>
<stop offset="0.25" stop-color="#242531"/>
<stop offset="0.5" stop-color="#1B2C1E"/>
<stop offset="0.75" stop-color="#2B2C18"/>
<stop offset="1" stop-color="#371818"/>
</linearGradient>
<linearGradient id="paint1_linear_5_79" x1="10" y1="6" x2="10" y2="18" gradientUnits="userSpaceOnUse">
<stop stop-color="#EB60DD"/>
<stop offset="0.489583" stop-color="#6066EA"/>
<stop offset="0.958333" stop-color="#69EC7E"/>
</linearGradient>
<linearGradient id="paint2_linear_5_79" x1="10" y1="6" x2="10" y2="18" gradientUnits="userSpaceOnUse">
<stop stop-color="#DEE154"/>
<stop offset="1" stop-color="#E75A5A"/>
</linearGradient>
<linearGradient id="paint3_linear_5_79" x1="18.5" y1="9" x2="30.8044" y2="21.5596" gradientUnits="userSpaceOnUse">
<stop stop-color="#E75A5A"/>
<stop offset="0.5" stop-color="#69EC7E"/>
<stop offset="1" stop-color="#6066EA"/>
</linearGradient>
</defs>
</svg>
