<svg width="79" height="28" viewBox="0 0 79 28" fill="none" xmlns="http://www.w3.org/2000/svg">
<rect width="79" height="28" rx="4" fill="url(#paint0_linear_5_79)"/>
<g filter="url(#filter0_dii_5_79)">
<path d="M17.75 21.5C17.75 21 17.75 22.4 17.75 20C17.75 15.5 10.25 12.5 10.25 8C10.25 5.6 10.25 7.25 10.25 6.5" stroke="url(#paint1_linear_5_79)" stroke-width="1.5625" stroke-linecap="round"/>
</g>
<g filter="url(#filter1_dii_5_79)">
<path d="M10.25 21.5C10.25 21 10.25 22.4 10.25 20C10.25 15.5 17.75 12.5 17.75 8C17.75 5.6 17.75 7.25 17.75 6.5" stroke="url(#paint2_linear_5_79)" stroke-width="1.5625" stroke-linecap="round"/>
</g>
<g filter="url(#filter2_d_5_79)">
<path d="M24.5057 17V11.1818H25.7358V13.5824H28.233V11.1818H29.4602V17H28.233V14.5966H25.7358V17H24.5057ZM32.4403 17.0852C31.9915 17.0852 31.6051 16.9943 31.2812 16.8125C30.9593 16.6288 30.7112 16.3693 30.5369 16.0341C30.3627 15.697 30.2756 15.2983 30.2756 14.8381C30.2756 14.3892 30.3627 13.9953 30.5369 13.6562C30.7112 13.3172 30.9564 13.053 31.2727 12.8636C31.5909 12.6742 31.964 12.5795 32.392 12.5795C32.6799 12.5795 32.9479 12.6259 33.196 12.7188C33.446 12.8097 33.6638 12.947 33.8494 13.1307C34.0369 13.3144 34.1828 13.5455 34.2869 13.8239C34.3911 14.1004 34.4432 14.4242 34.4432 14.7955V15.1278H30.7585V14.3778H33.304C33.304 14.2036 33.2661 14.0492 33.1903 13.9148C33.1146 13.7803 33.0095 13.6752 32.875 13.5994C32.7424 13.5218 32.5881 13.483 32.4119 13.483C32.2282 13.483 32.0653 13.5256 31.9233 13.6108C31.7831 13.6941 31.6733 13.8068 31.5938 13.9489C31.5142 14.089 31.4735 14.2453 31.4716 14.4176V15.1307C31.4716 15.3466 31.5114 15.5331 31.5909 15.6903C31.6723 15.8475 31.7869 15.9688 31.9347 16.054C32.0824 16.1392 32.2576 16.1818 32.4602 16.1818C32.5947 16.1818 32.7178 16.1629 32.8295 16.125C32.9413 16.0871 33.0369 16.0303 33.1165 15.9545C33.196 15.8788 33.2566 15.786 33.2983 15.6761L34.4176 15.75C34.3608 16.0189 34.2443 16.2538 34.0682 16.4545C33.8939 16.6534 33.6686 16.8087 33.392 16.9205C33.1174 17.0303 32.8002 17.0852 32.4403 17.0852ZM36.4432 11.1818V17H35.233V11.1818H36.4432ZM37.4126 17V12.6364H38.6229V17H37.4126ZM38.0206 12.0739C37.8407 12.0739 37.6863 12.0142 37.5575 11.8949C37.4306 11.7737 37.3672 11.6288 37.3672 11.4602C37.3672 11.2936 37.4306 11.1506 37.5575 11.0312C37.6863 10.91 37.8407 10.8494 38.0206 10.8494C38.2005 10.8494 38.3539 10.91 38.4808 11.0312C38.6096 11.1506 38.674 11.2936 38.674 11.4602C38.674 11.6288 38.6096 11.7737 38.4808 11.8949C38.3539 12.0142 38.2005 12.0739 38.0206 12.0739ZM40.6037 12.6364L41.4048 14.1619L42.2259 12.6364H43.4673L42.2031 14.8182L43.5014 17H42.2656L41.4048 15.4915L40.5582 17H39.3082L40.6037 14.8182L39.3537 12.6364H40.6037Z" fill="url(#paint3_linear_5_79)"/>
<path d="M46.4979 17H45.7592L47.8956 11.1818H48.6229L50.7592 17H50.0206L48.282 12.1023H48.2365L46.4979 17ZM46.7706 14.7273H49.7479V15.3523H46.7706V14.7273ZM54.6655 13.6136L54.0632 13.7841C54.0253 13.6837 53.9695 13.5862 53.8956 13.4915C53.8236 13.3949 53.7251 13.3153 53.6001 13.2528C53.4751 13.1903 53.3151 13.1591 53.12 13.1591C52.853 13.1591 52.6304 13.2206 52.4524 13.3438C52.2763 13.465 52.1882 13.6193 52.1882 13.8068C52.1882 13.9735 52.2488 14.1051 52.37 14.2017C52.4912 14.2983 52.6806 14.3788 52.9382 14.4432L53.5859 14.6023C53.9761 14.697 54.2668 14.8419 54.4581 15.0369C54.6494 15.2301 54.745 15.4792 54.745 15.7841C54.745 16.0341 54.6731 16.2576 54.5291 16.4545C54.3871 16.6515 54.1882 16.8068 53.9325 16.9205C53.6768 17.0341 53.3795 17.0909 53.0405 17.0909C52.5954 17.0909 52.227 16.9943 51.9354 16.8011C51.6437 16.608 51.459 16.3258 51.3814 15.9545L52.0178 15.7955C52.0784 16.0303 52.1929 16.2064 52.3615 16.3239C52.532 16.4413 52.7545 16.5 53.0291 16.5C53.3416 16.5 53.5897 16.4337 53.7734 16.3011C53.959 16.1667 54.0518 16.0057 54.0518 15.8182C54.0518 15.6667 53.9988 15.5398 53.8928 15.4375C53.7867 15.3333 53.6238 15.2557 53.4041 15.2045L52.6768 15.0341C52.2772 14.9394 51.9837 14.7926 51.7962 14.5938C51.6106 14.393 51.5178 14.142 51.5178 13.8409C51.5178 13.5947 51.5869 13.3769 51.7251 13.1875C51.8653 12.9981 52.0556 12.8494 52.2962 12.7415C52.5386 12.6335 52.8132 12.5795 53.12 12.5795C53.5518 12.5795 53.8909 12.6742 54.1371 12.8636C54.3852 13.053 54.5613 13.303 54.6655 13.6136ZM58.8452 13.6136L58.2429 13.7841C58.205 13.6837 58.1491 13.5862 58.0753 13.4915C58.0033 13.3949 57.9048 13.3153 57.7798 13.2528C57.6548 13.1903 57.4948 13.1591 57.2997 13.1591C57.0327 13.1591 56.8101 13.2206 56.6321 13.3438C56.456 13.465 56.3679 13.6193 56.3679 13.8068C56.3679 13.9735 56.4285 14.1051 56.5497 14.2017C56.6709 14.2983 56.8603 14.3788 57.1179 14.4432L57.7656 14.6023C58.1558 14.697 58.4465 14.8419 58.6378 15.0369C58.8291 15.2301 58.9247 15.4792 58.9247 15.7841C58.9247 16.0341 58.8527 16.2576 58.7088 16.4545C58.5668 16.6515 58.3679 16.8068 58.1122 16.9205C57.8565 17.0341 57.5592 17.0909 57.2202 17.0909C56.7751 17.0909 56.4067 16.9943 56.1151 16.8011C55.8234 16.608 55.6387 16.3258 55.5611 15.9545L56.1974 15.7955C56.258 16.0303 56.3726 16.2064 56.5412 16.3239C56.7116 16.4413 56.9342 16.5 57.2088 16.5C57.5213 16.5 57.7694 16.4337 57.9531 16.3011C58.1387 16.1667 58.2315 16.0057 58.2315 15.8182C58.2315 15.6667 58.1785 15.5398 58.0724 15.4375C57.9664 15.3333 57.8035 15.2557 57.5838 15.2045L56.8565 15.0341C56.4569 14.9394 56.1634 14.7926 55.9759 14.5938C55.7902 14.393 55.6974 14.142 55.6974 13.8409C55.6974 13.5947 55.7666 13.3769 55.9048 13.1875C56.045 12.9981 56.2353 12.8494 56.4759 12.7415C56.7183 12.6335 56.9929 12.5795 57.2997 12.5795C57.7315 12.5795 58.0705 12.6742 58.3168 12.8636C58.5649 13.053 58.741 13.303 58.8452 13.6136ZM61.7635 17.0909C61.343 17.0909 60.9804 16.9981 60.6754 16.8125C60.3724 16.625 60.1385 16.3636 59.9737 16.0284C59.8108 15.6913 59.7294 15.2992 59.7294 14.8523C59.7294 14.4053 59.8108 14.0114 59.9737 13.6705C60.1385 13.3277 60.3677 13.0606 60.6612 12.8693C60.9567 12.6761 61.3014 12.5795 61.6953 12.5795C61.9226 12.5795 62.147 12.6174 62.3686 12.6932C62.5902 12.7689 62.7919 12.892 62.9737 13.0625C63.1555 13.2311 63.3004 13.4545 63.4084 13.733C63.5163 14.0114 63.5703 14.3542 63.5703 14.7614V15.0455H60.2067V14.4659H62.8885C62.8885 14.2197 62.8393 14 62.7408 13.8068C62.6442 13.6136 62.5059 13.4612 62.326 13.3494C62.148 13.2377 61.9377 13.1818 61.6953 13.1818C61.4283 13.1818 61.1972 13.2481 61.0021 13.3807C60.8089 13.5114 60.6603 13.6818 60.5561 13.892C60.4519 14.1023 60.3999 14.3277 60.3999 14.5682V14.9545C60.3999 15.2841 60.4567 15.5634 60.5703 15.7926C60.6858 16.0199 60.8459 16.1932 61.0504 16.3125C61.255 16.4299 61.4927 16.4886 61.7635 16.4886C61.9396 16.4886 62.0987 16.464 62.2408 16.4148C62.3847 16.3636 62.5088 16.2879 62.6129 16.1875C62.7171 16.0852 62.7976 15.9583 62.8544 15.8068L63.5021 15.9886C63.4339 16.2083 63.3194 16.4015 63.1584 16.5682C62.9974 16.733 62.7985 16.8617 62.5618 16.9545C62.325 17.0455 62.0589 17.0909 61.7635 17.0909ZM66.4879 12.6364V13.2045H64.2266V12.6364H66.4879ZM64.8857 11.5909H65.5561V15.75C65.5561 15.9394 65.5836 16.0814 65.6385 16.1761C65.6953 16.2689 65.7673 16.3314 65.8544 16.3636C65.9434 16.3939 66.0372 16.4091 66.1357 16.4091C66.2095 16.4091 66.2701 16.4053 66.3175 16.3977C66.3648 16.3883 66.4027 16.3807 66.4311 16.375L66.5675 16.9773C66.522 16.9943 66.4586 17.0114 66.3771 17.0284C66.2957 17.0473 66.1925 17.0568 66.0675 17.0568C65.8781 17.0568 65.6925 17.0161 65.5107 16.9347C65.3307 16.8532 65.1811 16.7292 65.0618 16.5625C64.9444 16.3958 64.8857 16.1856 64.8857 15.9318V11.5909ZM70.5092 13.6136L69.907 13.7841C69.8691 13.6837 69.8132 13.5862 69.7393 13.4915C69.6674 13.3949 69.5689 13.3153 69.4439 13.2528C69.3189 13.1903 69.1589 13.1591 68.9638 13.1591C68.6967 13.1591 68.4742 13.2206 68.2962 13.3438C68.12 13.465 68.032 13.6193 68.032 13.8068C68.032 13.9735 68.0926 14.1051 68.2138 14.2017C68.335 14.2983 68.5244 14.3788 68.782 14.4432L69.4297 14.6023C69.8198 14.697 70.1106 14.8419 70.3018 15.0369C70.4931 15.2301 70.5888 15.4792 70.5888 15.7841C70.5888 16.0341 70.5168 16.2576 70.3729 16.4545C70.2308 16.6515 70.032 16.8068 69.7763 16.9205C69.5206 17.0341 69.2232 17.0909 68.8842 17.0909C68.4392 17.0909 68.0708 16.9943 67.7791 16.8011C67.4875 16.608 67.3028 16.3258 67.2251 15.9545L67.8615 15.7955C67.9221 16.0303 68.0367 16.2064 68.2053 16.3239C68.3757 16.4413 68.5982 16.5 68.8729 16.5C69.1854 16.5 69.4335 16.4337 69.6172 16.3011C69.8028 16.1667 69.8956 16.0057 69.8956 15.8182C69.8956 15.6667 69.8426 15.5398 69.7365 15.4375C69.6304 15.3333 69.4676 15.2557 69.2479 15.2045L68.5206 15.0341C68.121 14.9394 67.8274 14.7926 67.6399 14.5938C67.4543 14.393 67.3615 14.142 67.3615 13.8409C67.3615 13.5947 67.4306 13.3769 67.5689 13.1875C67.709 12.9981 67.8994 12.8494 68.1399 12.7415C68.3823 12.6335 68.657 12.5795 68.9638 12.5795C69.3956 12.5795 69.7346 12.6742 69.9808 12.8636C70.2289 13.053 70.4051 13.303 70.5092 13.6136Z" fill="white"/>
</g>
<rect x="0.5" y="0.5" width="78" height="27" rx="3.5" stroke="white" stroke-opacity="0.02"/>
<defs>
<filter id="filter0_dii_5_79" x="8.21875" y="4.46875" width="11.5625" height="19.0625" filterUnits="userSpaceOnUse" color-interpolation-filters="sRGB">
<feFlood flood-opacity="0" result="BackgroundImageFix"/>
<feColorMatrix in="SourceAlpha" type="matrix" values="0 0 0 0 0 0 0 0 0 0 0 0 0 0 0 0 0 0 127 0" result="hardAlpha"/>
<feOffset/>
<feGaussianBlur stdDeviation="0.625"/>
<feComposite in2="hardAlpha" operator="out"/>
<feColorMatrix type="matrix" values="0 0 0 0 0 0 0 0 0 0 0 0 0 0 0 0 0 0 0.25 0"/>
<feBlend mode="normal" in2="BackgroundImageFix" result="effect1_dropShadow_5_79"/>
<feBlend mode="normal" in="SourceGraphic" in2="effect1_dropShadow_5_79" result="shape"/>
<feColorMatrix in="SourceAlpha" type="matrix" values="0 0 0 0 0 0 0 0 0 0 0 0 0 0 0 0 0 0 127 0" result="hardAlpha"/>
<feOffset/>
<feGaussianBlur stdDeviation="0.3125"/>
<feComposite in2="hardAlpha" operator="arithmetic" k2="-1" k3="1"/>
<feColorMatrix type="matrix" values="0 0 0 0 0 0 0 0 0 0 0 0 0 0 0 0 0 0 0.2 0"/>
<feBlend mode="normal" in2="shape" result="effect2_innerShadow_5_79"/>
<feColorMatrix in="SourceAlpha" type="matrix" values="0 0 0 0 0 0 0 0 0 0 0 0 0 0 0 0 0 0 127 0" result="hardAlpha"/>
<feOffset/>
<feGaussianBlur stdDeviation="0.125"/>
<feComposite in2="hardAlpha" operator="arithmetic" k2="-1" k3="1"/>
<feColorMatrix type="matrix" values="0 0 0 0 1 0 0 0 0 1 0 0 0 0 1 0 0 0 0.3 0"/>
<feBlend mode="normal" in2="effect2_innerShadow_5_79" result="effect3_innerShadow_5_79"/>
</filter>
<filter id="filter1_dii_5_79" x="8.21875" y="4.46875" width="11.5625" height="19.0625" filterUnits="userSpaceOnUse" color-interpolation-filters="sRGB">
<feFlood flood-opacity="0" result="BackgroundImageFix"/>
<feColorMatrix in="SourceAlpha" type="matrix" values="0 0 0 0 0 0 0 0 0 0 0 0 0 0 0 0 0 0 127 0" result="hardAlpha"/>
<feOffset/>
<feGaussianBlur stdDeviation="0.625"/>
<feComposite in2="hardAlpha" operator="out"/>
<feColorMatrix type="matrix" values="0 0 0 0 0 0 0 0 0 0 0 0 0 0 0 0 0 0 0.25 0"/>
<feBlend mode="normal" in2="BackgroundImageFix" result="effect1_dropShadow_5_79"/>
<feBlend mode="normal" in="SourceGraphic" in2="effect1_dropShadow_5_79" result="shape"/>
<feColorMatrix in="SourceAlpha" type="matrix" values="0 0 0 0 0 0 0 0 0 0 0 0 0 0 0 0 0 0 127 0" result="hardAlpha"/>
<feOffset/>
<feGaussianBlur stdDeviation="0.3125"/>
<feComposite in2="hardAlpha" operator="arithmetic" k2="-1" k3="1"/>
<feColorMatrix type="matrix" values="0 0 0 0 0 0 0 0 0 0 0 0 0 0 0 0 0 0 0.2 0"/>
<feBlend mode="normal" in2="shape" result="effect2_innerShadow_5_79"/>
<feColorMatrix in="SourceAlpha" type="matrix" values="0 0 0 0 0 0 0 0 0 0 0 0 0 0 0 0 0 0 127 0" result="hardAlpha"/>
<feOffset/>
<feGaussianBlur stdDeviation="0.125"/>
<feComposite in2="hardAlpha" operator="arithmetic" k2="-1" k3="1"/>
<feColorMatrix type="matrix" values="0 0 0 0 1 0 0 0 0 1 0 0 0 0 1 0 0 0 0.3 0"/>
<feBlend mode="normal" in2="effect2_innerShadow_5_79" result="effect3_innerShadow_5_79"/>
</filter>
<filter id="filter2_d_5_79" x="23.5057" y="9.84943" width="48.0831" height="8.24148" filterUnits="userSpaceOnUse" color-interpolation-filters="sRGB">
<feFlood flood-opacity="0" result="BackgroundImageFix"/>
<feColorMatrix in="SourceAlpha" type="matrix" values="0 0 0 0 0 0 0 0 0 0 0 0 0 0 0 0 0 0 127 0" result="hardAlpha"/>
<feOffset/>
<feGaussianBlur stdDeviation="0.5"/>
<feComposite in2="hardAlpha" operator="out"/>
<feColorMatrix type="matrix" values="0 0 0 0 0 0 0 0 0 0 0 0 0 0 0 0 0 0 0.35 0"/>
<feBlend mode="normal" in2="BackgroundImageFix" result="effect1_dropShadow_5_79"/>
<feBlend mode="normal" in="SourceGraphic" in2="effect1_dropShadow_5_79" result="shape"/>
</filter>
<linearGradient id="paint0_linear_5_79" x1="20.3672" y1="-19.25" x2="38.4414" y2="52.143" gradientUnits="userSpaceOnUse">
<stop stop-color="#332A32"/>
<stop offset="0.25" stop-color="#242531"/>
<stop offset="0.5" stop-color="#1B2C1E"/>
<stop offset="0.75" stop-color="#2B2C18"/>
<stop offset="1" stop-color="#371818"/>
</linearGradient>
<linearGradient id="paint1_linear_5_79" x1="14" y1="6.5" x2="14" y2="21.5" gradientUnits="userSpaceOnUse">
<stop stop-color="#EB60DD"/>
<stop offset="0.489583" stop-color="#6066EA"/>
<stop offset="0.958333" stop-color="#69EC7E"/>
</linearGradient>
<linearGradient id="paint2_linear_5_79" x1="14" y1="6.5" x2="14" y2="21.5" gradientUnits="userSpaceOnUse">
<stop stop-color="#DEE154"/>
<stop offset="1" stop-color="#E75A5A"/>
</linearGradient>
<linearGradient id="paint3_linear_5_79" x1="24.5" y1="11" x2="36.8044" y2="23.5596" gradientUnits="userSpaceOnUse">
<stop stop-color="#E75A5A"/>
<stop offset="0.5" stop-color="#69EC7E"/>
<stop offset="1" stop-color="#6066EA"/>
</linearGradient>
</defs>
</svg>
