<svg width="118" height="32" viewBox="0 0 118 32" fill="none" xmlns="http://www.w3.org/2000/svg">
<rect width="118" height="32" rx="4" fill="url(#paint0_linear_5_79)"/>
<g filter="url(#filter0_dii_5_79)">
<path d="M28.75 23.5C28.75 23 28.75 24.4 28.75 22C28.75 17.5 21.25 14.5 21.25 10C21.25 7.6 21.25 9.25 21.25 8.5" stroke="url(#paint1_linear_5_79)" stroke-width="1.5625" stroke-linecap="round"/>
</g>
<g filter="url(#filter1_dii_5_79)">
<path d="M21.25 23.5C21.25 23 21.25 24.4 21.25 22C21.25 17.5 28.75 14.5 28.75 10C28.75 7.6 28.75 9.25 28.75 8.5" stroke="url(#paint2_linear_5_79)" stroke-width="1.5625" stroke-linecap="round"/>
</g>
<g filter="url(#filter2_d_5_79)">
<path d="M37.5057 16V10.1818H38.7358V12.5824H41.233V10.1818H42.4602V16H41.233V13.5966H38.7358V16H37.5057ZM45.4403 16.0852C44.9915 16.0852 44.6051 15.9943 44.2812 15.8125C43.9593 15.6288 43.7112 15.3693 43.5369 15.0341C43.3627 14.697 43.2756 14.2983 43.2756 13.8381C43.2756 13.3892 43.3627 12.9953 43.5369 12.6562C43.7112 12.3172 43.9564 12.053 44.2727 11.8636C44.5909 11.6742 44.964 11.5795 45.392 11.5795C45.6799 11.5795 45.9479 11.6259 46.196 11.7188C46.446 11.8097 46.6638 11.947 46.8494 12.1307C47.0369 12.3144 47.1828 12.5455 47.2869 12.8239C47.3911 13.1004 47.4432 13.4242 47.4432 13.7955V14.1278H43.7585V13.3778H46.304C46.304 13.2036 46.2661 13.0492 46.1903 12.9148C46.1146 12.7803 46.0095 12.6752 45.875 12.5994C45.7424 12.5218 45.5881 12.483 45.4119 12.483C45.2282 12.483 45.0653 12.5256 44.9233 12.6108C44.7831 12.6941 44.6733 12.8068 44.5938 12.9489C44.5142 13.089 44.4735 13.2453 44.4716 13.4176V14.1307C44.4716 14.3466 44.5114 14.5331 44.5909 14.6903C44.6723 14.8475 44.7869 14.9688 44.9347 15.054C45.0824 15.1392 45.2576 15.1818 45.4602 15.1818C45.5947 15.1818 45.7178 15.1629 45.8295 15.125C45.9413 15.0871 46.0369 15.0303 46.1165 14.9545C46.196 14.8788 46.2566 14.786 46.2983 14.6761L47.4176 14.75C47.3608 15.0189 47.2443 15.2538 47.0682 15.4545C46.8939 15.6534 46.6686 15.8087 46.392 15.9205C46.1174 16.0303 45.8002 16.0852 45.4403 16.0852ZM49.4432 10.1818V16H48.233V10.1818H49.4432ZM50.4126 16V11.6364H51.6229V16H50.4126ZM51.0206 11.0739C50.8407 11.0739 50.6863 11.0142 50.5575 10.8949C50.4306 10.7737 50.3672 10.6288 50.3672 10.4602C50.3672 10.2936 50.4306 10.1506 50.5575 10.0312C50.6863 9.91004 50.8407 9.84943 51.0206 9.84943C51.2005 9.84943 51.3539 9.91004 51.4808 10.0312C51.6096 10.1506 51.674 10.2936 51.674 10.4602C51.674 10.6288 51.6096 10.7737 51.4808 10.8949C51.3539 11.0142 51.2005 11.0739 51.0206 11.0739ZM53.6037 11.6364L54.4048 13.1619L55.2259 11.6364H56.4673L55.2031 13.8182L56.5014 16H55.2656L54.4048 14.4915L53.5582 16H52.3082L53.6037 13.8182L52.3537 11.6364H53.6037Z" fill="url(#paint3_linear_5_79)"/>
<path d="M37.7045 23V17.1818H39.7386C40.1439 17.1818 40.4782 17.2519 40.7415 17.392C41.0047 17.5303 41.2008 17.7169 41.3295 17.9517C41.4583 18.1847 41.5227 18.4432 41.5227 18.7273C41.5227 18.9773 41.4782 19.1837 41.3892 19.3466C41.3021 19.5095 41.1866 19.6383 41.0426 19.733C40.9006 19.8277 40.7462 19.8977 40.5795 19.9432V20C40.7576 20.0114 40.9366 20.0739 41.1165 20.1875C41.2964 20.3011 41.447 20.464 41.5682 20.6761C41.6894 20.8883 41.75 21.1477 41.75 21.4545C41.75 21.7462 41.6837 22.0085 41.5511 22.2415C41.4186 22.4744 41.2093 22.6591 40.9233 22.7955C40.6373 22.9318 40.2652 23 39.8068 23H37.7045ZM38.4091 22.375H39.8068C40.267 22.375 40.5938 22.286 40.7869 22.108C40.982 21.928 41.0795 21.7102 41.0795 21.4545C41.0795 21.2576 41.0294 21.0758 40.929 20.9091C40.8286 20.7405 40.6856 20.6061 40.5 20.5057C40.3144 20.4034 40.0947 20.3523 39.8409 20.3523H38.4091V22.375ZM38.4091 19.7386H39.7159C39.928 19.7386 40.1193 19.697 40.2898 19.6136C40.4621 19.5303 40.5985 19.4129 40.6989 19.2614C40.8011 19.1098 40.8523 18.9318 40.8523 18.7273C40.8523 18.4716 40.7633 18.2547 40.5852 18.0767C40.4072 17.8968 40.125 17.8068 39.7386 17.8068H38.4091V19.7386ZM42.8168 23V18.6364H43.4645V19.2955H43.5099C43.5895 19.0795 43.7334 18.9044 43.9418 18.7699C44.1501 18.6354 44.3849 18.5682 44.6463 18.5682C44.6955 18.5682 44.7571 18.5691 44.831 18.571C44.9048 18.5729 44.9607 18.5758 44.9986 18.5795V19.2614C44.9759 19.2557 44.9238 19.2472 44.8423 19.2358C44.7628 19.2225 44.6785 19.2159 44.5895 19.2159C44.3774 19.2159 44.188 19.2604 44.0213 19.3494C43.8565 19.4366 43.7259 19.5578 43.6293 19.7131C43.5346 19.8665 43.4872 20.0417 43.4872 20.2386V23H42.8168ZM47.0774 23.1023C46.8009 23.1023 46.55 23.0502 46.3246 22.946C46.0992 22.84 45.9202 22.6875 45.7876 22.4886C45.6551 22.2879 45.5888 22.0455 45.5888 21.7614C45.5888 21.5114 45.638 21.3087 45.7365 21.1534C45.835 20.9962 45.9666 20.8731 46.1314 20.7841C46.2962 20.6951 46.478 20.6288 46.6768 20.5852C46.8776 20.5398 47.0793 20.5038 47.282 20.4773C47.5471 20.4432 47.7621 20.4176 47.9268 20.4006C48.0935 20.3816 48.2147 20.3504 48.2905 20.3068C48.3681 20.2633 48.407 20.1875 48.407 20.0795V20.0568C48.407 19.7765 48.3303 19.5587 48.1768 19.4034C48.0253 19.2481 47.7952 19.1705 47.4865 19.1705C47.1664 19.1705 46.9155 19.2405 46.7337 19.3807C46.5518 19.5208 46.424 19.6705 46.3501 19.8295L45.7138 19.6023C45.8274 19.3371 45.9789 19.1307 46.1683 18.983C46.3596 18.8333 46.5679 18.7292 46.7933 18.6705C47.0206 18.6098 47.2441 18.5795 47.4638 18.5795C47.6039 18.5795 47.7649 18.5966 47.9467 18.6307C48.1304 18.6629 48.3075 18.7301 48.478 18.8324C48.6503 18.9347 48.7933 19.089 48.907 19.2955C49.0206 19.5019 49.0774 19.7784 49.0774 20.125V23H48.407V22.4091H48.3729C48.3274 22.5038 48.2517 22.6051 48.1456 22.7131C48.0395 22.821 47.8984 22.9129 47.7223 22.9886C47.5462 23.0644 47.3312 23.1023 47.0774 23.1023ZM47.1797 22.5C47.4448 22.5 47.6683 22.4479 47.8501 22.3438C48.0339 22.2396 48.1721 22.1051 48.2649 21.9403C48.3596 21.7756 48.407 21.6023 48.407 21.4205V20.8068C48.3786 20.8409 48.3161 20.8722 48.2195 20.9006C48.1248 20.9271 48.0149 20.9508 47.8899 20.9716C47.7668 20.9905 47.6465 21.0076 47.5291 21.0227C47.4136 21.036 47.3198 21.0473 47.2479 21.0568C47.0736 21.0795 46.9107 21.1165 46.7592 21.1676C46.6096 21.2169 46.4884 21.2917 46.3956 21.392C46.3047 21.4905 46.2592 21.625 46.2592 21.7955C46.2592 22.0284 46.3454 22.2045 46.5178 22.3239C46.692 22.4413 46.9126 22.5 47.1797 22.5ZM50.9716 20.375V23H50.3011V18.6364H50.9489V19.3182H51.0057C51.108 19.0966 51.2633 18.9186 51.4716 18.7841C51.6799 18.6477 51.9489 18.5795 52.2784 18.5795C52.5739 18.5795 52.8324 18.6402 53.054 18.7614C53.2756 18.8807 53.4479 19.0625 53.571 19.3068C53.6941 19.5492 53.7557 19.8561 53.7557 20.2273V23H53.0852V20.2727C53.0852 19.9299 52.9962 19.6629 52.8182 19.4716C52.6402 19.2784 52.3958 19.1818 52.0852 19.1818C51.8712 19.1818 51.6799 19.2282 51.5114 19.321C51.3447 19.4138 51.2131 19.5492 51.1165 19.7273C51.0199 19.9053 50.9716 20.1212 50.9716 20.375ZM56.6286 23.0909C56.2649 23.0909 55.9439 22.9991 55.6655 22.8153C55.3871 22.6297 55.1693 22.3684 55.0121 22.0312C54.8549 21.6922 54.7763 21.2917 54.7763 20.8295C54.7763 20.3712 54.8549 19.9735 55.0121 19.6364C55.1693 19.2992 55.388 19.0388 55.6683 18.8551C55.9486 18.6714 56.2725 18.5795 56.6399 18.5795C56.924 18.5795 57.1484 18.6269 57.3132 18.7216C57.4799 18.8144 57.6068 18.9205 57.6939 19.0398C57.7829 19.1572 57.852 19.2538 57.9013 19.3295H57.9581V17.1818H58.6286V23H57.9808V22.3295H57.9013C57.852 22.4091 57.782 22.5095 57.6911 22.6307C57.6001 22.75 57.4704 22.857 57.3018 22.9517C57.1333 23.0445 56.9089 23.0909 56.6286 23.0909ZM56.7195 22.4886C56.9884 22.4886 57.2157 22.4186 57.4013 22.2784C57.5869 22.1364 57.728 21.9403 57.8246 21.6903C57.9212 21.4384 57.9695 21.1477 57.9695 20.8182C57.9695 20.4924 57.9221 20.2074 57.8274 19.9631C57.7327 19.7169 57.5926 19.5256 57.407 19.3892C57.2214 19.2509 56.9922 19.1818 56.7195 19.1818C56.4354 19.1818 56.1986 19.2547 56.0092 19.4006C55.8217 19.5445 55.6806 19.7405 55.5859 19.9886C55.4931 20.2348 55.4467 20.5114 55.4467 20.8182C55.4467 21.1288 55.4941 21.411 55.5888 21.6648C55.6854 21.9167 55.8274 22.1174 56.0149 22.267C56.2043 22.4148 56.4392 22.4886 56.7195 22.4886ZM59.9496 23V18.6364H60.62V23H59.9496ZM60.2905 17.9091C60.1598 17.9091 60.0471 17.8646 59.9524 17.7756C59.8596 17.6866 59.8132 17.5795 59.8132 17.4545C59.8132 17.3295 59.8596 17.2225 59.9524 17.1335C60.0471 17.0445 60.1598 17 60.2905 17C60.4212 17 60.5329 17.0445 60.6257 17.1335C60.7204 17.2225 60.7678 17.3295 60.7678 17.4545C60.7678 17.5795 60.7204 17.6866 60.6257 17.7756C60.5329 17.8646 60.4212 17.9091 60.2905 17.9091ZM62.5185 20.375V23H61.848V18.6364H62.4957V19.3182H62.5526C62.6548 19.0966 62.8101 18.9186 63.0185 18.7841C63.2268 18.6477 63.4957 18.5795 63.8253 18.5795C64.1207 18.5795 64.3793 18.6402 64.6009 18.7614C64.8224 18.8807 64.9948 19.0625 65.1179 19.3068C65.241 19.5492 65.3026 19.8561 65.3026 20.2273V23H64.6321V20.2727C64.6321 19.9299 64.5431 19.6629 64.3651 19.4716C64.187 19.2784 63.9427 19.1818 63.6321 19.1818C63.4181 19.1818 63.2268 19.2282 63.0582 19.321C62.8916 19.4138 62.7599 19.5492 62.6634 19.7273C62.5668 19.9053 62.5185 20.1212 62.5185 20.375ZM68.2891 24.7273C67.9652 24.7273 67.6868 24.6856 67.4538 24.6023C67.2209 24.5208 67.0268 24.4129 66.8714 24.2784C66.718 24.1458 66.5959 24.0038 66.505 23.8523L67.0391 23.4773C67.0997 23.5568 67.1764 23.6477 67.2692 23.75C67.362 23.8542 67.4889 23.9441 67.6499 24.0199C67.8127 24.0975 68.0258 24.1364 68.2891 24.1364C68.6413 24.1364 68.9321 24.0511 69.1612 23.8807C69.3904 23.7102 69.505 23.4432 69.505 23.0795V22.1932H69.4482C69.3989 22.2727 69.3288 22.3712 69.2379 22.4886C69.1489 22.6042 69.0201 22.7074 68.8516 22.7983C68.6849 22.8873 68.4595 22.9318 68.1754 22.9318C67.8232 22.9318 67.5069 22.8485 67.2266 22.6818C66.9482 22.5152 66.7275 22.2727 66.5646 21.9545C66.4036 21.6364 66.3232 21.25 66.3232 20.7955C66.3232 20.3485 66.4018 19.9593 66.5589 19.6278C66.7161 19.2945 66.9349 19.0369 67.2152 18.8551C67.4955 18.6714 67.8194 18.5795 68.1868 18.5795C68.4709 18.5795 68.6963 18.6269 68.8629 18.7216C69.0315 18.8144 69.1603 18.9205 69.2493 19.0398C69.3402 19.1572 69.4103 19.2538 69.4595 19.3295H69.5277V18.6364H70.1754V23.125C70.1754 23.5 70.0902 23.8049 69.9197 24.0398C69.7512 24.2765 69.5239 24.4498 69.2379 24.5597C68.9538 24.6714 68.6375 24.7273 68.2891 24.7273ZM68.2663 22.3295C68.5353 22.3295 68.7625 22.268 68.9482 22.1449C69.1338 22.0218 69.2749 21.8447 69.3714 21.6136C69.468 21.3826 69.5163 21.1061 69.5163 20.7841C69.5163 20.4697 69.469 20.1922 69.3743 19.9517C69.2796 19.7112 69.1394 19.5227 68.9538 19.3864C68.7682 19.25 68.5391 19.1818 68.2663 19.1818C67.9822 19.1818 67.7455 19.2538 67.5561 19.3977C67.3686 19.5417 67.2275 19.7348 67.1328 19.9773C67.04 20.2197 66.9936 20.4886 66.9936 20.7841C66.9936 21.0871 67.041 21.3551 67.1357 21.5881C67.2322 21.8191 67.3743 22.0009 67.5618 22.1335C67.7512 22.2642 67.986 22.3295 68.2663 22.3295ZM73.9822 23H73.2436L75.38 17.1818H76.1072L78.2436 23H77.505L75.7663 18.1023H75.7209L73.9822 23ZM74.255 20.7273H77.2322V21.3523H74.255V20.7273ZM82.1499 19.6136L81.5476 19.7841C81.5097 19.6837 81.4538 19.5862 81.38 19.4915C81.308 19.3949 81.2095 19.3153 81.0845 19.2528C80.9595 19.1903 80.7995 19.1591 80.6044 19.1591C80.3374 19.1591 80.1148 19.2206 79.9368 19.3438C79.7607 19.465 79.6726 19.6193 79.6726 19.8068C79.6726 19.9735 79.7332 20.1051 79.8544 20.2017C79.9756 20.2983 80.165 20.3788 80.4226 20.4432L81.0703 20.6023C81.4605 20.697 81.7512 20.8419 81.9425 21.0369C82.1338 21.2301 82.2294 21.4792 82.2294 21.7841C82.2294 22.0341 82.1574 22.2576 82.0135 22.4545C81.8714 22.6515 81.6726 22.8068 81.4169 22.9205C81.1612 23.0341 80.8639 23.0909 80.5249 23.0909C80.0798 23.0909 79.7114 22.9943 79.4197 22.8011C79.1281 22.608 78.9434 22.3258 78.8658 21.9545L79.5021 21.7955C79.5627 22.0303 79.6773 22.2064 79.8459 22.3239C80.0163 22.4413 80.2389 22.5 80.5135 22.5C80.826 22.5 81.0741 22.4337 81.2578 22.3011C81.4434 22.1667 81.5362 22.0057 81.5362 21.8182C81.5362 21.6667 81.4832 21.5398 81.3771 21.4375C81.2711 21.3333 81.1082 21.2557 80.8885 21.2045L80.1612 21.0341C79.7616 20.9394 79.468 20.7926 79.2805 20.5938C79.0949 20.393 79.0021 20.142 79.0021 19.8409C79.0021 19.5947 79.0713 19.3769 79.2095 19.1875C79.3497 18.9981 79.54 18.8494 79.7805 18.7415C80.023 18.6335 80.2976 18.5795 80.6044 18.5795C81.0362 18.5795 81.3752 18.6742 81.6214 18.8636C81.8696 19.053 82.0457 19.303 82.1499 19.6136ZM86.3295 19.6136L85.7273 19.7841C85.6894 19.6837 85.6335 19.5862 85.5597 19.4915C85.4877 19.3949 85.3892 19.3153 85.2642 19.2528C85.1392 19.1903 84.9792 19.1591 84.7841 19.1591C84.517 19.1591 84.2945 19.2206 84.1165 19.3438C83.9403 19.465 83.8523 19.6193 83.8523 19.8068C83.8523 19.9735 83.9129 20.1051 84.0341 20.2017C84.1553 20.2983 84.3447 20.3788 84.6023 20.4432L85.25 20.6023C85.6402 20.697 85.9309 20.8419 86.1222 21.0369C86.3134 21.2301 86.4091 21.4792 86.4091 21.7841C86.4091 22.0341 86.3371 22.2576 86.1932 22.4545C86.0511 22.6515 85.8523 22.8068 85.5966 22.9205C85.3409 23.0341 85.0436 23.0909 84.7045 23.0909C84.2595 23.0909 83.8911 22.9943 83.5994 22.8011C83.3078 22.608 83.1231 22.3258 83.0455 21.9545L83.6818 21.7955C83.7424 22.0303 83.857 22.2064 84.0256 22.3239C84.196 22.4413 84.4186 22.5 84.6932 22.5C85.0057 22.5 85.2538 22.4337 85.4375 22.3011C85.6231 22.1667 85.7159 22.0057 85.7159 21.8182C85.7159 21.6667 85.6629 21.5398 85.5568 21.4375C85.4508 21.3333 85.2879 21.2557 85.0682 21.2045L84.3409 21.0341C83.9413 20.9394 83.6477 20.7926 83.4602 20.5938C83.2746 20.393 83.1818 20.142 83.1818 19.8409C83.1818 19.5947 83.2509 19.3769 83.3892 19.1875C83.5294 18.9981 83.7197 18.8494 83.9602 18.7415C84.2027 18.6335 84.4773 18.5795 84.7841 18.5795C85.2159 18.5795 85.5549 18.6742 85.8011 18.8636C86.0492 19.053 86.2254 19.303 86.3295 19.6136ZM89.2479 23.0909C88.8274 23.0909 88.4647 22.9981 88.1598 22.8125C87.8568 22.625 87.6229 22.3636 87.4581 22.0284C87.2952 21.6913 87.2138 21.2992 87.2138 20.8523C87.2138 20.4053 87.2952 20.0114 87.4581 19.6705C87.6229 19.3277 87.852 19.0606 88.1456 18.8693C88.4411 18.6761 88.7857 18.5795 89.1797 18.5795C89.407 18.5795 89.6314 18.6174 89.853 18.6932C90.0746 18.7689 90.2763 18.892 90.4581 19.0625C90.6399 19.2311 90.7848 19.4545 90.8928 19.733C91.0007 20.0114 91.0547 20.3542 91.0547 20.7614V21.0455H87.6911V20.4659H90.3729C90.3729 20.2197 90.3236 20 90.2251 19.8068C90.1286 19.6136 89.9903 19.4612 89.8104 19.3494C89.6323 19.2377 89.4221 19.1818 89.1797 19.1818C88.9126 19.1818 88.6816 19.2481 88.4865 19.3807C88.2933 19.5114 88.1446 19.6818 88.0405 19.892C87.9363 20.1023 87.8842 20.3277 87.8842 20.5682V20.9545C87.8842 21.2841 87.9411 21.5634 88.0547 21.7926C88.1702 22.0199 88.3303 22.1932 88.5348 22.3125C88.7393 22.4299 88.977 22.4886 89.2479 22.4886C89.424 22.4886 89.5831 22.464 89.7251 22.4148C89.8691 22.3636 89.9931 22.2879 90.0973 22.1875C90.2015 22.0852 90.282 21.9583 90.3388 21.8068L90.9865 21.9886C90.9183 22.2083 90.8037 22.4015 90.6428 22.5682C90.4818 22.733 90.2829 22.8617 90.0462 22.9545C89.8094 23.0455 89.5433 23.0909 89.2479 23.0909ZM93.9723 18.6364V19.2045H91.7109V18.6364H93.9723ZM92.37 17.5909H93.0405V21.75C93.0405 21.9394 93.0679 22.0814 93.1229 22.1761C93.1797 22.2689 93.2517 22.3314 93.3388 22.3636C93.4278 22.3939 93.5215 22.4091 93.62 22.4091C93.6939 22.4091 93.7545 22.4053 93.8018 22.3977C93.8492 22.3883 93.8871 22.3807 93.9155 22.375L94.0518 22.9773C94.0064 22.9943 93.9429 23.0114 93.8615 23.0284C93.7801 23.0473 93.6768 23.0568 93.5518 23.0568C93.3625 23.0568 93.1768 23.0161 92.995 22.9347C92.8151 22.8532 92.6655 22.7292 92.5462 22.5625C92.4287 22.3958 92.37 22.1856 92.37 21.9318V17.5909ZM97.9936 19.6136L97.3913 19.7841C97.3535 19.6837 97.2976 19.5862 97.2237 19.4915C97.1518 19.3949 97.0533 19.3153 96.9283 19.2528C96.8033 19.1903 96.6432 19.1591 96.4482 19.1591C96.1811 19.1591 95.9586 19.2206 95.7805 19.3438C95.6044 19.465 95.5163 19.6193 95.5163 19.8068C95.5163 19.9735 95.5769 20.1051 95.6982 20.2017C95.8194 20.2983 96.0088 20.3788 96.2663 20.4432L96.9141 20.6023C97.3042 20.697 97.5949 20.8419 97.7862 21.0369C97.9775 21.2301 98.0732 21.4792 98.0732 21.7841C98.0732 22.0341 98.0012 22.2576 97.8572 22.4545C97.7152 22.6515 97.5163 22.8068 97.2607 22.9205C97.005 23.0341 96.7076 23.0909 96.3686 23.0909C95.9235 23.0909 95.5552 22.9943 95.2635 22.8011C94.9718 22.608 94.7872 22.3258 94.7095 21.9545L95.3459 21.7955C95.4065 22.0303 95.5211 22.2064 95.6896 22.3239C95.8601 22.4413 96.0826 22.5 96.3572 22.5C96.6697 22.5 96.9179 22.4337 97.1016 22.3011C97.2872 22.1667 97.38 22.0057 97.38 21.8182C97.38 21.6667 97.3269 21.5398 97.2209 21.4375C97.1148 21.3333 96.9519 21.2557 96.7322 21.2045L96.005 21.0341C95.6054 20.9394 95.3118 20.7926 95.1243 20.5938C94.9387 20.393 94.8459 20.142 94.8459 19.8409C94.8459 19.5947 94.915 19.3769 95.0533 19.1875C95.1934 18.9981 95.3838 18.8494 95.6243 18.7415C95.8667 18.6335 96.1413 18.5795 96.4482 18.5795C96.88 18.5795 97.219 18.6742 97.4652 18.8636C97.7133 19.053 97.8894 19.303 97.9936 19.6136Z" fill="white"/>
</g>
<rect x="0.5" y="0.5" width="117" height="31" rx="3.5" stroke="white" stroke-opacity="0.02"/>
<defs>
<filter id="filter0_dii_5_79" x="19.2188" y="6.46875" width="11.5625" height="19.0625" filterUnits="userSpaceOnUse" color-interpolation-filters="sRGB">
<feFlood flood-opacity="0" result="BackgroundImageFix"/>
<feColorMatrix in="SourceAlpha" type="matrix" values="0 0 0 0 0 0 0 0 0 0 0 0 0 0 0 0 0 0 127 0" result="hardAlpha"/>
<feOffset/>
<feGaussianBlur stdDeviation="0.625"/>
<feComposite in2="hardAlpha" operator="out"/>
<feColorMatrix type="matrix" values="0 0 0 0 0 0 0 0 0 0 0 0 0 0 0 0 0 0 0.25 0"/>
<feBlend mode="normal" in2="BackgroundImageFix" result="effect1_dropShadow_5_79"/>
<feBlend mode="normal" in="SourceGraphic" in2="effect1_dropShadow_5_79" result="shape"/>
<feColorMatrix in="SourceAlpha" type="matrix" values="0 0 0 0 0 0 0 0 0 0 0 0 0 0 0 0 0 0 127 0" result="hardAlpha"/>
<feOffset/>
<feGaussianBlur stdDeviation="0.3125"/>
<feComposite in2="hardAlpha" operator="arithmetic" k2="-1" k3="1"/>
<feColorMatrix type="matrix" values="0 0 0 0 0 0 0 0 0 0 0 0 0 0 0 0 0 0 0.2 0"/>
<feBlend mode="normal" in2="shape" result="effect2_innerShadow_5_79"/>
<feColorMatrix in="SourceAlpha" type="matrix" values="0 0 0 0 0 0 0 0 0 0 0 0 0 0 0 0 0 0 127 0" result="hardAlpha"/>
<feOffset/>
<feGaussianBlur stdDeviation="0.125"/>
<feComposite in2="hardAlpha" operator="arithmetic" k2="-1" k3="1"/>
<feColorMatrix type="matrix" values="0 0 0 0 1 0 0 0 0 1 0 0 0 0 1 0 0 0 0.3 0"/>
<feBlend mode="normal" in2="effect2_innerShadow_5_79" result="effect3_innerShadow_5_79"/>
</filter>
<filter id="filter1_dii_5_79" x="19.2188" y="6.46875" width="11.5625" height="19.0625" filterUnits="userSpaceOnUse" color-interpolation-filters="sRGB">
<feFlood flood-opacity="0" result="BackgroundImageFix"/>
<feColorMatrix in="SourceAlpha" type="matrix" values="0 0 0 0 0 0 0 0 0 0 0 0 0 0 0 0 0 0 127 0" result="hardAlpha"/>
<feOffset/>
<feGaussianBlur stdDeviation="0.625"/>
<feComposite in2="hardAlpha" operator="out"/>
<feColorMatrix type="matrix" values="0 0 0 0 0 0 0 0 0 0 0 0 0 0 0 0 0 0 0.25 0"/>
<feBlend mode="normal" in2="BackgroundImageFix" result="effect1_dropShadow_5_79"/>
<feBlend mode="normal" in="SourceGraphic" in2="effect1_dropShadow_5_79" result="shape"/>
<feColorMatrix in="SourceAlpha" type="matrix" values="0 0 0 0 0 0 0 0 0 0 0 0 0 0 0 0 0 0 127 0" result="hardAlpha"/>
<feOffset/>
<feGaussianBlur stdDeviation="0.3125"/>
<feComposite in2="hardAlpha" operator="arithmetic" k2="-1" k3="1"/>
<feColorMatrix type="matrix" values="0 0 0 0 0 0 0 0 0 0 0 0 0 0 0 0 0 0 0.2 0"/>
<feBlend mode="normal" in2="shape" result="effect2_innerShadow_5_79"/>
<feColorMatrix in="SourceAlpha" type="matrix" values="0 0 0 0 0 0 0 0 0 0 0 0 0 0 0 0 0 0 127 0" result="hardAlpha"/>
<feOffset/>
<feGaussianBlur stdDeviation="0.125"/>
<feComposite in2="hardAlpha" operator="arithmetic" k2="-1" k3="1"/>
<feColorMatrix type="matrix" values="0 0 0 0 1 0 0 0 0 1 0 0 0 0 1 0 0 0 0.3 0"/>
<feBlend mode="normal" in2="effect2_innerShadow_5_79" result="effect3_innerShadow_5_79"/>
</filter>
<filter id="filter2_d_5_79" x="35.5057" y="7.84943" width="64.5675" height="18.8779" filterUnits="userSpaceOnUse" color-interpolation-filters="sRGB">
<feFlood flood-opacity="0" result="BackgroundImageFix"/>
<feColorMatrix in="SourceAlpha" type="matrix" values="0 0 0 0 0 0 0 0 0 0 0 0 0 0 0 0 0 0 127 0" result="hardAlpha"/>
<feOffset/>
<feGaussianBlur stdDeviation="1"/>
<feComposite in2="hardAlpha" operator="out"/>
<feColorMatrix type="matrix" values="0 0 0 0 0 0 0 0 0 0 0 0 0 0 0 0 0 0 0.25 0"/>
<feBlend mode="normal" in2="BackgroundImageFix" result="effect1_dropShadow_5_79"/>
<feBlend mode="normal" in="SourceGraphic" in2="effect1_dropShadow_5_79" result="shape"/>
</filter>
<linearGradient id="paint0_linear_5_79" x1="30.4219" y1="-22" x2="46.6314" y2="61.6816" gradientUnits="userSpaceOnUse">
<stop stop-color="#262026"/>
<stop offset="0.25" stop-color="#1D1D26"/>
<stop offset="0.5" stop-color="#172419"/>
<stop offset="0.75" stop-color="#222213"/>
<stop offset="1" stop-color="#2E1414"/>
</linearGradient>
<linearGradient id="paint1_linear_5_79" x1="25" y1="8.5" x2="25" y2="23.5" gradientUnits="userSpaceOnUse">
<stop stop-color="#EB60DD"/>
<stop offset="0.489583" stop-color="#6066EA"/>
<stop offset="0.958333" stop-color="#69EC7E"/>
</linearGradient>
<linearGradient id="paint2_linear_5_79" x1="25" y1="8.5" x2="25" y2="23.5" gradientUnits="userSpaceOnUse">
<stop stop-color="#DEE154"/>
<stop offset="1" stop-color="#E75A5A"/>
</linearGradient>
<linearGradient id="paint3_linear_5_79" x1="41.3056" y1="8" x2="60.8923" y2="26.3996" gradientUnits="userSpaceOnUse">
<stop stop-color="#E75A5A"/>
<stop offset="0.5" stop-color="#69EC7E"/>
<stop offset="1" stop-color="#6066EA"/>
</linearGradient>
</defs>
</svg>
