<svg width="81" height="24" viewBox="0 0 81 24" fill="none" xmlns="http://www.w3.org/2000/svg">
<rect width="81" height="24" rx="4" fill="url(#paint0_linear_1_24)"/>
<g filter="url(#filter0_d_1_24)">
<g filter="url(#filter1_dii_1_24)">
<path d="M13 18C13 17.6 13 18.72 13 16.8C13 13.2 7 10.8 7 7.2C7 5.28 7 6.6 7 6" stroke="url(#paint1_linear_1_24)" stroke-width="1.25" stroke-linecap="round"/>
</g>
<g filter="url(#filter2_dii_1_24)">
<path d="M7 18C7 17.6 7 18.72 7 16.8C7 13.2 13 10.8 13 7.2C13 5.28 13 6.6 13 6" stroke="url(#paint2_linear_1_24)" stroke-width="1.25" stroke-linecap="round"/>
</g>
</g>
<g filter="url(#filter3_d_1_24)">
<path d="M18.5057 15V9.18182H19.7358V11.5824H22.233V9.18182H23.4602V15H22.233V12.5966H19.7358V15H18.5057ZM26.4403 15.0852C25.9915 15.0852 25.6051 14.9943 25.2812 14.8125C24.9593 14.6288 24.7112 14.3693 24.5369 14.0341C24.3627 13.697 24.2756 13.2983 24.2756 12.8381C24.2756 12.3892 24.3627 11.9953 24.5369 11.6562C24.7112 11.3172 24.9564 11.053 25.2727 10.8636C25.5909 10.6742 25.964 10.5795 26.392 10.5795C26.6799 10.5795 26.9479 10.6259 27.196 10.7188C27.446 10.8097 27.6638 10.947 27.8494 11.1307C28.0369 11.3144 28.1828 11.5455 28.2869 11.8239C28.3911 12.1004 28.4432 12.4242 28.4432 12.7955V13.1278H24.7585V12.3778H27.304C27.304 12.2036 27.2661 12.0492 27.1903 11.9148C27.1146 11.7803 27.0095 11.6752 26.875 11.5994C26.7424 11.5218 26.5881 11.483 26.4119 11.483C26.2282 11.483 26.0653 11.5256 25.9233 11.6108C25.7831 11.6941 25.6733 11.8068 25.5938 11.9489C25.5142 12.089 25.4735 12.2453 25.4716 12.4176V13.1307C25.4716 13.3466 25.5114 13.5331 25.5909 13.6903C25.6723 13.8475 25.7869 13.9688 25.9347 14.054C26.0824 14.1392 26.2576 14.1818 26.4602 14.1818C26.5947 14.1818 26.7178 14.1629 26.8295 14.125C26.9413 14.0871 27.0369 14.0303 27.1165 13.9545C27.196 13.8788 27.2566 13.786 27.2983 13.6761L28.4176 13.75C28.3608 14.0189 28.2443 14.2538 28.0682 14.4545C27.8939 14.6534 27.6686 14.8087 27.392 14.9205C27.1174 15.0303 26.8002 15.0852 26.4403 15.0852ZM30.4432 9.18182V15H29.233V9.18182H30.4432ZM31.4126 15V10.6364H32.6229V15H31.4126ZM32.0206 10.0739C31.8407 10.0739 31.6863 10.0142 31.5575 9.89489C31.4306 9.77367 31.3672 9.62879 31.3672 9.46023C31.3672 9.29356 31.4306 9.15057 31.5575 9.03125C31.6863 8.91004 31.8407 8.84943 32.0206 8.84943C32.2005 8.84943 32.3539 8.91004 32.4808 9.03125C32.6096 9.15057 32.674 9.29356 32.674 9.46023C32.674 9.62879 32.6096 9.77367 32.4808 9.89489C32.3539 10.0142 32.2005 10.0739 32.0206 10.0739ZM34.6037 10.6364L35.4048 12.1619L36.2259 10.6364H37.4673L36.2031 12.8182L37.5014 15H36.2656L35.4048 13.4915L34.5582 15H33.3082L34.6037 12.8182L33.3537 10.6364H34.6037Z" fill="url(#paint3_linear_1_24)"/>
<path d="M40.2592 15V9.18182H40.9638V14.375H43.6683V15H40.2592ZM45.9524 15.1023C45.6759 15.1023 45.425 15.0502 45.1996 14.946C44.9742 14.84 44.7952 14.6875 44.6626 14.4886C44.5301 14.2879 44.4638 14.0455 44.4638 13.7614C44.4638 13.5114 44.513 13.3087 44.6115 13.1534C44.71 12.9962 44.8416 12.8731 45.0064 12.7841C45.1712 12.6951 45.353 12.6288 45.5518 12.5852C45.7526 12.5398 45.9543 12.5038 46.157 12.4773C46.4221 12.4432 46.6371 12.4176 46.8018 12.4006C46.9685 12.3816 47.0897 12.3504 47.1655 12.3068C47.2431 12.2633 47.282 12.1875 47.282 12.0795V12.0568C47.282 11.7765 47.2053 11.5587 47.0518 11.4034C46.9003 11.2481 46.6702 11.1705 46.3615 11.1705C46.0414 11.1705 45.7905 11.2405 45.6087 11.3807C45.4268 11.5208 45.299 11.6705 45.2251 11.8295L44.5888 11.6023C44.7024 11.3371 44.8539 11.1307 45.0433 10.983C45.2346 10.8333 45.4429 10.7292 45.6683 10.6705C45.8956 10.6098 46.1191 10.5795 46.3388 10.5795C46.4789 10.5795 46.6399 10.5966 46.8217 10.6307C47.0054 10.6629 47.1825 10.7301 47.353 10.8324C47.5253 10.9347 47.6683 11.089 47.782 11.2955C47.8956 11.5019 47.9524 11.7784 47.9524 12.125V15H47.282V14.4091H47.2479C47.2024 14.5038 47.1267 14.6051 47.0206 14.7131C46.9145 14.821 46.7734 14.9129 46.5973 14.9886C46.4212 15.0644 46.2062 15.1023 45.9524 15.1023ZM46.0547 14.5C46.3198 14.5 46.5433 14.4479 46.7251 14.3438C46.9089 14.2396 47.0471 14.1051 47.1399 13.9403C47.2346 13.7756 47.282 13.6023 47.282 13.4205V12.8068C47.2536 12.8409 47.1911 12.8722 47.0945 12.9006C46.9998 12.9271 46.8899 12.9508 46.7649 12.9716C46.6418 12.9905 46.5215 13.0076 46.4041 13.0227C46.2886 13.036 46.1948 13.0473 46.1229 13.0568C45.9486 13.0795 45.7857 13.1165 45.6342 13.1676C45.4846 13.2169 45.3634 13.2917 45.2706 13.392C45.1797 13.4905 45.1342 13.625 45.1342 13.7955C45.1342 14.0284 45.2204 14.2045 45.3928 14.3239C45.567 14.4413 45.7876 14.5 46.0547 14.5ZM51.9261 13.2159V10.6364H52.5966V15H51.9261V14.2614H51.8807C51.7784 14.483 51.6193 14.6714 51.4034 14.8267C51.1875 14.9801 50.9148 15.0568 50.5852 15.0568C50.3125 15.0568 50.0701 14.9972 49.858 14.8778C49.6458 14.7566 49.4792 14.5748 49.358 14.3324C49.2367 14.0881 49.1761 13.7803 49.1761 13.4091V10.6364H49.8466V13.3636C49.8466 13.6818 49.9356 13.9356 50.1136 14.125C50.2936 14.3144 50.5227 14.4091 50.8011 14.4091C50.9678 14.4091 51.1373 14.3665 51.3097 14.2812C51.4839 14.196 51.6297 14.0653 51.7472 13.8892C51.8665 13.7131 51.9261 13.4886 51.9261 13.2159ZM54.495 12.375V15H53.8246V10.6364H54.4723V11.3182H54.5291C54.6314 11.0966 54.7867 10.9186 54.995 10.7841C55.2034 10.6477 55.4723 10.5795 55.8018 10.5795C56.0973 10.5795 56.3558 10.6402 56.5774 10.7614C56.799 10.8807 56.9714 11.0625 57.0945 11.3068C57.2176 11.5492 57.2791 11.8561 57.2791 12.2273V15H56.6087V12.2727C56.6087 11.9299 56.5196 11.6629 56.3416 11.4716C56.1636 11.2784 55.9193 11.1818 55.6087 11.1818C55.3946 11.1818 55.2034 11.2282 55.0348 11.321C54.8681 11.4138 54.7365 11.5492 54.6399 11.7273C54.5433 11.9053 54.495 12.1212 54.495 12.375ZM60.277 15.0909C59.8679 15.0909 59.5156 14.9943 59.2202 14.8011C58.9247 14.608 58.6974 14.3419 58.5384 14.0028C58.3793 13.6638 58.2997 13.2765 58.2997 12.8409C58.2997 12.3977 58.3812 12.0066 58.544 11.6676C58.7088 11.3267 58.938 11.0606 59.2315 10.8693C59.527 10.6761 59.8717 10.5795 60.2656 10.5795C60.5724 10.5795 60.849 10.6364 61.0952 10.75C61.3414 10.8636 61.5431 11.0227 61.7003 11.2273C61.8575 11.4318 61.955 11.6705 61.9929 11.9432H61.3224C61.2713 11.7443 61.1577 11.5682 60.9815 11.4148C60.8073 11.2595 60.5724 11.1818 60.277 11.1818C60.0156 11.1818 59.7865 11.25 59.5895 11.3864C59.3944 11.5208 59.242 11.7112 59.1321 11.9574C59.0241 12.2017 58.9702 12.4886 58.9702 12.8182C58.9702 13.1553 59.0232 13.4489 59.1293 13.6989C59.2372 13.9489 59.3887 14.143 59.5838 14.2812C59.7808 14.4195 60.0118 14.4886 60.277 14.4886C60.4512 14.4886 60.6094 14.4583 60.7514 14.3977C60.8935 14.3371 61.0137 14.25 61.1122 14.1364C61.2107 14.0227 61.2808 13.8864 61.3224 13.7273H61.9929C61.955 13.9848 61.8613 14.2169 61.7116 14.4233C61.5639 14.6278 61.3679 14.7907 61.1236 14.9119C60.8812 15.0312 60.599 15.0909 60.277 15.0909ZM63.6435 12.375V15H62.973V9.18182H63.6435V11.3182H63.7003C63.8026 11.0928 63.956 10.9138 64.1605 10.7812C64.367 10.6468 64.6416 10.5795 64.9844 10.5795C65.2817 10.5795 65.5421 10.6392 65.7656 10.7585C65.9891 10.8759 66.1624 11.0568 66.2855 11.3011C66.4105 11.5436 66.473 11.8523 66.473 12.2273V15H65.8026V12.2727C65.8026 11.9261 65.7126 11.6581 65.5327 11.4688C65.3546 11.2775 65.1075 11.1818 64.7912 11.1818C64.5715 11.1818 64.3745 11.2282 64.2003 11.321C64.0279 11.4138 63.8916 11.5492 63.7912 11.7273C63.6927 11.9053 63.6435 12.1212 63.6435 12.375ZM69.5291 15.0909C69.1087 15.0909 68.746 14.9981 68.4411 14.8125C68.138 14.625 67.9041 14.3636 67.7393 14.0284C67.5765 13.6913 67.495 13.2992 67.495 12.8523C67.495 12.4053 67.5765 12.0114 67.7393 11.6705C67.9041 11.3277 68.1333 11.0606 68.4268 10.8693C68.7223 10.6761 69.067 10.5795 69.4609 10.5795C69.6882 10.5795 69.9126 10.6174 70.1342 10.6932C70.3558 10.7689 70.5575 10.892 70.7393 11.0625C70.9212 11.2311 71.0661 11.4545 71.174 11.733C71.282 12.0114 71.3359 12.3542 71.3359 12.7614V13.0455H67.9723V12.4659H70.6541C70.6541 12.2197 70.6049 12 70.5064 11.8068C70.4098 11.6136 70.2715 11.4612 70.0916 11.3494C69.9136 11.2377 69.7034 11.1818 69.4609 11.1818C69.1939 11.1818 68.9628 11.2481 68.7678 11.3807C68.5746 11.5114 68.4259 11.6818 68.3217 11.892C68.2176 12.1023 68.1655 12.3277 68.1655 12.5682V12.9545C68.1655 13.2841 68.2223 13.5634 68.3359 13.7926C68.4515 14.0199 68.6115 14.1932 68.8161 14.3125C69.0206 14.4299 69.2583 14.4886 69.5291 14.4886C69.7053 14.4886 69.8643 14.464 70.0064 14.4148C70.1503 14.3636 70.2744 14.2879 70.3786 14.1875C70.4827 14.0852 70.5632 13.9583 70.62 13.8068L71.2678 13.9886C71.1996 14.2083 71.085 14.4015 70.924 14.5682C70.763 14.733 70.5642 14.8617 70.3274 14.9545C70.0907 15.0455 69.8246 15.0909 69.5291 15.0909ZM72.3558 15V10.6364H73.0036V11.2955H73.049C73.1286 11.0795 73.2725 10.9044 73.4808 10.7699C73.6892 10.6354 73.924 10.5682 74.1854 10.5682C74.2346 10.5682 74.2962 10.5691 74.37 10.571C74.4439 10.5729 74.4998 10.5758 74.5376 10.5795V11.2614C74.5149 11.2557 74.4628 11.2472 74.3814 11.2358C74.3018 11.2225 74.2176 11.2159 74.1286 11.2159C73.9164 11.2159 73.727 11.2604 73.5604 11.3494C73.3956 11.4366 73.2649 11.5578 73.1683 11.7131C73.0736 11.8665 73.0263 12.0417 73.0263 12.2386V15H72.3558Z" fill="white"/>
</g>
<rect x="0.5" y="0.5" width="80" height="23" rx="3.5" stroke="white" stroke-opacity="0.02"/>
<defs>
<filter id="filter0_d_1_24" x="5.375" y="4.375" width="9.25" height="15.25" filterUnits="userSpaceOnUse" color-interpolation-filters="sRGB">
<feFlood flood-opacity="0" result="BackgroundImageFix"/>
<feColorMatrix in="SourceAlpha" type="matrix" values="0 0 0 0 0 0 0 0 0 0 0 0 0 0 0 0 0 0 127 0" result="hardAlpha"/>
<feOffset/>
<feGaussianBlur stdDeviation="0.5"/>
<feComposite in2="hardAlpha" operator="out"/>
<feColorMatrix type="matrix" values="0 0 0 0 0 0 0 0 0 0 0 0 0 0 0 0 0 0 0.1 0"/>
<feBlend mode="normal" in2="BackgroundImageFix" result="effect1_dropShadow_1_24"/>
<feBlend mode="normal" in="SourceGraphic" in2="effect1_dropShadow_1_24" result="shape"/>
</filter>
<filter id="filter1_dii_1_24" x="5.375" y="4.375" width="9.25" height="15.25" filterUnits="userSpaceOnUse" color-interpolation-filters="sRGB">
<feFlood flood-opacity="0" result="BackgroundImageFix"/>
<feColorMatrix in="SourceAlpha" type="matrix" values="0 0 0 0 0 0 0 0 0 0 0 0 0 0 0 0 0 0 127 0" result="hardAlpha"/>
<feOffset/>
<feGaussianBlur stdDeviation="0.5"/>
<feComposite in2="hardAlpha" operator="out"/>
<feColorMatrix type="matrix" values="0 0 0 0 0 0 0 0 0 0 0 0 0 0 0 0 0 0 0.25 0"/>
<feBlend mode="normal" in2="BackgroundImageFix" result="effect1_dropShadow_1_24"/>
<feBlend mode="normal" in="SourceGraphic" in2="effect1_dropShadow_1_24" result="shape"/>
<feColorMatrix in="SourceAlpha" type="matrix" values="0 0 0 0 0 0 0 0 0 0 0 0 0 0 0 0 0 0 127 0" result="hardAlpha"/>
<feOffset/>
<feGaussianBlur stdDeviation="0.25"/>
<feComposite in2="hardAlpha" operator="arithmetic" k2="-1" k3="1"/>
<feColorMatrix type="matrix" values="0 0 0 0 0 0 0 0 0 0 0 0 0 0 0 0 0 0 0.2 0"/>
<feBlend mode="normal" in2="shape" result="effect2_innerShadow_1_24"/>
<feColorMatrix in="SourceAlpha" type="matrix" values="0 0 0 0 0 0 0 0 0 0 0 0 0 0 0 0 0 0 127 0" result="hardAlpha"/>
<feOffset/>
<feGaussianBlur stdDeviation="0.1"/>
<feComposite in2="hardAlpha" operator="arithmetic" k2="-1" k3="1"/>
<feColorMatrix type="matrix" values="0 0 0 0 1 0 0 0 0 1 0 0 0 0 1 0 0 0 0.3 0"/>
<feBlend mode="normal" in2="effect2_innerShadow_1_24" result="effect3_innerShadow_1_24"/>
</filter>
<filter id="filter2_dii_1_24" x="5.375" y="4.375" width="9.25" height="15.25" filterUnits="userSpaceOnUse" color-interpolation-filters="sRGB">
<feFlood flood-opacity="0" result="BackgroundImageFix"/>
<feColorMatrix in="SourceAlpha" type="matrix" values="0 0 0 0 0 0 0 0 0 0 0 0 0 0 0 0 0 0 127 0" result="hardAlpha"/>
<feOffset/>
<feGaussianBlur stdDeviation="0.5"/>
<feComposite in2="hardAlpha" operator="out"/>
<feColorMatrix type="matrix" values="0 0 0 0 0 0 0 0 0 0 0 0 0 0 0 0 0 0 0.25 0"/>
<feBlend mode="normal" in2="BackgroundImageFix" result="effect1_dropShadow_1_24"/>
<feBlend mode="normal" in="SourceGraphic" in2="effect1_dropShadow_1_24" result="shape"/>
<feColorMatrix in="SourceAlpha" type="matrix" values="0 0 0 0 0 0 0 0 0 0 0 0 0 0 0 0 0 0 127 0" result="hardAlpha"/>
<feOffset/>
<feGaussianBlur stdDeviation="0.25"/>
<feComposite in2="hardAlpha" operator="arithmetic" k2="-1" k3="1"/>
<feColorMatrix type="matrix" values="0 0 0 0 0 0 0 0 0 0 0 0 0 0 0 0 0 0 0.2 0"/>
<feBlend mode="normal" in2="shape" result="effect2_innerShadow_1_24"/>
<feColorMatrix in="SourceAlpha" type="matrix" values="0 0 0 0 0 0 0 0 0 0 0 0 0 0 0 0 0 0 127 0" result="hardAlpha"/>
<feOffset/>
<feGaussianBlur stdDeviation="0.1"/>
<feComposite in2="hardAlpha" operator="arithmetic" k2="-1" k3="1"/>
<feColorMatrix type="matrix" values="0 0 0 0 1 0 0 0 0 1 0 0 0 0 1 0 0 0 0.3 0"/>
<feBlend mode="normal" in2="effect2_innerShadow_1_24" result="effect3_innerShadow_1_24"/>
</filter>
<filter id="filter3_d_1_24" x="17.5057" y="7.84943" width="58.032" height="8.25285" filterUnits="userSpaceOnUse" color-interpolation-filters="sRGB">
<feFlood flood-opacity="0" result="BackgroundImageFix"/>
<feColorMatrix in="SourceAlpha" type="matrix" values="0 0 0 0 0 0 0 0 0 0 0 0 0 0 0 0 0 0 127 0" result="hardAlpha"/>
<feOffset/>
<feGaussianBlur stdDeviation="0.5"/>
<feComposite in2="hardAlpha" operator="out"/>
<feColorMatrix type="matrix" values="0 0 0 0 0 0 0 0 0 0 0 0 0 0 0 0 0 0 0.35 0"/>
<feBlend mode="normal" in2="BackgroundImageFix" result="effect1_dropShadow_1_24"/>
<feBlend mode="normal" in="SourceGraphic" in2="effect1_dropShadow_1_24" result="shape"/>
</filter>
<linearGradient id="paint0_linear_1_24" x1="20.8828" y1="-16.5" x2="34.0732" y2="45.8245" gradientUnits="userSpaceOnUse">
<stop stop-color="#332A32"/>
<stop offset="0.25" stop-color="#242531"/>
<stop offset="0.5" stop-color="#1B2C1E"/>
<stop offset="0.75" stop-color="#2B2C18"/>
<stop offset="1" stop-color="#371818"/>
</linearGradient>
<linearGradient id="paint1_linear_1_24" x1="10" y1="6" x2="10" y2="18" gradientUnits="userSpaceOnUse">
<stop stop-color="#EB60DD"/>
<stop offset="0.489583" stop-color="#6066EA"/>
<stop offset="0.958333" stop-color="#69EC7E"/>
</linearGradient>
<linearGradient id="paint2_linear_1_24" x1="10" y1="6" x2="10" y2="18" gradientUnits="userSpaceOnUse">
<stop stop-color="#DEE154"/>
<stop offset="1" stop-color="#E75A5A"/>
</linearGradient>
<linearGradient id="paint3_linear_1_24" x1="18.5" y1="9" x2="27.8798" y2="21.9617" gradientUnits="userSpaceOnUse">
<stop stop-color="#E75A5A"/>
<stop offset="0.5" stop-color="#69EC7E"/>
<stop offset="1" stop-color="#6066EA"/>
</linearGradient>
</defs>
</svg>
