<svg width="89" height="28" viewBox="0 0 89 28" fill="none" xmlns="http://www.w3.org/2000/svg">
<rect width="89" height="28" rx="4" fill="url(#paint0_linear_1_24)"/>
<g filter="url(#filter0_dii_1_24)">
<path d="M17.75 21.5C17.75 21 17.75 22.4 17.75 20C17.75 15.5 10.25 12.5 10.25 8C10.25 5.6 10.25 7.25 10.25 6.5" stroke="url(#paint1_linear_1_24)" stroke-width="1.5625" stroke-linecap="round"/>
</g>
<g filter="url(#filter1_dii_1_24)">
<path d="M10.25 21.5C10.25 21 10.25 22.4 10.25 20C10.25 15.5 17.75 12.5 17.75 8C17.75 5.6 17.75 7.25 17.75 6.5" stroke="url(#paint2_linear_1_24)" stroke-width="1.5625" stroke-linecap="round"/>
</g>
<g filter="url(#filter2_d_1_24)">
<path d="M24.5057 17V11.1818H25.7358V13.5824H28.233V11.1818H29.4602V17H28.233V14.5966H25.7358V17H24.5057ZM32.4403 17.0852C31.9915 17.0852 31.6051 16.9943 31.2812 16.8125C30.9593 16.6288 30.7112 16.3693 30.5369 16.0341C30.3627 15.697 30.2756 15.2983 30.2756 14.8381C30.2756 14.3892 30.3627 13.9953 30.5369 13.6562C30.7112 13.3172 30.9564 13.053 31.2727 12.8636C31.5909 12.6742 31.964 12.5795 32.392 12.5795C32.6799 12.5795 32.9479 12.6259 33.196 12.7188C33.446 12.8097 33.6638 12.947 33.8494 13.1307C34.0369 13.3144 34.1828 13.5455 34.2869 13.8239C34.3911 14.1004 34.4432 14.4242 34.4432 14.7955V15.1278H30.7585V14.3778H33.304C33.304 14.2036 33.2661 14.0492 33.1903 13.9148C33.1146 13.7803 33.0095 13.6752 32.875 13.5994C32.7424 13.5218 32.5881 13.483 32.4119 13.483C32.2282 13.483 32.0653 13.5256 31.9233 13.6108C31.7831 13.6941 31.6733 13.8068 31.5938 13.9489C31.5142 14.089 31.4735 14.2453 31.4716 14.4176V15.1307C31.4716 15.3466 31.5114 15.5331 31.5909 15.6903C31.6723 15.8475 31.7869 15.9688 31.9347 16.054C32.0824 16.1392 32.2576 16.1818 32.4602 16.1818C32.5947 16.1818 32.7178 16.1629 32.8295 16.125C32.9413 16.0871 33.0369 16.0303 33.1165 15.9545C33.196 15.8788 33.2566 15.786 33.2983 15.6761L34.4176 15.75C34.3608 16.0189 34.2443 16.2538 34.0682 16.4545C33.8939 16.6534 33.6686 16.8087 33.392 16.9205C33.1174 17.0303 32.8002 17.0852 32.4403 17.0852ZM36.4432 11.1818V17H35.233V11.1818H36.4432ZM37.4126 17V12.6364H38.6229V17H37.4126ZM38.0206 12.0739C37.8407 12.0739 37.6863 12.0142 37.5575 11.8949C37.4306 11.7737 37.3672 11.6288 37.3672 11.4602C37.3672 11.2936 37.4306 11.1506 37.5575 11.0312C37.6863 10.91 37.8407 10.8494 38.0206 10.8494C38.2005 10.8494 38.3539 10.91 38.4808 11.0312C38.6096 11.1506 38.674 11.2936 38.674 11.4602C38.674 11.6288 38.6096 11.7737 38.4808 11.8949C38.3539 12.0142 38.2005 12.0739 38.0206 12.0739ZM40.6037 12.6364L41.4048 14.1619L42.2259 12.6364H43.4673L42.2031 14.8182L43.5014 17H42.2656L41.4048 15.4915L40.5582 17H39.3082L40.6037 14.8182L39.3537 12.6364H40.6037Z" fill="url(#paint3_linear_1_24)"/>
<path d="M46.2592 17V11.1818H46.9638V16.375H49.6683V17H46.2592ZM51.9524 17.1023C51.6759 17.1023 51.425 17.0502 51.1996 16.946C50.9742 16.84 50.7952 16.6875 50.6626 16.4886C50.5301 16.2879 50.4638 16.0455 50.4638 15.7614C50.4638 15.5114 50.513 15.3087 50.6115 15.1534C50.71 14.9962 50.8416 14.8731 51.0064 14.7841C51.1712 14.6951 51.353 14.6288 51.5518 14.5852C51.7526 14.5398 51.9543 14.5038 52.157 14.4773C52.4221 14.4432 52.6371 14.4176 52.8018 14.4006C52.9685 14.3816 53.0897 14.3504 53.1655 14.3068C53.2431 14.2633 53.282 14.1875 53.282 14.0795V14.0568C53.282 13.7765 53.2053 13.5587 53.0518 13.4034C52.9003 13.2481 52.6702 13.1705 52.3615 13.1705C52.0414 13.1705 51.7905 13.2405 51.6087 13.3807C51.4268 13.5208 51.299 13.6705 51.2251 13.8295L50.5888 13.6023C50.7024 13.3371 50.8539 13.1307 51.0433 12.983C51.2346 12.8333 51.4429 12.7292 51.6683 12.6705C51.8956 12.6098 52.1191 12.5795 52.3388 12.5795C52.4789 12.5795 52.6399 12.5966 52.8217 12.6307C53.0054 12.6629 53.1825 12.7301 53.353 12.8324C53.5253 12.9347 53.6683 13.089 53.782 13.2955C53.8956 13.5019 53.9524 13.7784 53.9524 14.125V17H53.282V16.4091H53.2479C53.2024 16.5038 53.1267 16.6051 53.0206 16.7131C52.9145 16.821 52.7734 16.9129 52.5973 16.9886C52.4212 17.0644 52.2062 17.1023 51.9524 17.1023ZM52.0547 16.5C52.3198 16.5 52.5433 16.4479 52.7251 16.3438C52.9089 16.2396 53.0471 16.1051 53.1399 15.9403C53.2346 15.7756 53.282 15.6023 53.282 15.4205V14.8068C53.2536 14.8409 53.1911 14.8722 53.0945 14.9006C52.9998 14.9271 52.8899 14.9508 52.7649 14.9716C52.6418 14.9905 52.5215 15.0076 52.4041 15.0227C52.2886 15.036 52.1948 15.0473 52.1229 15.0568C51.9486 15.0795 51.7857 15.1165 51.6342 15.1676C51.4846 15.2169 51.3634 15.2917 51.2706 15.392C51.1797 15.4905 51.1342 15.625 51.1342 15.7955C51.1342 16.0284 51.2204 16.2045 51.3928 16.3239C51.567 16.4413 51.7876 16.5 52.0547 16.5ZM57.9261 15.2159V12.6364H58.5966V17H57.9261V16.2614H57.8807C57.7784 16.483 57.6193 16.6714 57.4034 16.8267C57.1875 16.9801 56.9148 17.0568 56.5852 17.0568C56.3125 17.0568 56.0701 16.9972 55.858 16.8778C55.6458 16.7566 55.4792 16.5748 55.358 16.3324C55.2367 16.0881 55.1761 15.7803 55.1761 15.4091V12.6364H55.8466V15.3636C55.8466 15.6818 55.9356 15.9356 56.1136 16.125C56.2936 16.3144 56.5227 16.4091 56.8011 16.4091C56.9678 16.4091 57.1373 16.3665 57.3097 16.2812C57.4839 16.196 57.6297 16.0653 57.7472 15.8892C57.8665 15.7131 57.9261 15.4886 57.9261 15.2159ZM60.495 14.375V17H59.8246V12.6364H60.4723V13.3182H60.5291C60.6314 13.0966 60.7867 12.9186 60.995 12.7841C61.2034 12.6477 61.4723 12.5795 61.8018 12.5795C62.0973 12.5795 62.3558 12.6402 62.5774 12.7614C62.799 12.8807 62.9714 13.0625 63.0945 13.3068C63.2176 13.5492 63.2791 13.8561 63.2791 14.2273V17H62.6087V14.2727C62.6087 13.9299 62.5196 13.6629 62.3416 13.4716C62.1636 13.2784 61.9193 13.1818 61.6087 13.1818C61.3946 13.1818 61.2034 13.2282 61.0348 13.321C60.8681 13.4138 60.7365 13.5492 60.6399 13.7273C60.5433 13.9053 60.495 14.1212 60.495 14.375ZM66.277 17.0909C65.8679 17.0909 65.5156 16.9943 65.2202 16.8011C64.9247 16.608 64.6974 16.3419 64.5384 16.0028C64.3793 15.6638 64.2997 15.2765 64.2997 14.8409C64.2997 14.3977 64.3812 14.0066 64.544 13.6676C64.7088 13.3267 64.938 13.0606 65.2315 12.8693C65.527 12.6761 65.8717 12.5795 66.2656 12.5795C66.5724 12.5795 66.849 12.6364 67.0952 12.75C67.3414 12.8636 67.5431 13.0227 67.7003 13.2273C67.8575 13.4318 67.955 13.6705 67.9929 13.9432H67.3224C67.2713 13.7443 67.1577 13.5682 66.9815 13.4148C66.8073 13.2595 66.5724 13.1818 66.277 13.1818C66.0156 13.1818 65.7865 13.25 65.5895 13.3864C65.3944 13.5208 65.242 13.7112 65.1321 13.9574C65.0241 14.2017 64.9702 14.4886 64.9702 14.8182C64.9702 15.1553 65.0232 15.4489 65.1293 15.6989C65.2372 15.9489 65.3887 16.143 65.5838 16.2812C65.7808 16.4195 66.0118 16.4886 66.277 16.4886C66.4512 16.4886 66.6094 16.4583 66.7514 16.3977C66.8935 16.3371 67.0137 16.25 67.1122 16.1364C67.2107 16.0227 67.2808 15.8864 67.3224 15.7273H67.9929C67.955 15.9848 67.8613 16.2169 67.7116 16.4233C67.5639 16.6278 67.3679 16.7907 67.1236 16.9119C66.8812 17.0312 66.599 17.0909 66.277 17.0909ZM69.6435 14.375V17H68.973V11.1818H69.6435V13.3182H69.7003C69.8026 13.0928 69.956 12.9138 70.1605 12.7812C70.367 12.6468 70.6416 12.5795 70.9844 12.5795C71.2817 12.5795 71.5421 12.6392 71.7656 12.7585C71.9891 12.8759 72.1624 13.0568 72.2855 13.3011C72.4105 13.5436 72.473 13.8523 72.473 14.2273V17H71.8026V14.2727C71.8026 13.9261 71.7126 13.6581 71.5327 13.4688C71.3546 13.2775 71.1075 13.1818 70.7912 13.1818C70.5715 13.1818 70.3745 13.2282 70.2003 13.321C70.0279 13.4138 69.8916 13.5492 69.7912 13.7273C69.6927 13.9053 69.6435 14.1212 69.6435 14.375ZM75.5291 17.0909C75.1087 17.0909 74.746 16.9981 74.4411 16.8125C74.138 16.625 73.9041 16.3636 73.7393 16.0284C73.5765 15.6913 73.495 15.2992 73.495 14.8523C73.495 14.4053 73.5765 14.0114 73.7393 13.6705C73.9041 13.3277 74.1333 13.0606 74.4268 12.8693C74.7223 12.6761 75.067 12.5795 75.4609 12.5795C75.6882 12.5795 75.9126 12.6174 76.1342 12.6932C76.3558 12.7689 76.5575 12.892 76.7393 13.0625C76.9212 13.2311 77.0661 13.4545 77.174 13.733C77.282 14.0114 77.3359 14.3542 77.3359 14.7614V15.0455H73.9723V14.4659H76.6541C76.6541 14.2197 76.6049 14 76.5064 13.8068C76.4098 13.6136 76.2715 13.4612 76.0916 13.3494C75.9136 13.2377 75.7034 13.1818 75.4609 13.1818C75.1939 13.1818 74.9628 13.2481 74.7678 13.3807C74.5746 13.5114 74.4259 13.6818 74.3217 13.892C74.2176 14.1023 74.1655 14.3277 74.1655 14.5682V14.9545C74.1655 15.2841 74.2223 15.5634 74.3359 15.7926C74.4515 16.0199 74.6115 16.1932 74.8161 16.3125C75.0206 16.4299 75.2583 16.4886 75.5291 16.4886C75.7053 16.4886 75.8643 16.464 76.0064 16.4148C76.1503 16.3636 76.2744 16.2879 76.3786 16.1875C76.4827 16.0852 76.5632 15.9583 76.62 15.8068L77.2678 15.9886C77.1996 16.2083 77.085 16.4015 76.924 16.5682C76.763 16.733 76.5642 16.8617 76.3274 16.9545C76.0907 17.0455 75.8246 17.0909 75.5291 17.0909ZM78.3558 17V12.6364H79.0036V13.2955H79.049C79.1286 13.0795 79.2725 12.9044 79.4808 12.7699C79.6892 12.6354 79.924 12.5682 80.1854 12.5682C80.2346 12.5682 80.2962 12.5691 80.37 12.571C80.4439 12.5729 80.4998 12.5758 80.5376 12.5795V13.2614C80.5149 13.2557 80.4628 13.2472 80.3814 13.2358C80.3018 13.2225 80.2176 13.2159 80.1286 13.2159C79.9164 13.2159 79.727 13.2604 79.5604 13.3494C79.3956 13.4366 79.2649 13.5578 79.1683 13.7131C79.0736 13.8665 79.0263 14.0417 79.0263 14.2386V17H78.3558Z" fill="white"/>
</g>
<rect x="0.5" y="0.5" width="88" height="27" rx="3.5" stroke="white" stroke-opacity="0.02"/>
<defs>
<filter id="filter0_dii_1_24" x="8.21875" y="4.46875" width="11.5625" height="19.0625" filterUnits="userSpaceOnUse" color-interpolation-filters="sRGB">
<feFlood flood-opacity="0" result="BackgroundImageFix"/>
<feColorMatrix in="SourceAlpha" type="matrix" values="0 0 0 0 0 0 0 0 0 0 0 0 0 0 0 0 0 0 127 0" result="hardAlpha"/>
<feOffset/>
<feGaussianBlur stdDeviation="0.625"/>
<feComposite in2="hardAlpha" operator="out"/>
<feColorMatrix type="matrix" values="0 0 0 0 0 0 0 0 0 0 0 0 0 0 0 0 0 0 0.25 0"/>
<feBlend mode="normal" in2="BackgroundImageFix" result="effect1_dropShadow_1_24"/>
<feBlend mode="normal" in="SourceGraphic" in2="effect1_dropShadow_1_24" result="shape"/>
<feColorMatrix in="SourceAlpha" type="matrix" values="0 0 0 0 0 0 0 0 0 0 0 0 0 0 0 0 0 0 127 0" result="hardAlpha"/>
<feOffset/>
<feGaussianBlur stdDeviation="0.3125"/>
<feComposite in2="hardAlpha" operator="arithmetic" k2="-1" k3="1"/>
<feColorMatrix type="matrix" values="0 0 0 0 0 0 0 0 0 0 0 0 0 0 0 0 0 0 0.2 0"/>
<feBlend mode="normal" in2="shape" result="effect2_innerShadow_1_24"/>
<feColorMatrix in="SourceAlpha" type="matrix" values="0 0 0 0 0 0 0 0 0 0 0 0 0 0 0 0 0 0 127 0" result="hardAlpha"/>
<feOffset/>
<feGaussianBlur stdDeviation="0.125"/>
<feComposite in2="hardAlpha" operator="arithmetic" k2="-1" k3="1"/>
<feColorMatrix type="matrix" values="0 0 0 0 1 0 0 0 0 1 0 0 0 0 1 0 0 0 0.3 0"/>
<feBlend mode="normal" in2="effect2_innerShadow_1_24" result="effect3_innerShadow_1_24"/>
</filter>
<filter id="filter1_dii_1_24" x="8.21875" y="4.46875" width="11.5625" height="19.0625" filterUnits="userSpaceOnUse" color-interpolation-filters="sRGB">
<feFlood flood-opacity="0" result="BackgroundImageFix"/>
<feColorMatrix in="SourceAlpha" type="matrix" values="0 0 0 0 0 0 0 0 0 0 0 0 0 0 0 0 0 0 127 0" result="hardAlpha"/>
<feOffset/>
<feGaussianBlur stdDeviation="0.625"/>
<feComposite in2="hardAlpha" operator="out"/>
<feColorMatrix type="matrix" values="0 0 0 0 0 0 0 0 0 0 0 0 0 0 0 0 0 0 0.25 0"/>
<feBlend mode="normal" in2="BackgroundImageFix" result="effect1_dropShadow_1_24"/>
<feBlend mode="normal" in="SourceGraphic" in2="effect1_dropShadow_1_24" result="shape"/>
<feColorMatrix in="SourceAlpha" type="matrix" values="0 0 0 0 0 0 0 0 0 0 0 0 0 0 0 0 0 0 127 0" result="hardAlpha"/>
<feOffset/>
<feGaussianBlur stdDeviation="0.3125"/>
<feComposite in2="hardAlpha" operator="arithmetic" k2="-1" k3="1"/>
<feColorMatrix type="matrix" values="0 0 0 0 0 0 0 0 0 0 0 0 0 0 0 0 0 0 0.2 0"/>
<feBlend mode="normal" in2="shape" result="effect2_innerShadow_1_24"/>
<feColorMatrix in="SourceAlpha" type="matrix" values="0 0 0 0 0 0 0 0 0 0 0 0 0 0 0 0 0 0 127 0" result="hardAlpha"/>
<feOffset/>
<feGaussianBlur stdDeviation="0.125"/>
<feComposite in2="hardAlpha" operator="arithmetic" k2="-1" k3="1"/>
<feColorMatrix type="matrix" values="0 0 0 0 1 0 0 0 0 1 0 0 0 0 1 0 0 0 0.3 0"/>
<feBlend mode="normal" in2="effect2_innerShadow_1_24" result="effect3_innerShadow_1_24"/>
</filter>
<filter id="filter2_d_1_24" x="23.5057" y="9.84943" width="58.032" height="8.25284" filterUnits="userSpaceOnUse" color-interpolation-filters="sRGB">
<feFlood flood-opacity="0" result="BackgroundImageFix"/>
<feColorMatrix in="SourceAlpha" type="matrix" values="0 0 0 0 0 0 0 0 0 0 0 0 0 0 0 0 0 0 127 0" result="hardAlpha"/>
<feOffset/>
<feGaussianBlur stdDeviation="0.5"/>
<feComposite in2="hardAlpha" operator="out"/>
<feColorMatrix type="matrix" values="0 0 0 0 0 0 0 0 0 0 0 0 0 0 0 0 0 0 0.35 0"/>
<feBlend mode="normal" in2="BackgroundImageFix" result="effect1_dropShadow_1_24"/>
<feBlend mode="normal" in="SourceGraphic" in2="effect1_dropShadow_1_24" result="shape"/>
</filter>
<linearGradient id="paint0_linear_1_24" x1="22.9453" y1="-19.25" x2="39.1963" y2="53.0668" gradientUnits="userSpaceOnUse">
<stop stop-color="#332A32"/>
<stop offset="0.25" stop-color="#242531"/>
<stop offset="0.5" stop-color="#1B2C1E"/>
<stop offset="0.75" stop-color="#2B2C18"/>
<stop offset="1" stop-color="#371818"/>
</linearGradient>
<linearGradient id="paint1_linear_1_24" x1="14" y1="6.5" x2="14" y2="21.5" gradientUnits="userSpaceOnUse">
<stop stop-color="#EB60DD"/>
<stop offset="0.489583" stop-color="#6066EA"/>
<stop offset="0.958333" stop-color="#69EC7E"/>
</linearGradient>
<linearGradient id="paint2_linear_1_24" x1="14" y1="6.5" x2="14" y2="21.5" gradientUnits="userSpaceOnUse">
<stop stop-color="#DEE154"/>
<stop offset="1" stop-color="#E75A5A"/>
</linearGradient>
<linearGradient id="paint3_linear_1_24" x1="24.5" y1="11" x2="33.8798" y2="23.9617" gradientUnits="userSpaceOnUse">
<stop stop-color="#E75A5A"/>
<stop offset="0.5" stop-color="#69EC7E"/>
<stop offset="1" stop-color="#6066EA"/>
</linearGradient>
</defs>
</svg>
