<svg width="72" height="32" viewBox="0 0 72 32" fill="none" xmlns="http://www.w3.org/2000/svg">
<rect width="72" height="32" fill="url(#paint0_linear_5_19)"/>
<g filter="url(#filter0_dii_5_19)">
<path d="M19.75 23.5C19.75 23 19.75 24.4 19.75 22C19.75 17.5 12.25 14.5 12.25 10C12.25 7.6 12.25 9.25 12.25 8.5" stroke="url(#paint1_linear_5_19)" stroke-width="1.5625" stroke-linecap="round"/>
</g>
<g filter="url(#filter1_dii_5_19)">
<path d="M12.25 23.5C12.25 23 12.25 24.4 12.25 22C12.25 17.5 19.75 14.5 19.75 10C19.75 7.6 19.75 9.25 19.75 8.5" stroke="url(#paint2_linear_5_19)" stroke-width="1.5625" stroke-linecap="round"/>
</g>
<g filter="url(#filter2_d_5_19)">
<path d="M28.5057 16V10.1818H29.7358V12.5824H32.233V10.1818H33.4602V16H32.233V13.5966H29.7358V16H28.5057ZM36.4403 16.0852C35.9915 16.0852 35.6051 15.9943 35.2812 15.8125C34.9593 15.6288 34.7112 15.3693 34.5369 15.0341C34.3627 14.697 34.2756 14.2983 34.2756 13.8381C34.2756 13.3892 34.3627 12.9953 34.5369 12.6562C34.7112 12.3172 34.9564 12.053 35.2727 11.8636C35.5909 11.6742 35.964 11.5795 36.392 11.5795C36.6799 11.5795 36.9479 11.6259 37.196 11.7188C37.446 11.8097 37.6638 11.947 37.8494 12.1307C38.0369 12.3144 38.1828 12.5455 38.2869 12.8239C38.3911 13.1004 38.4432 13.4242 38.4432 13.7955V14.1278H34.7585V13.3778H37.304C37.304 13.2036 37.2661 13.0492 37.1903 12.9148C37.1146 12.7803 37.0095 12.6752 36.875 12.5994C36.7424 12.5218 36.5881 12.483 36.4119 12.483C36.2282 12.483 36.0653 12.5256 35.9233 12.6108C35.7831 12.6941 35.6733 12.8068 35.5938 12.9489C35.5142 13.089 35.4735 13.2453 35.4716 13.4176V14.1307C35.4716 14.3466 35.5114 14.5331 35.5909 14.6903C35.6723 14.8475 35.7869 14.9688 35.9347 15.054C36.0824 15.1392 36.2576 15.1818 36.4602 15.1818C36.5947 15.1818 36.7178 15.1629 36.8295 15.125C36.9413 15.0871 37.0369 15.0303 37.1165 14.9545C37.196 14.8788 37.2566 14.786 37.2983 14.6761L38.4176 14.75C38.3608 15.0189 38.2443 15.2538 38.0682 15.4545C37.8939 15.6534 37.6686 15.8087 37.392 15.9205C37.1174 16.0303 36.8002 16.0852 36.4403 16.0852ZM40.4432 10.1818V16H39.233V10.1818H40.4432ZM41.4126 16V11.6364H42.6229V16H41.4126ZM42.0206 11.0739C41.8407 11.0739 41.6863 11.0142 41.5575 10.8949C41.4306 10.7737 41.3672 10.6288 41.3672 10.4602C41.3672 10.2936 41.4306 10.1506 41.5575 10.0312C41.6863 9.91004 41.8407 9.84943 42.0206 9.84943C42.2005 9.84943 42.3539 9.91004 42.4808 10.0312C42.6096 10.1506 42.674 10.2936 42.674 10.4602C42.674 10.6288 42.6096 10.7737 42.4808 10.8949C42.3539 11.0142 42.2005 11.0739 42.0206 11.0739ZM44.6037 11.6364L45.4048 13.1619L46.2259 11.6364H47.4673L46.2031 13.8182L47.5014 16H46.2656L45.4048 14.4915L44.5582 16H43.3082L44.6037 13.8182L43.3537 11.6364H44.6037Z" fill="url(#paint3_linear_5_19)"/>
<path d="M28.7045 23V17.1818H29.4091V22.375H32.1136V23H28.7045ZM34.3977 23.1023C34.1212 23.1023 33.8703 23.0502 33.6449 22.946C33.4195 22.84 33.2405 22.6875 33.108 22.4886C32.9754 22.2879 32.9091 22.0455 32.9091 21.7614C32.9091 21.5114 32.9583 21.3087 33.0568 21.1534C33.1553 20.9962 33.2869 20.8731 33.4517 20.7841C33.6165 20.6951 33.7983 20.6288 33.9972 20.5852C34.1979 20.5398 34.3996 20.5038 34.6023 20.4773C34.8674 20.4432 35.0824 20.4176 35.2472 20.4006C35.4138 20.3816 35.535 20.3504 35.6108 20.3068C35.6884 20.2633 35.7273 20.1875 35.7273 20.0795V20.0568C35.7273 19.7765 35.6506 19.5587 35.4972 19.4034C35.3456 19.2481 35.1155 19.1705 34.8068 19.1705C34.4867 19.1705 34.2358 19.2405 34.054 19.3807C33.8722 19.5208 33.7443 19.6705 33.6705 19.8295L33.0341 19.6023C33.1477 19.3371 33.2992 19.1307 33.4886 18.983C33.6799 18.8333 33.8883 18.7292 34.1136 18.6705C34.3409 18.6098 34.5644 18.5795 34.7841 18.5795C34.9242 18.5795 35.0852 18.5966 35.267 18.6307C35.4508 18.6629 35.6278 18.7301 35.7983 18.8324C35.9706 18.9347 36.1136 19.089 36.2273 19.2955C36.3409 19.5019 36.3977 19.7784 36.3977 20.125V23H35.7273V22.4091H35.6932C35.6477 22.5038 35.572 22.6051 35.4659 22.7131C35.3598 22.821 35.2188 22.9129 35.0426 22.9886C34.8665 23.0644 34.6515 23.1023 34.3977 23.1023ZM34.5 22.5C34.7652 22.5 34.9886 22.4479 35.1705 22.3438C35.3542 22.2396 35.4924 22.1051 35.5852 21.9403C35.6799 21.7756 35.7273 21.6023 35.7273 21.4205V20.8068C35.6989 20.8409 35.6364 20.8722 35.5398 20.9006C35.4451 20.9271 35.3352 20.9508 35.2102 20.9716C35.0871 20.9905 34.9669 21.0076 34.8494 21.0227C34.7339 21.036 34.6402 21.0473 34.5682 21.0568C34.3939 21.0795 34.2311 21.1165 34.0795 21.1676C33.9299 21.2169 33.8087 21.2917 33.7159 21.392C33.625 21.4905 33.5795 21.625 33.5795 21.7955C33.5795 22.0284 33.6657 22.2045 33.8381 22.3239C34.0123 22.4413 34.233 22.5 34.5 22.5ZM40.3714 21.2159V18.6364H41.0419V23H40.3714V22.2614H40.326C40.2237 22.483 40.0646 22.6714 39.8487 22.8267C39.6328 22.9801 39.3601 23.0568 39.0305 23.0568C38.7578 23.0568 38.5154 22.9972 38.3033 22.8778C38.0911 22.7566 37.9245 22.5748 37.8033 22.3324C37.6821 22.0881 37.6214 21.7803 37.6214 21.4091V18.6364H38.2919V21.3636C38.2919 21.6818 38.3809 21.9356 38.5589 22.125C38.7389 22.3144 38.968 22.4091 39.2464 22.4091C39.4131 22.4091 39.5826 22.3665 39.755 22.2812C39.9292 22.196 40.075 22.0653 40.1925 21.8892C40.3118 21.7131 40.3714 21.4886 40.3714 21.2159ZM42.9403 20.375V23H42.2699V18.6364H42.9176V19.3182H42.9744C43.0767 19.0966 43.232 18.9186 43.4403 18.7841C43.6487 18.6477 43.9176 18.5795 44.2472 18.5795C44.5426 18.5795 44.8011 18.6402 45.0227 18.7614C45.2443 18.8807 45.4167 19.0625 45.5398 19.3068C45.6629 19.5492 45.7244 19.8561 45.7244 20.2273V23H45.054V20.2727C45.054 19.9299 44.965 19.6629 44.7869 19.4716C44.6089 19.2784 44.3646 19.1818 44.054 19.1818C43.84 19.1818 43.6487 19.2282 43.4801 19.321C43.3134 19.4138 43.1818 19.5492 43.0852 19.7273C42.9886 19.9053 42.9403 20.1212 42.9403 20.375ZM48.7223 23.0909C48.3132 23.0909 47.9609 22.9943 47.6655 22.8011C47.37 22.608 47.1428 22.3419 46.9837 22.0028C46.8246 21.6638 46.745 21.2765 46.745 20.8409C46.745 20.3977 46.8265 20.0066 46.9893 19.6676C47.1541 19.3267 47.3833 19.0606 47.6768 18.8693C47.9723 18.6761 48.317 18.5795 48.7109 18.5795C49.0178 18.5795 49.2943 18.6364 49.5405 18.75C49.7867 18.8636 49.9884 19.0227 50.1456 19.2273C50.3028 19.4318 50.4003 19.6705 50.4382 19.9432H49.7678C49.7166 19.7443 49.603 19.5682 49.4268 19.4148C49.2526 19.2595 49.0178 19.1818 48.7223 19.1818C48.4609 19.1818 48.2318 19.25 48.0348 19.3864C47.8397 19.5208 47.6873 19.7112 47.5774 19.9574C47.4695 20.2017 47.4155 20.4886 47.4155 20.8182C47.4155 21.1553 47.4685 21.4489 47.5746 21.6989C47.6825 21.9489 47.834 22.143 48.0291 22.2812C48.2261 22.4195 48.4571 22.4886 48.7223 22.4886C48.8965 22.4886 49.0547 22.4583 49.1967 22.3977C49.3388 22.3371 49.459 22.25 49.5575 22.1364C49.656 22.0227 49.7261 21.8864 49.7678 21.7273H50.4382C50.4003 21.9848 50.3066 22.2169 50.157 22.4233C50.0092 22.6278 49.8132 22.7907 49.5689 22.9119C49.3265 23.0312 49.0443 23.0909 48.7223 23.0909ZM52.0888 20.375V23H51.4183V17.1818H52.0888V19.3182H52.1456C52.2479 19.0928 52.4013 18.9138 52.6058 18.7812C52.8123 18.6468 53.0869 18.5795 53.4297 18.5795C53.727 18.5795 53.9875 18.6392 54.2109 18.7585C54.4344 18.8759 54.6077 19.0568 54.7308 19.3011C54.8558 19.5436 54.9183 19.8523 54.9183 20.2273V23H54.2479V20.2727C54.2479 19.9261 54.1579 19.6581 53.978 19.4688C53.8 19.2775 53.5528 19.1818 53.2365 19.1818C53.0168 19.1818 52.8198 19.2282 52.6456 19.321C52.4732 19.4138 52.3369 19.5492 52.2365 19.7273C52.138 19.9053 52.0888 20.1212 52.0888 20.375ZM57.9744 23.0909C57.554 23.0909 57.1913 22.9981 56.8864 22.8125C56.5833 22.625 56.3494 22.3636 56.1847 22.0284C56.0218 21.6913 55.9403 21.2992 55.9403 20.8523C55.9403 20.4053 56.0218 20.0114 56.1847 19.6705C56.3494 19.3277 56.5786 19.0606 56.8722 18.8693C57.1676 18.6761 57.5123 18.5795 57.9062 18.5795C58.1335 18.5795 58.358 18.6174 58.5795 18.6932C58.8011 18.7689 59.0028 18.892 59.1847 19.0625C59.3665 19.2311 59.5114 19.4545 59.6193 19.733C59.7273 20.0114 59.7812 20.3542 59.7812 20.7614V21.0455H56.4176V20.4659H59.0994C59.0994 20.2197 59.0502 20 58.9517 19.8068C58.8551 19.6136 58.7169 19.4612 58.5369 19.3494C58.3589 19.2377 58.1487 19.1818 57.9062 19.1818C57.6392 19.1818 57.4081 19.2481 57.2131 19.3807C57.0199 19.5114 56.8712 19.6818 56.767 19.892C56.6629 20.1023 56.6108 20.3277 56.6108 20.5682V20.9545C56.6108 21.2841 56.6676 21.5634 56.7812 21.7926C56.8968 22.0199 57.0568 22.1932 57.2614 22.3125C57.4659 22.4299 57.7036 22.4886 57.9744 22.4886C58.1506 22.4886 58.3097 22.464 58.4517 22.4148C58.5956 22.3636 58.7197 22.2879 58.8239 22.1875C58.928 22.0852 59.0085 21.9583 59.0653 21.8068L59.7131 21.9886C59.6449 22.2083 59.5303 22.4015 59.3693 22.5682C59.2083 22.733 59.0095 22.8617 58.7727 22.9545C58.536 23.0455 58.2699 23.0909 57.9744 23.0909ZM60.8011 23V18.6364H61.4489V19.2955H61.4943C61.5739 19.0795 61.7178 18.9044 61.9261 18.7699C62.1345 18.6354 62.3693 18.5682 62.6307 18.5682C62.6799 18.5682 62.7415 18.5691 62.8153 18.571C62.8892 18.5729 62.9451 18.5758 62.983 18.5795V19.2614C62.9602 19.2557 62.9081 19.2472 62.8267 19.2358C62.7472 19.2225 62.6629 19.2159 62.5739 19.2159C62.3617 19.2159 62.1723 19.2604 62.0057 19.3494C61.8409 19.4366 61.7102 19.5578 61.6136 19.7131C61.5189 19.8665 61.4716 20.0417 61.4716 20.2386V23H60.8011Z" fill="white"/>
</g>
<rect x="0.5" y="0.5" width="71" height="31" stroke="white" stroke-opacity="0.02"/>
<defs>
<filter id="filter0_dii_5_19" x="10.2188" y="6.46875" width="11.5625" height="19.0625" filterUnits="userSpaceOnUse" color-interpolation-filters="sRGB">
<feFlood flood-opacity="0" result="BackgroundImageFix"/>
<feColorMatrix in="SourceAlpha" type="matrix" values="0 0 0 0 0 0 0 0 0 0 0 0 0 0 0 0 0 0 127 0" result="hardAlpha"/>
<feOffset/>
<feGaussianBlur stdDeviation="0.625"/>
<feComposite in2="hardAlpha" operator="out"/>
<feColorMatrix type="matrix" values="0 0 0 0 0 0 0 0 0 0 0 0 0 0 0 0 0 0 0.25 0"/>
<feBlend mode="normal" in2="BackgroundImageFix" result="effect1_dropShadow_5_19"/>
<feBlend mode="normal" in="SourceGraphic" in2="effect1_dropShadow_5_19" result="shape"/>
<feColorMatrix in="SourceAlpha" type="matrix" values="0 0 0 0 0 0 0 0 0 0 0 0 0 0 0 0 0 0 127 0" result="hardAlpha"/>
<feOffset/>
<feGaussianBlur stdDeviation="0.3125"/>
<feComposite in2="hardAlpha" operator="arithmetic" k2="-1" k3="1"/>
<feColorMatrix type="matrix" values="0 0 0 0 0 0 0 0 0 0 0 0 0 0 0 0 0 0 0.2 0"/>
<feBlend mode="normal" in2="shape" result="effect2_innerShadow_5_19"/>
<feColorMatrix in="SourceAlpha" type="matrix" values="0 0 0 0 0 0 0 0 0 0 0 0 0 0 0 0 0 0 127 0" result="hardAlpha"/>
<feOffset/>
<feGaussianBlur stdDeviation="0.125"/>
<feComposite in2="hardAlpha" operator="arithmetic" k2="-1" k3="1"/>
<feColorMatrix type="matrix" values="0 0 0 0 1 0 0 0 0 1 0 0 0 0 1 0 0 0 0.3 0"/>
<feBlend mode="normal" in2="effect2_innerShadow_5_19" result="effect3_innerShadow_5_19"/>
</filter>
<filter id="filter1_dii_5_19" x="10.2188" y="6.46875" width="11.5625" height="19.0625" filterUnits="userSpaceOnUse" color-interpolation-filters="sRGB">
<feFlood flood-opacity="0" result="BackgroundImageFix"/>
<feColorMatrix in="SourceAlpha" type="matrix" values="0 0 0 0 0 0 0 0 0 0 0 0 0 0 0 0 0 0 127 0" result="hardAlpha"/>
<feOffset/>
<feGaussianBlur stdDeviation="0.625"/>
<feComposite in2="hardAlpha" operator="out"/>
<feColorMatrix type="matrix" values="0 0 0 0 0 0 0 0 0 0 0 0 0 0 0 0 0 0 0.25 0"/>
<feBlend mode="normal" in2="BackgroundImageFix" result="effect1_dropShadow_5_19"/>
<feBlend mode="normal" in="SourceGraphic" in2="effect1_dropShadow_5_19" result="shape"/>
<feColorMatrix in="SourceAlpha" type="matrix" values="0 0 0 0 0 0 0 0 0 0 0 0 0 0 0 0 0 0 127 0" result="hardAlpha"/>
<feOffset/>
<feGaussianBlur stdDeviation="0.3125"/>
<feComposite in2="hardAlpha" operator="arithmetic" k2="-1" k3="1"/>
<feColorMatrix type="matrix" values="0 0 0 0 0 0 0 0 0 0 0 0 0 0 0 0 0 0 0.2 0"/>
<feBlend mode="normal" in2="shape" result="effect2_innerShadow_5_19"/>
<feColorMatrix in="SourceAlpha" type="matrix" values="0 0 0 0 0 0 0 0 0 0 0 0 0 0 0 0 0 0 127 0" result="hardAlpha"/>
<feOffset/>
<feGaussianBlur stdDeviation="0.125"/>
<feComposite in2="hardAlpha" operator="arithmetic" k2="-1" k3="1"/>
<feColorMatrix type="matrix" values="0 0 0 0 1 0 0 0 0 1 0 0 0 0 1 0 0 0 0.3 0"/>
<feBlend mode="normal" in2="effect2_innerShadow_5_19" result="effect3_innerShadow_5_19"/>
</filter>
<filter id="filter2_d_5_19" x="26.5057" y="7.84943" width="38.4773" height="17.2528" filterUnits="userSpaceOnUse" color-interpolation-filters="sRGB">
<feFlood flood-opacity="0" result="BackgroundImageFix"/>
<feColorMatrix in="SourceAlpha" type="matrix" values="0 0 0 0 0 0 0 0 0 0 0 0 0 0 0 0 0 0 127 0" result="hardAlpha"/>
<feOffset/>
<feGaussianBlur stdDeviation="1"/>
<feComposite in2="hardAlpha" operator="out"/>
<feColorMatrix type="matrix" values="0 0 0 0 0 0 0 0 0 0 0 0 0 0 0 0 0 0 0.25 0"/>
<feBlend mode="normal" in2="BackgroundImageFix" result="effect1_dropShadow_5_19"/>
<feBlend mode="normal" in="SourceGraphic" in2="effect1_dropShadow_5_19" result="shape"/>
</filter>
<linearGradient id="paint0_linear_5_19" x1="18.5625" y1="-22" x2="43.6014" y2="56.8726" gradientUnits="userSpaceOnUse">
<stop stop-color="#262026"/>
<stop offset="0.25" stop-color="#1D1D26"/>
<stop offset="0.5" stop-color="#172419"/>
<stop offset="0.75" stop-color="#222213"/>
<stop offset="1" stop-color="#2E1414"/>
</linearGradient>
<linearGradient id="paint1_linear_5_19" x1="16" y1="8.5" x2="16" y2="23.5" gradientUnits="userSpaceOnUse">
<stop stop-color="#EB60DD"/>
<stop offset="0.489583" stop-color="#6066EA"/>
<stop offset="0.958333" stop-color="#69EC7E"/>
</linearGradient>
<linearGradient id="paint2_linear_5_19" x1="16" y1="8.5" x2="16" y2="23.5" gradientUnits="userSpaceOnUse">
<stop stop-color="#DEE154"/>
<stop offset="1" stop-color="#E75A5A"/>
</linearGradient>
<linearGradient id="paint3_linear_5_19" x1="30.5" y1="8" x2="47" y2="17" gradientUnits="userSpaceOnUse">
<stop stop-color="#E75A5A"/>
<stop offset="0.5" stop-color="#69EC7E"/>
<stop offset="1" stop-color="#6066EA"/>
</linearGradient>
</defs>
</svg>
