<svg width="83" height="22" viewBox="0 0 83 22" fill="none" xmlns="http://www.w3.org/2000/svg">
<rect width="83" height="22" rx="4" fill="url(#paint0_linear_1_24)" fill-opacity="0.9"/>
<g filter="url(#filter0_d_1_24)">
<g filter="url(#filter1_dii_1_24)">
<path d="M13 17C13 16.6 13 17.72 13 15.8C13 12.2 7 9.8 7 6.2C7 4.28 7 5.6 7 5" stroke="url(#paint1_linear_1_24)" stroke-width="1.75" stroke-linecap="round"/>
</g>
<g filter="url(#filter2_dii_1_24)">
<path d="M7 17C7 16.6 7 17.72 7 15.8C7 12.2 13 9.8 13 6.2C13 4.28 13 5.6 13 5" stroke="url(#paint2_linear_1_24)" stroke-width="1.75" stroke-linecap="round"/>
</g>
</g>
<g filter="url(#filter3_d_1_24)">
<path d="M19.4403 14V8.18182H20.8466V10.517H23.1392V8.18182H24.5426V14H23.1392V11.6619H20.8466V14H19.4403ZM27.4645 14.0824C27.008 14.0824 26.6141 13.9924 26.2827 13.8125C25.9531 13.6307 25.6993 13.3722 25.5213 13.0369C25.3452 12.6998 25.2571 12.2992 25.2571 11.8352C25.2571 11.3845 25.3461 10.9905 25.5241 10.6534C25.7022 10.3144 25.9531 10.0511 26.277 9.86364C26.6009 9.67424 26.9825 9.57955 27.4219 9.57955C27.7325 9.57955 28.0166 9.62784 28.2741 9.72443C28.5317 9.82102 28.7543 9.96402 28.9418 10.1534C29.1293 10.3428 29.2751 10.5767 29.3793 10.8551C29.4834 11.1316 29.5355 11.4489 29.5355 11.8068V12.1534H25.7429V11.3466H28.2429C28.241 11.1989 28.206 11.0672 28.1378 10.9517C28.0696 10.8362 27.9759 10.7462 27.8565 10.6818C27.7391 10.6155 27.6037 10.5824 27.4503 10.5824C27.295 10.5824 27.1558 10.6174 27.0327 10.6875C26.9096 10.7557 26.812 10.8494 26.7401 10.9688C26.6681 11.0862 26.6302 11.2197 26.6264 11.3693V12.1903C26.6264 12.3684 26.6615 12.5246 26.7315 12.6591C26.8016 12.7917 26.901 12.8949 27.0298 12.9688C27.1586 13.0426 27.312 13.0795 27.4901 13.0795C27.6132 13.0795 27.7249 13.0625 27.8253 13.0284C27.9257 12.9943 28.0118 12.9441 28.0838 12.8778C28.1558 12.8116 28.2098 12.7301 28.2457 12.6335L29.5213 12.6705C29.4683 12.9564 29.3518 13.2055 29.1719 13.4176C28.9938 13.6278 28.7599 13.7917 28.4702 13.9091C28.1804 14.0246 27.8452 14.0824 27.4645 14.0824ZM31.6342 8.18182V14H30.245V8.18182H31.6342ZM32.5185 14V9.63636H33.9077V14H32.5185ZM33.2145 9.12784C33.0194 9.12784 32.8518 9.06345 32.7116 8.93466C32.5715 8.80398 32.5014 8.64678 32.5014 8.46307C32.5014 8.28125 32.5715 8.12595 32.7116 7.99716C32.8518 7.86648 33.0194 7.80114 33.2145 7.80114C33.4115 7.80114 33.5791 7.86648 33.7173 7.99716C33.8575 8.12595 33.9276 8.28125 33.9276 8.46307C33.9276 8.64678 33.8575 8.80398 33.7173 8.93466C33.5791 9.06345 33.4115 9.12784 33.2145 9.12784ZM35.9737 9.63636L36.6925 11.0739L37.4368 9.63636H38.8374L37.6186 11.8182L38.8828 14H37.4936L36.6925 12.5511L35.9112 14H34.5021L35.7692 11.8182L34.5646 9.63636H35.9737Z" fill="url(#paint3_linear_1_24)"/>
<path d="M41.6548 14V8.18182H42.5327V13.2443H45.169V14H41.6548ZM47.3722 14.0966C47.0956 14.0966 46.8456 14.0455 46.6222 13.9432C46.3987 13.839 46.2216 13.6884 46.0909 13.4915C45.9621 13.2945 45.8977 13.053 45.8977 12.767C45.8977 12.5208 45.9451 12.3182 46.0398 12.1591C46.1345 12 46.2623 11.8741 46.4233 11.7812C46.5843 11.6884 46.7642 11.6184 46.9631 11.571C47.1619 11.5237 47.3646 11.4877 47.571 11.4631C47.8324 11.4328 48.0445 11.4081 48.2074 11.3892C48.3703 11.3684 48.4886 11.3352 48.5625 11.2898C48.6364 11.2443 48.6733 11.1705 48.6733 11.0682V11.0483C48.6733 10.8002 48.6032 10.608 48.4631 10.4716C48.3248 10.3352 48.1184 10.267 47.8438 10.267C47.5578 10.267 47.3324 10.3305 47.1676 10.4574C47.0047 10.5824 46.892 10.7216 46.8295 10.875L46.0312 10.6932C46.1259 10.428 46.2642 10.214 46.446 10.0511C46.6297 9.88636 46.8409 9.76705 47.0795 9.69318C47.3182 9.61742 47.5691 9.57955 47.8324 9.57955C48.0066 9.57955 48.1913 9.60038 48.3864 9.64205C48.5833 9.68182 48.767 9.75568 48.9375 9.86364C49.1098 9.97159 49.2509 10.1259 49.3608 10.3267C49.4706 10.5256 49.5256 10.7841 49.5256 11.1023V14H48.696V13.4034H48.6619C48.607 13.5133 48.5246 13.6212 48.4148 13.7273C48.3049 13.8333 48.1638 13.9214 47.9915 13.9915C47.8191 14.0616 47.6127 14.0966 47.3722 14.0966ZM47.5568 13.4148C47.7917 13.4148 47.9924 13.3684 48.1591 13.2756C48.3277 13.1828 48.4555 13.0616 48.5426 12.9119C48.6316 12.7604 48.6761 12.5985 48.6761 12.4261V11.8636C48.6458 11.8939 48.5871 11.9223 48.5 11.9489C48.4148 11.9735 48.3172 11.9953 48.2074 12.0142C48.0975 12.0312 47.9905 12.0473 47.8864 12.0625C47.7822 12.0758 47.6951 12.0871 47.625 12.0966C47.4602 12.1174 47.3097 12.1525 47.1733 12.2017C47.0388 12.2509 46.9309 12.322 46.8494 12.4148C46.7699 12.5057 46.7301 12.6269 46.7301 12.7784C46.7301 12.9886 46.8078 13.1477 46.9631 13.2557C47.1184 13.3617 47.3163 13.4148 47.5568 13.4148ZM53.4212 12.1903V9.63636H54.2734V14H53.4382V13.2443H53.3928C53.2924 13.4773 53.1314 13.6714 52.9098 13.8267C52.6901 13.9801 52.4164 14.0568 52.0888 14.0568C51.8085 14.0568 51.5604 13.9953 51.3445 13.8722C51.1304 13.7472 50.9619 13.5625 50.8388 13.3182C50.7176 13.0739 50.657 12.7718 50.657 12.4119V9.63636H51.5064V12.3097C51.5064 12.607 51.5888 12.8437 51.7536 13.0199C51.9183 13.196 52.1323 13.2841 52.3956 13.2841C52.5547 13.2841 52.7128 13.2443 52.87 13.1648C53.0291 13.0852 53.1607 12.965 53.2649 12.804C53.371 12.643 53.4231 12.4384 53.4212 12.1903ZM56.2642 11.4091V14H55.4148V9.63636H56.2301V10.3466H56.2841C56.3845 10.1155 56.5417 9.92992 56.7557 9.78977C56.9716 9.64962 57.2434 9.57955 57.571 9.57955C57.8684 9.57955 58.1288 9.64205 58.3523 9.76705C58.5758 9.89015 58.7491 10.0739 58.8722 10.3182C58.9953 10.5625 59.0568 10.8646 59.0568 11.2244V14H58.2074V11.3267C58.2074 11.0104 58.125 10.7633 57.9602 10.5852C57.7955 10.4053 57.5691 10.3153 57.2812 10.3153C57.0843 10.3153 56.9091 10.358 56.7557 10.4432C56.6042 10.5284 56.4839 10.6534 56.3949 10.8182C56.3078 10.9811 56.2642 11.178 56.2642 11.4091ZM62.0341 14.0881C61.6117 14.0881 61.2481 13.9924 60.9432 13.8011C60.6402 13.608 60.4072 13.3419 60.2443 13.0028C60.0814 12.6638 60 12.2756 60 11.8381C60 11.3949 60.0833 11.0038 60.25 10.6648C60.4167 10.3239 60.6515 10.0578 60.9545 9.86648C61.2576 9.67519 61.6146 9.57955 62.0256 9.57955C62.357 9.57955 62.6525 9.6411 62.9119 9.7642C63.1714 9.88542 63.3807 10.0559 63.5398 10.2756C63.7008 10.4953 63.7964 10.7519 63.8267 11.0455H63C62.9545 10.8409 62.8504 10.6648 62.6875 10.517C62.5265 10.3693 62.3106 10.2955 62.0398 10.2955C61.803 10.2955 61.5956 10.358 61.4176 10.483C61.2415 10.6061 61.1042 10.7822 61.0057 11.0114C60.9072 11.2386 60.858 11.5076 60.858 11.8182C60.858 12.1364 60.9063 12.411 61.0028 12.642C61.0994 12.8731 61.2358 13.0521 61.4119 13.179C61.59 13.3059 61.7992 13.3693 62.0398 13.3693C62.2008 13.3693 62.3466 13.34 62.4773 13.2812C62.6098 13.2206 62.7206 13.1345 62.8097 13.0227C62.9006 12.911 62.964 12.7765 63 12.6193H63.8267C63.7964 12.9015 63.7045 13.1534 63.5511 13.375C63.3977 13.5966 63.1922 13.7708 62.9347 13.8977C62.679 14.0246 62.3788 14.0881 62.0341 14.0881ZM65.5845 11.4091V14H64.7351V8.18182H65.5732V10.3466H65.6271C65.7294 10.1117 65.8857 9.92519 66.0959 9.78693C66.3061 9.64867 66.5807 9.57955 66.9197 9.57955C67.219 9.57955 67.4804 9.6411 67.7038 9.7642C67.9292 9.88731 68.1035 10.071 68.2266 10.3153C68.3516 10.5578 68.4141 10.8608 68.4141 11.2244V14H67.5646V11.3267C67.5646 11.0066 67.4822 10.7585 67.3175 10.5824C67.1527 10.4044 66.9235 10.3153 66.63 10.3153C66.4292 10.3153 66.2493 10.358 66.0902 10.4432C65.933 10.5284 65.8089 10.6534 65.718 10.8182C65.629 10.9811 65.5845 11.178 65.5845 11.4091ZM71.4283 14.0881C70.9983 14.0881 70.6281 13.9962 70.3175 13.8125C70.0088 13.6269 69.7701 13.3665 69.6016 13.0312C69.4349 12.6941 69.3516 12.2992 69.3516 11.8466C69.3516 11.3996 69.4349 11.0057 69.6016 10.6648C69.7701 10.3239 70.005 10.0578 70.3061 9.86648C70.6091 9.67519 70.9633 9.57955 71.3686 9.57955C71.6148 9.57955 71.8535 9.62027 72.0845 9.7017C72.3156 9.78314 72.523 9.91098 72.7067 10.0852C72.8904 10.2595 73.0353 10.4858 73.1413 10.7642C73.2474 11.0407 73.3004 11.3769 73.3004 11.7727V12.0739H69.8317V11.4375H72.468C72.468 11.214 72.4226 11.0161 72.3317 10.8438C72.2408 10.6695 72.1129 10.5322 71.9482 10.4318C71.7853 10.3314 71.594 10.2812 71.3743 10.2812C71.1357 10.2812 70.9273 10.34 70.7493 10.4574C70.5732 10.5729 70.4368 10.7244 70.3402 10.9119C70.2455 11.0975 70.1982 11.2992 70.1982 11.517V12.0142C70.1982 12.3059 70.2493 12.554 70.3516 12.7585C70.4557 12.9631 70.6006 13.1193 70.7862 13.2273C70.9718 13.3333 71.1887 13.3864 71.4368 13.3864C71.5978 13.3864 71.7446 13.3636 71.8771 13.3182C72.0097 13.2708 72.1243 13.2008 72.2209 13.108C72.3175 13.0152 72.3913 12.9006 72.4425 12.7642L73.2464 12.9091C73.1821 13.1458 73.0665 13.3532 72.8999 13.5312C72.7351 13.7074 72.5277 13.8447 72.2777 13.9432C72.0296 14.0398 71.7464 14.0881 71.4283 14.0881ZM74.2429 14V9.63636H75.0639V10.3295H75.1094C75.1889 10.0947 75.3291 9.91004 75.5298 9.77557C75.7325 9.6392 75.9616 9.57102 76.2173 9.57102C76.2704 9.57102 76.3329 9.57292 76.4048 9.5767C76.4787 9.58049 76.5365 9.58523 76.5781 9.59091V10.4034C76.544 10.3939 76.4834 10.3835 76.3963 10.3722C76.3092 10.3589 76.2221 10.3523 76.1349 10.3523C75.9342 10.3523 75.7552 10.3949 75.598 10.4801C75.4427 10.5634 75.3196 10.6799 75.2287 10.8295C75.1378 10.9773 75.0923 11.1458 75.0923 11.3352V14H74.2429Z" fill="white"/>
</g>
<rect x="0.375" y="0.375" width="82.25" height="21.25" rx="3.625" stroke="white" stroke-opacity="0.05" stroke-width="0.75"/>
<defs>
<filter id="filter0_d_1_24" x="5.125" y="3.125" width="9.75" height="15.75" filterUnits="userSpaceOnUse" color-interpolation-filters="sRGB">
<feFlood flood-opacity="0" result="BackgroundImageFix"/>
<feColorMatrix in="SourceAlpha" type="matrix" values="0 0 0 0 0 0 0 0 0 0 0 0 0 0 0 0 0 0 127 0" result="hardAlpha"/>
<feOffset/>
<feGaussianBlur stdDeviation="0.5"/>
<feComposite in2="hardAlpha" operator="out"/>
<feColorMatrix type="matrix" values="0 0 0 0 0 0 0 0 0 0 0 0 0 0 0 0 0 0 0.1 0"/>
<feBlend mode="normal" in2="BackgroundImageFix" result="effect1_dropShadow_1_24"/>
<feBlend mode="normal" in="SourceGraphic" in2="effect1_dropShadow_1_24" result="shape"/>
</filter>
<filter id="filter1_dii_1_24" x="5.125" y="3.125" width="9.75" height="15.75" filterUnits="userSpaceOnUse" color-interpolation-filters="sRGB">
<feFlood flood-opacity="0" result="BackgroundImageFix"/>
<feColorMatrix in="SourceAlpha" type="matrix" values="0 0 0 0 0 0 0 0 0 0 0 0 0 0 0 0 0 0 127 0" result="hardAlpha"/>
<feOffset/>
<feGaussianBlur stdDeviation="0.5"/>
<feComposite in2="hardAlpha" operator="out"/>
<feColorMatrix type="matrix" values="0 0 0 0 0 0 0 0 0 0 0 0 0 0 0 0 0 0 0.25 0"/>
<feBlend mode="normal" in2="BackgroundImageFix" result="effect1_dropShadow_1_24"/>
<feBlend mode="normal" in="SourceGraphic" in2="effect1_dropShadow_1_24" result="shape"/>
<feColorMatrix in="SourceAlpha" type="matrix" values="0 0 0 0 0 0 0 0 0 0 0 0 0 0 0 0 0 0 127 0" result="hardAlpha"/>
<feOffset/>
<feGaussianBlur stdDeviation="0.25"/>
<feComposite in2="hardAlpha" operator="arithmetic" k2="-1" k3="1"/>
<feColorMatrix type="matrix" values="0 0 0 0 0 0 0 0 0 0 0 0 0 0 0 0 0 0 0.2 0"/>
<feBlend mode="normal" in2="shape" result="effect2_innerShadow_1_24"/>
<feColorMatrix in="SourceAlpha" type="matrix" values="0 0 0 0 0 0 0 0 0 0 0 0 0 0 0 0 0 0 127 0" result="hardAlpha"/>
<feOffset/>
<feGaussianBlur stdDeviation="0.1"/>
<feComposite in2="hardAlpha" operator="arithmetic" k2="-1" k3="1"/>
<feColorMatrix type="matrix" values="0 0 0 0 1 0 0 0 0 1 0 0 0 0 1 0 0 0 0.3 0"/>
<feBlend mode="normal" in2="effect2_innerShadow_1_24" result="effect3_innerShadow_1_24"/>
</filter>
<filter id="filter2_dii_1_24" x="5.125" y="3.125" width="9.75" height="15.75" filterUnits="userSpaceOnUse" color-interpolation-filters="sRGB">
<feFlood flood-opacity="0" result="BackgroundImageFix"/>
<feColorMatrix in="SourceAlpha" type="matrix" values="0 0 0 0 0 0 0 0 0 0 0 0 0 0 0 0 0 0 127 0" result="hardAlpha"/>
<feOffset/>
<feGaussianBlur stdDeviation="0.5"/>
<feComposite in2="hardAlpha" operator="out"/>
<feColorMatrix type="matrix" values="0 0 0 0 0 0 0 0 0 0 0 0 0 0 0 0 0 0 0.25 0"/>
<feBlend mode="normal" in2="BackgroundImageFix" result="effect1_dropShadow_1_24"/>
<feBlend mode="normal" in="SourceGraphic" in2="effect1_dropShadow_1_24" result="shape"/>
<feColorMatrix in="SourceAlpha" type="matrix" values="0 0 0 0 0 0 0 0 0 0 0 0 0 0 0 0 0 0 127 0" result="hardAlpha"/>
<feOffset/>
<feGaussianBlur stdDeviation="0.25"/>
<feComposite in2="hardAlpha" operator="arithmetic" k2="-1" k3="1"/>
<feColorMatrix type="matrix" values="0 0 0 0 0 0 0 0 0 0 0 0 0 0 0 0 0 0 0.2 0"/>
<feBlend mode="normal" in2="shape" result="effect2_innerShadow_1_24"/>
<feColorMatrix in="SourceAlpha" type="matrix" values="0 0 0 0 0 0 0 0 0 0 0 0 0 0 0 0 0 0 127 0" result="hardAlpha"/>
<feOffset/>
<feGaussianBlur stdDeviation="0.1"/>
<feComposite in2="hardAlpha" operator="arithmetic" k2="-1" k3="1"/>
<feColorMatrix type="matrix" values="0 0 0 0 1 0 0 0 0 1 0 0 0 0 1 0 0 0 0.3 0"/>
<feBlend mode="normal" in2="effect2_innerShadow_1_24" result="effect3_innerShadow_1_24"/>
</filter>
<filter id="filter3_d_1_24" x="18.4403" y="6.80113" width="59.1378" height="8.29546" filterUnits="userSpaceOnUse" color-interpolation-filters="sRGB">
<feFlood flood-opacity="0" result="BackgroundImageFix"/>
<feColorMatrix in="SourceAlpha" type="matrix" values="0 0 0 0 0 0 0 0 0 0 0 0 0 0 0 0 0 0 127 0" result="hardAlpha"/>
<feOffset/>
<feGaussianBlur stdDeviation="0.5"/>
<feComposite in2="hardAlpha" operator="out"/>
<feColorMatrix type="matrix" values="0 0 0 0 0 0 0 0 0 0 0 0 0 0 0 0 0 0 0.35 0"/>
<feBlend mode="normal" in2="BackgroundImageFix" result="effect1_dropShadow_1_24"/>
<feBlend mode="normal" in="SourceGraphic" in2="effect1_dropShadow_1_24" result="shape"/>
</filter>
<linearGradient id="paint0_linear_1_24" x1="-2.13252e-06" y1="-10.5" x2="53.0247" y2="59.2783" gradientUnits="userSpaceOnUse">
<stop stop-color="#332A32"/>
<stop offset="0.25" stop-color="#242531"/>
<stop offset="0.5" stop-color="#1B2C1E"/>
<stop offset="0.75" stop-color="#2B2C18"/>
<stop offset="1" stop-color="#371818"/>
</linearGradient>
<linearGradient id="paint1_linear_1_24" x1="10" y1="5" x2="10" y2="17" gradientUnits="userSpaceOnUse">
<stop stop-color="#EB60DD"/>
<stop offset="0.489583" stop-color="#6066EA"/>
<stop offset="0.958333" stop-color="#69EC7E"/>
</linearGradient>
<linearGradient id="paint2_linear_1_24" x1="10" y1="5" x2="10" y2="17" gradientUnits="userSpaceOnUse">
<stop stop-color="#DEE154"/>
<stop offset="1" stop-color="#E75A5A"/>
</linearGradient>
<linearGradient id="paint3_linear_1_24" x1="19.617" y1="8" x2="29.025" y2="21.1412" gradientUnits="userSpaceOnUse">
<stop stop-color="#FF6565"/>
<stop offset="0.5" stop-color="#75FF8B"/>
<stop offset="1" stop-color="#696FFF"/>
</linearGradient>
</defs>
</svg>
