<svg width="90" height="32" viewBox="0 0 90 32" fill="none" xmlns="http://www.w3.org/2000/svg">
<rect width="90" height="32" rx="4" fill="url(#paint0_linear_1_24)"/>
<g filter="url(#filter0_dii_1_24)">
<path d="M28.75 23.5C28.75 23 28.75 24.4 28.75 22C28.75 17.5 21.25 14.5 21.25 10C21.25 7.6 21.25 9.25 21.25 8.5" stroke="url(#paint1_linear_1_24)" stroke-width="1.5625" stroke-linecap="round"/>
</g>
<g filter="url(#filter1_dii_1_24)">
<path d="M21.25 23.5C21.25 23 21.25 24.4 21.25 22C21.25 17.5 28.75 14.5 28.75 10C28.75 7.6 28.75 9.25 28.75 8.5" stroke="url(#paint2_linear_1_24)" stroke-width="1.5625" stroke-linecap="round"/>
</g>
<g filter="url(#filter2_d_1_24)">
<path d="M37.5057 16V10.1818H38.7358V12.5824H41.233V10.1818H42.4602V16H41.233V13.5966H38.7358V16H37.5057ZM45.4403 16.0852C44.9915 16.0852 44.6051 15.9943 44.2812 15.8125C43.9593 15.6288 43.7112 15.3693 43.5369 15.0341C43.3627 14.697 43.2756 14.2983 43.2756 13.8381C43.2756 13.3892 43.3627 12.9953 43.5369 12.6562C43.7112 12.3172 43.9564 12.053 44.2727 11.8636C44.5909 11.6742 44.964 11.5795 45.392 11.5795C45.6799 11.5795 45.9479 11.6259 46.196 11.7188C46.446 11.8097 46.6638 11.947 46.8494 12.1307C47.0369 12.3144 47.1828 12.5455 47.2869 12.8239C47.3911 13.1004 47.4432 13.4242 47.4432 13.7955V14.1278H43.7585V13.3778H46.304C46.304 13.2036 46.2661 13.0492 46.1903 12.9148C46.1146 12.7803 46.0095 12.6752 45.875 12.5994C45.7424 12.5218 45.5881 12.483 45.4119 12.483C45.2282 12.483 45.0653 12.5256 44.9233 12.6108C44.7831 12.6941 44.6733 12.8068 44.5938 12.9489C44.5142 13.089 44.4735 13.2453 44.4716 13.4176V14.1307C44.4716 14.3466 44.5114 14.5331 44.5909 14.6903C44.6723 14.8475 44.7869 14.9688 44.9347 15.054C45.0824 15.1392 45.2576 15.1818 45.4602 15.1818C45.5947 15.1818 45.7178 15.1629 45.8295 15.125C45.9413 15.0871 46.0369 15.0303 46.1165 14.9545C46.196 14.8788 46.2566 14.786 46.2983 14.6761L47.4176 14.75C47.3608 15.0189 47.2443 15.2538 47.0682 15.4545C46.8939 15.6534 46.6686 15.8087 46.392 15.9205C46.1174 16.0303 45.8002 16.0852 45.4403 16.0852ZM49.4432 10.1818V16H48.233V10.1818H49.4432ZM50.4126 16V11.6364H51.6229V16H50.4126ZM51.0206 11.0739C50.8407 11.0739 50.6863 11.0142 50.5575 10.8949C50.4306 10.7737 50.3672 10.6288 50.3672 10.4602C50.3672 10.2936 50.4306 10.1506 50.5575 10.0312C50.6863 9.91004 50.8407 9.84943 51.0206 9.84943C51.2005 9.84943 51.3539 9.91004 51.4808 10.0312C51.6096 10.1506 51.674 10.2936 51.674 10.4602C51.674 10.6288 51.6096 10.7737 51.4808 10.8949C51.3539 11.0142 51.2005 11.0739 51.0206 11.0739ZM53.6037 11.6364L54.4048 13.1619L55.2259 11.6364H56.4673L55.2031 13.8182L56.5014 16H55.2656L54.4048 14.4915L53.5582 16H52.3082L53.6037 13.8182L52.3537 11.6364H53.6037Z" fill="url(#paint3_linear_1_24)"/>
<path d="M37.7045 23V17.1818H38.4091V22.375H41.1136V23H37.7045ZM43.3977 23.1023C43.1212 23.1023 42.8703 23.0502 42.6449 22.946C42.4195 22.84 42.2405 22.6875 42.108 22.4886C41.9754 22.2879 41.9091 22.0455 41.9091 21.7614C41.9091 21.5114 41.9583 21.3087 42.0568 21.1534C42.1553 20.9962 42.2869 20.8731 42.4517 20.7841C42.6165 20.6951 42.7983 20.6288 42.9972 20.5852C43.1979 20.5398 43.3996 20.5038 43.6023 20.4773C43.8674 20.4432 44.0824 20.4176 44.2472 20.4006C44.4138 20.3816 44.535 20.3504 44.6108 20.3068C44.6884 20.2633 44.7273 20.1875 44.7273 20.0795V20.0568C44.7273 19.7765 44.6506 19.5587 44.4972 19.4034C44.3456 19.2481 44.1155 19.1705 43.8068 19.1705C43.4867 19.1705 43.2358 19.2405 43.054 19.3807C42.8722 19.5208 42.7443 19.6705 42.6705 19.8295L42.0341 19.6023C42.1477 19.3371 42.2992 19.1307 42.4886 18.983C42.6799 18.8333 42.8883 18.7292 43.1136 18.6705C43.3409 18.6098 43.5644 18.5795 43.7841 18.5795C43.9242 18.5795 44.0852 18.5966 44.267 18.6307C44.4508 18.6629 44.6278 18.7301 44.7983 18.8324C44.9706 18.9347 45.1136 19.089 45.2273 19.2955C45.3409 19.5019 45.3977 19.7784 45.3977 20.125V23H44.7273V22.4091H44.6932C44.6477 22.5038 44.572 22.6051 44.4659 22.7131C44.3598 22.821 44.2188 22.9129 44.0426 22.9886C43.8665 23.0644 43.6515 23.1023 43.3977 23.1023ZM43.5 22.5C43.7652 22.5 43.9886 22.4479 44.1705 22.3438C44.3542 22.2396 44.4924 22.1051 44.5852 21.9403C44.6799 21.7756 44.7273 21.6023 44.7273 21.4205V20.8068C44.6989 20.8409 44.6364 20.8722 44.5398 20.9006C44.4451 20.9271 44.3352 20.9508 44.2102 20.9716C44.0871 20.9905 43.9669 21.0076 43.8494 21.0227C43.7339 21.036 43.6402 21.0473 43.5682 21.0568C43.3939 21.0795 43.2311 21.1165 43.0795 21.1676C42.9299 21.2169 42.8087 21.2917 42.7159 21.392C42.625 21.4905 42.5795 21.625 42.5795 21.7955C42.5795 22.0284 42.6657 22.2045 42.8381 22.3239C43.0123 22.4413 43.233 22.5 43.5 22.5ZM49.3714 21.2159V18.6364H50.0419V23H49.3714V22.2614H49.326C49.2237 22.483 49.0646 22.6714 48.8487 22.8267C48.6328 22.9801 48.3601 23.0568 48.0305 23.0568C47.7578 23.0568 47.5154 22.9972 47.3033 22.8778C47.0911 22.7566 46.9245 22.5748 46.8033 22.3324C46.6821 22.0881 46.6214 21.7803 46.6214 21.4091V18.6364H47.2919V21.3636C47.2919 21.6818 47.3809 21.9356 47.5589 22.125C47.7389 22.3144 47.968 22.4091 48.2464 22.4091C48.4131 22.4091 48.5826 22.3665 48.755 22.2812C48.9292 22.196 49.075 22.0653 49.1925 21.8892C49.3118 21.7131 49.3714 21.4886 49.3714 21.2159ZM51.9403 20.375V23H51.2699V18.6364H51.9176V19.3182H51.9744C52.0767 19.0966 52.232 18.9186 52.4403 18.7841C52.6487 18.6477 52.9176 18.5795 53.2472 18.5795C53.5426 18.5795 53.8011 18.6402 54.0227 18.7614C54.2443 18.8807 54.4167 19.0625 54.5398 19.3068C54.6629 19.5492 54.7244 19.8561 54.7244 20.2273V23H54.054V20.2727C54.054 19.9299 53.965 19.6629 53.7869 19.4716C53.6089 19.2784 53.3646 19.1818 53.054 19.1818C52.84 19.1818 52.6487 19.2282 52.4801 19.321C52.3134 19.4138 52.1818 19.5492 52.0852 19.7273C51.9886 19.9053 51.9403 20.1212 51.9403 20.375ZM57.7223 23.0909C57.3132 23.0909 56.9609 22.9943 56.6655 22.8011C56.37 22.608 56.1428 22.3419 55.9837 22.0028C55.8246 21.6638 55.745 21.2765 55.745 20.8409C55.745 20.3977 55.8265 20.0066 55.9893 19.6676C56.1541 19.3267 56.3833 19.0606 56.6768 18.8693C56.9723 18.6761 57.317 18.5795 57.7109 18.5795C58.0178 18.5795 58.2943 18.6364 58.5405 18.75C58.7867 18.8636 58.9884 19.0227 59.1456 19.2273C59.3028 19.4318 59.4003 19.6705 59.4382 19.9432H58.7678C58.7166 19.7443 58.603 19.5682 58.4268 19.4148C58.2526 19.2595 58.0178 19.1818 57.7223 19.1818C57.4609 19.1818 57.2318 19.25 57.0348 19.3864C56.8397 19.5208 56.6873 19.7112 56.5774 19.9574C56.4695 20.2017 56.4155 20.4886 56.4155 20.8182C56.4155 21.1553 56.4685 21.4489 56.5746 21.6989C56.6825 21.9489 56.834 22.143 57.0291 22.2812C57.2261 22.4195 57.4571 22.4886 57.7223 22.4886C57.8965 22.4886 58.0547 22.4583 58.1967 22.3977C58.3388 22.3371 58.459 22.25 58.5575 22.1364C58.656 22.0227 58.7261 21.8864 58.7678 21.7273H59.4382C59.4003 21.9848 59.3066 22.2169 59.157 22.4233C59.0092 22.6278 58.8132 22.7907 58.5689 22.9119C58.3265 23.0312 58.0443 23.0909 57.7223 23.0909ZM61.0888 20.375V23H60.4183V17.1818H61.0888V19.3182H61.1456C61.2479 19.0928 61.4013 18.9138 61.6058 18.7812C61.8123 18.6468 62.0869 18.5795 62.4297 18.5795C62.727 18.5795 62.9875 18.6392 63.2109 18.7585C63.4344 18.8759 63.6077 19.0568 63.7308 19.3011C63.8558 19.5436 63.9183 19.8523 63.9183 20.2273V23H63.2479V20.2727C63.2479 19.9261 63.1579 19.6581 62.978 19.4688C62.8 19.2775 62.5528 19.1818 62.2365 19.1818C62.0168 19.1818 61.8198 19.2282 61.6456 19.321C61.4732 19.4138 61.3369 19.5492 61.2365 19.7273C61.138 19.9053 61.0888 20.1212 61.0888 20.375ZM66.9744 23.0909C66.554 23.0909 66.1913 22.9981 65.8864 22.8125C65.5833 22.625 65.3494 22.3636 65.1847 22.0284C65.0218 21.6913 64.9403 21.2992 64.9403 20.8523C64.9403 20.4053 65.0218 20.0114 65.1847 19.6705C65.3494 19.3277 65.5786 19.0606 65.8722 18.8693C66.1676 18.6761 66.5123 18.5795 66.9062 18.5795C67.1335 18.5795 67.358 18.6174 67.5795 18.6932C67.8011 18.7689 68.0028 18.892 68.1847 19.0625C68.3665 19.2311 68.5114 19.4545 68.6193 19.733C68.7273 20.0114 68.7812 20.3542 68.7812 20.7614V21.0455H65.4176V20.4659H68.0994C68.0994 20.2197 68.0502 20 67.9517 19.8068C67.8551 19.6136 67.7169 19.4612 67.5369 19.3494C67.3589 19.2377 67.1487 19.1818 66.9062 19.1818C66.6392 19.1818 66.4081 19.2481 66.2131 19.3807C66.0199 19.5114 65.8712 19.6818 65.767 19.892C65.6629 20.1023 65.6108 20.3277 65.6108 20.5682V20.9545C65.6108 21.2841 65.6676 21.5634 65.7812 21.7926C65.8968 22.0199 66.0568 22.1932 66.2614 22.3125C66.4659 22.4299 66.7036 22.4886 66.9744 22.4886C67.1506 22.4886 67.3097 22.464 67.4517 22.4148C67.5956 22.3636 67.7197 22.2879 67.8239 22.1875C67.928 22.0852 68.0085 21.9583 68.0653 21.8068L68.7131 21.9886C68.6449 22.2083 68.5303 22.4015 68.3693 22.5682C68.2083 22.733 68.0095 22.8617 67.7727 22.9545C67.536 23.0455 67.2699 23.0909 66.9744 23.0909ZM69.8011 23V18.6364H70.4489V19.2955H70.4943C70.5739 19.0795 70.7178 18.9044 70.9261 18.7699C71.1345 18.6354 71.3693 18.5682 71.6307 18.5682C71.6799 18.5682 71.7415 18.5691 71.8153 18.571C71.8892 18.5729 71.9451 18.5758 71.983 18.5795V19.2614C71.9602 19.2557 71.9081 19.2472 71.8267 19.2358C71.7472 19.2225 71.6629 19.2159 71.5739 19.2159C71.3617 19.2159 71.1723 19.2604 71.0057 19.3494C70.8409 19.4366 70.7102 19.5578 70.6136 19.7131C70.5189 19.8665 70.4716 20.0417 70.4716 20.2386V23H69.8011Z" fill="white"/>
</g>
<rect x="0.5" y="0.5" width="89" height="31" rx="3.5" stroke="white" stroke-opacity="0.02"/>
<defs>
<filter id="filter0_dii_1_24" x="19.2188" y="6.46875" width="11.5625" height="19.0625" filterUnits="userSpaceOnUse" color-interpolation-filters="sRGB">
<feFlood flood-opacity="0" result="BackgroundImageFix"/>
<feColorMatrix in="SourceAlpha" type="matrix" values="0 0 0 0 0 0 0 0 0 0 0 0 0 0 0 0 0 0 127 0" result="hardAlpha"/>
<feOffset/>
<feGaussianBlur stdDeviation="0.625"/>
<feComposite in2="hardAlpha" operator="out"/>
<feColorMatrix type="matrix" values="0 0 0 0 0 0 0 0 0 0 0 0 0 0 0 0 0 0 0.25 0"/>
<feBlend mode="normal" in2="BackgroundImageFix" result="effect1_dropShadow_1_24"/>
<feBlend mode="normal" in="SourceGraphic" in2="effect1_dropShadow_1_24" result="shape"/>
<feColorMatrix in="SourceAlpha" type="matrix" values="0 0 0 0 0 0 0 0 0 0 0 0 0 0 0 0 0 0 127 0" result="hardAlpha"/>
<feOffset/>
<feGaussianBlur stdDeviation="0.3125"/>
<feComposite in2="hardAlpha" operator="arithmetic" k2="-1" k3="1"/>
<feColorMatrix type="matrix" values="0 0 0 0 0 0 0 0 0 0 0 0 0 0 0 0 0 0 0.2 0"/>
<feBlend mode="normal" in2="shape" result="effect2_innerShadow_1_24"/>
<feColorMatrix in="SourceAlpha" type="matrix" values="0 0 0 0 0 0 0 0 0 0 0 0 0 0 0 0 0 0 127 0" result="hardAlpha"/>
<feOffset/>
<feGaussianBlur stdDeviation="0.125"/>
<feComposite in2="hardAlpha" operator="arithmetic" k2="-1" k3="1"/>
<feColorMatrix type="matrix" values="0 0 0 0 1 0 0 0 0 1 0 0 0 0 1 0 0 0 0.3 0"/>
<feBlend mode="normal" in2="effect2_innerShadow_1_24" result="effect3_innerShadow_1_24"/>
</filter>
<filter id="filter1_dii_1_24" x="19.2188" y="6.46875" width="11.5625" height="19.0625" filterUnits="userSpaceOnUse" color-interpolation-filters="sRGB">
<feFlood flood-opacity="0" result="BackgroundImageFix"/>
<feColorMatrix in="SourceAlpha" type="matrix" values="0 0 0 0 0 0 0 0 0 0 0 0 0 0 0 0 0 0 127 0" result="hardAlpha"/>
<feOffset/>
<feGaussianBlur stdDeviation="0.625"/>
<feComposite in2="hardAlpha" operator="out"/>
<feColorMatrix type="matrix" values="0 0 0 0 0 0 0 0 0 0 0 0 0 0 0 0 0 0 0.25 0"/>
<feBlend mode="normal" in2="BackgroundImageFix" result="effect1_dropShadow_1_24"/>
<feBlend mode="normal" in="SourceGraphic" in2="effect1_dropShadow_1_24" result="shape"/>
<feColorMatrix in="SourceAlpha" type="matrix" values="0 0 0 0 0 0 0 0 0 0 0 0 0 0 0 0 0 0 127 0" result="hardAlpha"/>
<feOffset/>
<feGaussianBlur stdDeviation="0.3125"/>
<feComposite in2="hardAlpha" operator="arithmetic" k2="-1" k3="1"/>
<feColorMatrix type="matrix" values="0 0 0 0 0 0 0 0 0 0 0 0 0 0 0 0 0 0 0.2 0"/>
<feBlend mode="normal" in2="shape" result="effect2_innerShadow_1_24"/>
<feColorMatrix in="SourceAlpha" type="matrix" values="0 0 0 0 0 0 0 0 0 0 0 0 0 0 0 0 0 0 127 0" result="hardAlpha"/>
<feOffset/>
<feGaussianBlur stdDeviation="0.125"/>
<feComposite in2="hardAlpha" operator="arithmetic" k2="-1" k3="1"/>
<feColorMatrix type="matrix" values="0 0 0 0 1 0 0 0 0 1 0 0 0 0 1 0 0 0 0.3 0"/>
<feBlend mode="normal" in2="effect2_innerShadow_1_24" result="effect3_innerShadow_1_24"/>
</filter>
<filter id="filter2_d_1_24" x="35.5057" y="7.84943" width="38.4773" height="17.2528" filterUnits="userSpaceOnUse" color-interpolation-filters="sRGB">
<feFlood flood-opacity="0" result="BackgroundImageFix"/>
<feColorMatrix in="SourceAlpha" type="matrix" values="0 0 0 0 0 0 0 0 0 0 0 0 0 0 0 0 0 0 127 0" result="hardAlpha"/>
<feOffset/>
<feGaussianBlur stdDeviation="1"/>
<feComposite in2="hardAlpha" operator="out"/>
<feColorMatrix type="matrix" values="0 0 0 0 0 0 0 0 0 0 0 0 0 0 0 0 0 0 0.25 0"/>
<feBlend mode="normal" in2="BackgroundImageFix" result="effect1_dropShadow_1_24"/>
<feBlend mode="normal" in="SourceGraphic" in2="effect1_dropShadow_1_24" result="shape"/>
</filter>
<linearGradient id="paint0_linear_1_24" x1="23.2031" y1="-22" x2="43.917" y2="59.5608" gradientUnits="userSpaceOnUse">
<stop stop-color="#262026"/>
<stop offset="0.25" stop-color="#1D1D26"/>
<stop offset="0.5" stop-color="#172419"/>
<stop offset="0.75" stop-color="#222213"/>
<stop offset="1" stop-color="#2E1414"/>
</linearGradient>
<linearGradient id="paint1_linear_1_24" x1="25" y1="8.5" x2="25" y2="23.5" gradientUnits="userSpaceOnUse">
<stop stop-color="#EB60DD"/>
<stop offset="0.489583" stop-color="#6066EA"/>
<stop offset="0.958333" stop-color="#69EC7E"/>
</linearGradient>
<linearGradient id="paint2_linear_1_24" x1="25" y1="8.5" x2="25" y2="23.5" gradientUnits="userSpaceOnUse">
<stop stop-color="#DEE154"/>
<stop offset="1" stop-color="#E75A5A"/>
</linearGradient>
<linearGradient id="paint3_linear_1_24" x1="39.5" y1="8" x2="56" y2="17" gradientUnits="userSpaceOnUse">
<stop stop-color="#E75A5A"/>
<stop offset="0.5" stop-color="#69EC7E"/>
<stop offset="1" stop-color="#6066EA"/>
</linearGradient>
</defs>
</svg>
