<svg width="112" height="32" viewBox="0 0 112 32" fill="none" xmlns="http://www.w3.org/2000/svg">
<rect width="112" height="32" rx="4" fill="url(#paint0_linear_5_20)"/>
<g filter="url(#filter0_dii_5_20)">
<path d="M39.75 23.5C39.75 23 39.75 24.4 39.75 22C39.75 17.5 32.25 14.5 32.25 10C32.25 7.6 32.25 9.25 32.25 8.5" stroke="url(#paint1_linear_5_20)" stroke-width="1.5625" stroke-linecap="round"/>
</g>
<g filter="url(#filter1_dii_5_20)">
<path d="M32.25 23.5C32.25 23 32.25 24.4 32.25 22C32.25 17.5 39.75 14.5 39.75 10C39.75 7.6 39.75 9.25 39.75 8.5" stroke="url(#paint2_linear_5_20)" stroke-width="1.5625" stroke-linecap="round"/>
</g>
<g filter="url(#filter2_d_5_20)">
<path d="M48.5057 16V10.1818H49.7358V12.5824H52.233V10.1818H53.4602V16H52.233V13.5966H49.7358V16H48.5057ZM56.4403 16.0852C55.9915 16.0852 55.6051 15.9943 55.2812 15.8125C54.9593 15.6288 54.7112 15.3693 54.5369 15.0341C54.3627 14.697 54.2756 14.2983 54.2756 13.8381C54.2756 13.3892 54.3627 12.9953 54.5369 12.6562C54.7112 12.3172 54.9564 12.053 55.2727 11.8636C55.5909 11.6742 55.964 11.5795 56.392 11.5795C56.6799 11.5795 56.9479 11.6259 57.196 11.7188C57.446 11.8097 57.6638 11.947 57.8494 12.1307C58.0369 12.3144 58.1828 12.5455 58.2869 12.8239C58.3911 13.1004 58.4432 13.4242 58.4432 13.7955V14.1278H54.7585V13.3778H57.304C57.304 13.2036 57.2661 13.0492 57.1903 12.9148C57.1146 12.7803 57.0095 12.6752 56.875 12.5994C56.7424 12.5218 56.5881 12.483 56.4119 12.483C56.2282 12.483 56.0653 12.5256 55.9233 12.6108C55.7831 12.6941 55.6733 12.8068 55.5938 12.9489C55.5142 13.089 55.4735 13.2453 55.4716 13.4176V14.1307C55.4716 14.3466 55.5114 14.5331 55.5909 14.6903C55.6723 14.8475 55.7869 14.9688 55.9347 15.054C56.0824 15.1392 56.2576 15.1818 56.4602 15.1818C56.5947 15.1818 56.7178 15.1629 56.8295 15.125C56.9413 15.0871 57.0369 15.0303 57.1165 14.9545C57.196 14.8788 57.2566 14.786 57.2983 14.6761L58.4176 14.75C58.3608 15.0189 58.2443 15.2538 58.0682 15.4545C57.8939 15.6534 57.6686 15.8087 57.392 15.9205C57.1174 16.0303 56.8002 16.0852 56.4403 16.0852ZM60.4432 10.1818V16H59.233V10.1818H60.4432ZM61.4126 16V11.6364H62.6229V16H61.4126ZM62.0206 11.0739C61.8407 11.0739 61.6863 11.0142 61.5575 10.8949C61.4306 10.7737 61.3672 10.6288 61.3672 10.4602C61.3672 10.2936 61.4306 10.1506 61.5575 10.0312C61.6863 9.91004 61.8407 9.84943 62.0206 9.84943C62.2005 9.84943 62.3539 9.91004 62.4808 10.0312C62.6096 10.1506 62.674 10.2936 62.674 10.4602C62.674 10.6288 62.6096 10.7737 62.4808 10.8949C62.3539 11.0142 62.2005 11.0739 62.0206 11.0739ZM64.6037 11.6364L65.4048 13.1619L66.2259 11.6364H67.4673L66.2031 13.8182L67.5014 16H66.2656L65.4048 14.4915L64.5582 16H63.3082L64.6037 13.8182L63.3537 11.6364H64.6037Z" fill="url(#paint3_linear_5_20)"/>
<path d="M48.7045 23V17.1818H49.4091V22.375H52.1136V23H48.7045ZM54.3977 23.1023C54.1212 23.1023 53.8703 23.0502 53.6449 22.946C53.4195 22.84 53.2405 22.6875 53.108 22.4886C52.9754 22.2879 52.9091 22.0455 52.9091 21.7614C52.9091 21.5114 52.9583 21.3087 53.0568 21.1534C53.1553 20.9962 53.2869 20.8731 53.4517 20.7841C53.6165 20.6951 53.7983 20.6288 53.9972 20.5852C54.1979 20.5398 54.3996 20.5038 54.6023 20.4773C54.8674 20.4432 55.0824 20.4176 55.2472 20.4006C55.4138 20.3816 55.535 20.3504 55.6108 20.3068C55.6884 20.2633 55.7273 20.1875 55.7273 20.0795V20.0568C55.7273 19.7765 55.6506 19.5587 55.4972 19.4034C55.3456 19.2481 55.1155 19.1705 54.8068 19.1705C54.4867 19.1705 54.2358 19.2405 54.054 19.3807C53.8722 19.5208 53.7443 19.6705 53.6705 19.8295L53.0341 19.6023C53.1477 19.3371 53.2992 19.1307 53.4886 18.983C53.6799 18.8333 53.8883 18.7292 54.1136 18.6705C54.3409 18.6098 54.5644 18.5795 54.7841 18.5795C54.9242 18.5795 55.0852 18.5966 55.267 18.6307C55.4508 18.6629 55.6278 18.7301 55.7983 18.8324C55.9706 18.9347 56.1136 19.089 56.2273 19.2955C56.3409 19.5019 56.3977 19.7784 56.3977 20.125V23H55.7273V22.4091H55.6932C55.6477 22.5038 55.572 22.6051 55.4659 22.7131C55.3598 22.821 55.2188 22.9129 55.0426 22.9886C54.8665 23.0644 54.6515 23.1023 54.3977 23.1023ZM54.5 22.5C54.7652 22.5 54.9886 22.4479 55.1705 22.3438C55.3542 22.2396 55.4924 22.1051 55.5852 21.9403C55.6799 21.7756 55.7273 21.6023 55.7273 21.4205V20.8068C55.6989 20.8409 55.6364 20.8722 55.5398 20.9006C55.4451 20.9271 55.3352 20.9508 55.2102 20.9716C55.0871 20.9905 54.9669 21.0076 54.8494 21.0227C54.7339 21.036 54.6402 21.0473 54.5682 21.0568C54.3939 21.0795 54.2311 21.1165 54.0795 21.1676C53.9299 21.2169 53.8087 21.2917 53.7159 21.392C53.625 21.4905 53.5795 21.625 53.5795 21.7955C53.5795 22.0284 53.6657 22.2045 53.8381 22.3239C54.0123 22.4413 54.233 22.5 54.5 22.5ZM60.3714 21.2159V18.6364H61.0419V23H60.3714V22.2614H60.326C60.2237 22.483 60.0646 22.6714 59.8487 22.8267C59.6328 22.9801 59.3601 23.0568 59.0305 23.0568C58.7578 23.0568 58.5154 22.9972 58.3033 22.8778C58.0911 22.7566 57.9245 22.5748 57.8033 22.3324C57.6821 22.0881 57.6214 21.7803 57.6214 21.4091V18.6364H58.2919V21.3636C58.2919 21.6818 58.3809 21.9356 58.5589 22.125C58.7389 22.3144 58.968 22.4091 59.2464 22.4091C59.4131 22.4091 59.5826 22.3665 59.755 22.2812C59.9292 22.196 60.075 22.0653 60.1925 21.8892C60.3118 21.7131 60.3714 21.4886 60.3714 21.2159ZM62.9403 20.375V23H62.2699V18.6364H62.9176V19.3182H62.9744C63.0767 19.0966 63.232 18.9186 63.4403 18.7841C63.6487 18.6477 63.9176 18.5795 64.2472 18.5795C64.5426 18.5795 64.8011 18.6402 65.0227 18.7614C65.2443 18.8807 65.4167 19.0625 65.5398 19.3068C65.6629 19.5492 65.7244 19.8561 65.7244 20.2273V23H65.054V20.2727C65.054 19.9299 64.965 19.6629 64.7869 19.4716C64.6089 19.2784 64.3646 19.1818 64.054 19.1818C63.84 19.1818 63.6487 19.2282 63.4801 19.321C63.3134 19.4138 63.1818 19.5492 63.0852 19.7273C62.9886 19.9053 62.9403 20.1212 62.9403 20.375ZM68.7223 23.0909C68.3132 23.0909 67.9609 22.9943 67.6655 22.8011C67.37 22.608 67.1428 22.3419 66.9837 22.0028C66.8246 21.6638 66.745 21.2765 66.745 20.8409C66.745 20.3977 66.8265 20.0066 66.9893 19.6676C67.1541 19.3267 67.3833 19.0606 67.6768 18.8693C67.9723 18.6761 68.317 18.5795 68.7109 18.5795C69.0178 18.5795 69.2943 18.6364 69.5405 18.75C69.7867 18.8636 69.9884 19.0227 70.1456 19.2273C70.3028 19.4318 70.4003 19.6705 70.4382 19.9432H69.7678C69.7166 19.7443 69.603 19.5682 69.4268 19.4148C69.2526 19.2595 69.0178 19.1818 68.7223 19.1818C68.4609 19.1818 68.2318 19.25 68.0348 19.3864C67.8397 19.5208 67.6873 19.7112 67.5774 19.9574C67.4695 20.2017 67.4155 20.4886 67.4155 20.8182C67.4155 21.1553 67.4685 21.4489 67.5746 21.6989C67.6825 21.9489 67.834 22.143 68.0291 22.2812C68.2261 22.4195 68.4571 22.4886 68.7223 22.4886C68.8965 22.4886 69.0547 22.4583 69.1967 22.3977C69.3388 22.3371 69.459 22.25 69.5575 22.1364C69.656 22.0227 69.7261 21.8864 69.7678 21.7273H70.4382C70.4003 21.9848 70.3066 22.2169 70.157 22.4233C70.0092 22.6278 69.8132 22.7907 69.5689 22.9119C69.3265 23.0312 69.0443 23.0909 68.7223 23.0909ZM72.0888 20.375V23H71.4183V17.1818H72.0888V19.3182H72.1456C72.2479 19.0928 72.4013 18.9138 72.6058 18.7812C72.8123 18.6468 73.0869 18.5795 73.4297 18.5795C73.727 18.5795 73.9875 18.6392 74.2109 18.7585C74.4344 18.8759 74.6077 19.0568 74.7308 19.3011C74.8558 19.5436 74.9183 19.8523 74.9183 20.2273V23H74.2479V20.2727C74.2479 19.9261 74.1579 19.6581 73.978 19.4688C73.8 19.2775 73.5528 19.1818 73.2365 19.1818C73.0168 19.1818 72.8198 19.2282 72.6456 19.321C72.4732 19.4138 72.3369 19.5492 72.2365 19.7273C72.138 19.9053 72.0888 20.1212 72.0888 20.375ZM77.9744 23.0909C77.554 23.0909 77.1913 22.9981 76.8864 22.8125C76.5833 22.625 76.3494 22.3636 76.1847 22.0284C76.0218 21.6913 75.9403 21.2992 75.9403 20.8523C75.9403 20.4053 76.0218 20.0114 76.1847 19.6705C76.3494 19.3277 76.5786 19.0606 76.8722 18.8693C77.1676 18.6761 77.5123 18.5795 77.9062 18.5795C78.1335 18.5795 78.358 18.6174 78.5795 18.6932C78.8011 18.7689 79.0028 18.892 79.1847 19.0625C79.3665 19.2311 79.5114 19.4545 79.6193 19.733C79.7273 20.0114 79.7812 20.3542 79.7812 20.7614V21.0455H76.4176V20.4659H79.0994C79.0994 20.2197 79.0502 20 78.9517 19.8068C78.8551 19.6136 78.7169 19.4612 78.5369 19.3494C78.3589 19.2377 78.1487 19.1818 77.9062 19.1818C77.6392 19.1818 77.4081 19.2481 77.2131 19.3807C77.0199 19.5114 76.8712 19.6818 76.767 19.892C76.6629 20.1023 76.6108 20.3277 76.6108 20.5682V20.9545C76.6108 21.2841 76.6676 21.5634 76.7812 21.7926C76.8968 22.0199 77.0568 22.1932 77.2614 22.3125C77.4659 22.4299 77.7036 22.4886 77.9744 22.4886C78.1506 22.4886 78.3097 22.464 78.4517 22.4148C78.5956 22.3636 78.7197 22.2879 78.8239 22.1875C78.928 22.0852 79.0085 21.9583 79.0653 21.8068L79.7131 21.9886C79.6449 22.2083 79.5303 22.4015 79.3693 22.5682C79.2083 22.733 79.0095 22.8617 78.7727 22.9545C78.536 23.0455 78.2699 23.0909 77.9744 23.0909ZM80.8011 23V18.6364H81.4489V19.2955H81.4943C81.5739 19.0795 81.7178 18.9044 81.9261 18.7699C82.1345 18.6354 82.3693 18.5682 82.6307 18.5682C82.6799 18.5682 82.7415 18.5691 82.8153 18.571C82.8892 18.5729 82.9451 18.5758 82.983 18.5795V19.2614C82.9602 19.2557 82.9081 19.2472 82.8267 19.2358C82.7472 19.2225 82.6629 19.2159 82.5739 19.2159C82.3617 19.2159 82.1723 19.2604 82.0057 19.3494C81.8409 19.4366 81.7102 19.5578 81.6136 19.7131C81.5189 19.8665 81.4716 20.0417 81.4716 20.2386V23H80.8011Z" fill="white"/>
</g>
<rect x="0.5" y="0.5" width="111" height="31" rx="3.5" stroke="white" stroke-opacity="0.02"/>
<defs>
<filter id="filter0_dii_5_20" x="30.2188" y="6.46875" width="11.5625" height="19.0625" filterUnits="userSpaceOnUse" color-interpolation-filters="sRGB">
<feFlood flood-opacity="0" result="BackgroundImageFix"/>
<feColorMatrix in="SourceAlpha" type="matrix" values="0 0 0 0 0 0 0 0 0 0 0 0 0 0 0 0 0 0 127 0" result="hardAlpha"/>
<feOffset/>
<feGaussianBlur stdDeviation="0.625"/>
<feComposite in2="hardAlpha" operator="out"/>
<feColorMatrix type="matrix" values="0 0 0 0 0 0 0 0 0 0 0 0 0 0 0 0 0 0 0.25 0"/>
<feBlend mode="normal" in2="BackgroundImageFix" result="effect1_dropShadow_5_20"/>
<feBlend mode="normal" in="SourceGraphic" in2="effect1_dropShadow_5_20" result="shape"/>
<feColorMatrix in="SourceAlpha" type="matrix" values="0 0 0 0 0 0 0 0 0 0 0 0 0 0 0 0 0 0 127 0" result="hardAlpha"/>
<feOffset/>
<feGaussianBlur stdDeviation="0.3125"/>
<feComposite in2="hardAlpha" operator="arithmetic" k2="-1" k3="1"/>
<feColorMatrix type="matrix" values="0 0 0 0 0 0 0 0 0 0 0 0 0 0 0 0 0 0 0.2 0"/>
<feBlend mode="normal" in2="shape" result="effect2_innerShadow_5_20"/>
<feColorMatrix in="SourceAlpha" type="matrix" values="0 0 0 0 0 0 0 0 0 0 0 0 0 0 0 0 0 0 127 0" result="hardAlpha"/>
<feOffset/>
<feGaussianBlur stdDeviation="0.125"/>
<feComposite in2="hardAlpha" operator="arithmetic" k2="-1" k3="1"/>
<feColorMatrix type="matrix" values="0 0 0 0 1 0 0 0 0 1 0 0 0 0 1 0 0 0 0.3 0"/>
<feBlend mode="normal" in2="effect2_innerShadow_5_20" result="effect3_innerShadow_5_20"/>
</filter>
<filter id="filter1_dii_5_20" x="30.2188" y="6.46875" width="11.5625" height="19.0625" filterUnits="userSpaceOnUse" color-interpolation-filters="sRGB">
<feFlood flood-opacity="0" result="BackgroundImageFix"/>
<feColorMatrix in="SourceAlpha" type="matrix" values="0 0 0 0 0 0 0 0 0 0 0 0 0 0 0 0 0 0 127 0" result="hardAlpha"/>
<feOffset/>
<feGaussianBlur stdDeviation="0.625"/>
<feComposite in2="hardAlpha" operator="out"/>
<feColorMatrix type="matrix" values="0 0 0 0 0 0 0 0 0 0 0 0 0 0 0 0 0 0 0.25 0"/>
<feBlend mode="normal" in2="BackgroundImageFix" result="effect1_dropShadow_5_20"/>
<feBlend mode="normal" in="SourceGraphic" in2="effect1_dropShadow_5_20" result="shape"/>
<feColorMatrix in="SourceAlpha" type="matrix" values="0 0 0 0 0 0 0 0 0 0 0 0 0 0 0 0 0 0 127 0" result="hardAlpha"/>
<feOffset/>
<feGaussianBlur stdDeviation="0.3125"/>
<feComposite in2="hardAlpha" operator="arithmetic" k2="-1" k3="1"/>
<feColorMatrix type="matrix" values="0 0 0 0 0 0 0 0 0 0 0 0 0 0 0 0 0 0 0.2 0"/>
<feBlend mode="normal" in2="shape" result="effect2_innerShadow_5_20"/>
<feColorMatrix in="SourceAlpha" type="matrix" values="0 0 0 0 0 0 0 0 0 0 0 0 0 0 0 0 0 0 127 0" result="hardAlpha"/>
<feOffset/>
<feGaussianBlur stdDeviation="0.125"/>
<feComposite in2="hardAlpha" operator="arithmetic" k2="-1" k3="1"/>
<feColorMatrix type="matrix" values="0 0 0 0 1 0 0 0 0 1 0 0 0 0 1 0 0 0 0.3 0"/>
<feBlend mode="normal" in2="effect2_innerShadow_5_20" result="effect3_innerShadow_5_20"/>
</filter>
<filter id="filter2_d_5_20" x="46.5057" y="7.84943" width="38.4773" height="17.2528" filterUnits="userSpaceOnUse" color-interpolation-filters="sRGB">
<feFlood flood-opacity="0" result="BackgroundImageFix"/>
<feColorMatrix in="SourceAlpha" type="matrix" values="0 0 0 0 0 0 0 0 0 0 0 0 0 0 0 0 0 0 127 0" result="hardAlpha"/>
<feOffset/>
<feGaussianBlur stdDeviation="1"/>
<feComposite in2="hardAlpha" operator="out"/>
<feColorMatrix type="matrix" values="0 0 0 0 0 0 0 0 0 0 0 0 0 0 0 0 0 0 0.25 0"/>
<feBlend mode="normal" in2="BackgroundImageFix" result="effect1_dropShadow_5_20"/>
<feBlend mode="normal" in="SourceGraphic" in2="effect1_dropShadow_5_20" result="shape"/>
</filter>
<linearGradient id="paint0_linear_5_20" x1="28.875" y1="-22" x2="45.8852" y2="61.35" gradientUnits="userSpaceOnUse">
<stop stop-color="#262026"/>
<stop offset="0.25" stop-color="#1D1D26"/>
<stop offset="0.5" stop-color="#172419"/>
<stop offset="0.75" stop-color="#222213"/>
<stop offset="1" stop-color="#2E1414"/>
</linearGradient>
<linearGradient id="paint1_linear_5_20" x1="36" y1="8.5" x2="36" y2="23.5" gradientUnits="userSpaceOnUse">
<stop stop-color="#EB60DD"/>
<stop offset="0.489583" stop-color="#6066EA"/>
<stop offset="0.958333" stop-color="#69EC7E"/>
</linearGradient>
<linearGradient id="paint2_linear_5_20" x1="36" y1="8.5" x2="36" y2="23.5" gradientUnits="userSpaceOnUse">
<stop stop-color="#DEE154"/>
<stop offset="1" stop-color="#E75A5A"/>
</linearGradient>
<linearGradient id="paint3_linear_5_20" x1="50.5" y1="8" x2="67" y2="17" gradientUnits="userSpaceOnUse">
<stop stop-color="#E75A5A"/>
<stop offset="0.5" stop-color="#69EC7E"/>
<stop offset="1" stop-color="#6066EA"/>
</linearGradient>
</defs>
</svg>
